<?xml version="1.0" encoding="UTF-8" standalone="no"?>
<!DOCTYPE svg PUBLIC "-//W3C//DTD SVG 1.1//EN" "http://www.w3.org/Graphics/SVG/1.1/DTD/svg11.dtd">
<svg xmlns="http://www.w3.org/2000/svg" version="1.1" viewBox="0 0 512 512">
<g stroke-width="2.1" fill="none" stroke-linecap="butt">
<path stroke="#989898" vector-effect="non-scaling-stroke" d="
  M 389.79 57.00
  Q 389.19 56.39 388.50 56.00
  Q 354.71 36.52 320.79 17.25"
/>
<path stroke="#d59156" vector-effect="non-scaling-stroke" d="
  M 378.75 76.46
  L 371.50 89.21"
/>
<path stroke="#d5a95e" vector-effect="non-scaling-stroke" d="
  M 371.50 89.21
  L 362.54 104.75"
/>
<path stroke="#d5a95e" vector-effect="non-scaling-stroke" d="
  M 293.54 65.25
  L 302.46 49.25"
/>
<path stroke="#d59156" vector-effect="non-scaling-stroke" d="
  M 302.46 49.25
  Q 306.47 43.27 309.54 36.75"
/>
<path stroke="#fe8e08" vector-effect="non-scaling-stroke" d="
  M 302.46 49.25
  Q 288.74 41.02 281.75 37.25
  Q 279.58 36.08 276.04 35.50"
/>
<path stroke="#fe8e08" vector-effect="non-scaling-stroke" d="
  M 500.04 164.50
  L 499.56 164.13
  C 499.35 163.97 499.18 163.68 499.08 163.32
  Q 498.49 161.06 495.75 159.50
  Q 434.47 124.56 373.25 89.50
  Q 372.58 89.11 371.50 89.21"
/>
<path stroke="#989898" vector-effect="non-scaling-stroke" d="
  M 436.75 199.04
  Q 436.75 221.52 436.75 244.00
  Q 436.75 245.56 437.25 246.04"
/>
<path stroke="#bdb5b3" vector-effect="non-scaling-stroke" d="
  M 437.25 246.04
  L 436.46 246.50"
/>
<path stroke="#d0cbc9" vector-effect="non-scaling-stroke" d="
  M 436.46 246.50
  Q 308.48 246.50 180.50 246.50
  Q 177.80 246.50 176.50 246.25"
/>
<path stroke="#a8a19e" vector-effect="non-scaling-stroke" d="
  M 465.96 245.75
  L 437.25 246.04"
/>
<path stroke="#a8a19e" vector-effect="non-scaling-stroke" d="
  M 369.54 407.75
  L 369.52 407.88
  C 369.51 407.95 369.44 408.00 369.36 408.00
  L 341.75 408.29"
/>
<path stroke="#bdb5b3" vector-effect="non-scaling-stroke" d="
  M 341.75 408.29
  Q 341.26 408.37 341.00 408.04"
/>
<path stroke="#e0d4d0" vector-effect="non-scaling-stroke" d="
  M 341.00 408.04
  Q 341.43 407.61 341.27 406.99
  Q 338.17 394.36 338.10 381.49
  Q 338.04 371.36 340.13 361.64
  Q 347.08 329.33 373.39 309.76
  Q 381.04 304.06 390.57 299.59
  Q 410.24 290.37 431.44 288.69
  Q 434.34 288.46 436.04 287.25
  C 436.29 287.07 436.45 286.77 436.46 286.44
  Q 437.19 266.47 436.46 246.50"
/>
<path stroke="#bbb7b5" vector-effect="non-scaling-stroke" d="
  M 176.50 246.25
  Q 176.50 296.00 176.50 345.75
  Q 176.50 348.54 176.25 349.71"
/>
<path stroke="#989898" vector-effect="non-scaling-stroke" d="
  M 17.75 267.04
  Q 18.66 265.98 19.43 266.86
  Q 20.10 267.62 20.39 267.82
  Q 32.00 275.42 44.45 281.54
  Q 94.10 305.96 148.10 317.92
  Q 151.74 318.73 153.44 318.24
  Q 156.74 317.28 156.75 313.00
  Q 156.85 257.94 157.00 246.46"
/>
<path stroke="#d0cbc9" vector-effect="non-scaling-stroke" d="
  M 341.00 408.04
  Q 272.88 408.41 204.75 408.25
  Q 190.51 408.22 184.96 407.75"
/>
<path stroke="#f9b073" vector-effect="non-scaling-stroke" d="
  M 292.75 316.46
  Q 301.71 316.33 310.67 316.26
  Q 310.78 316.26 312.82 316.34
  Q 317.24 316.52 318.23 313.05
  Q 318.49 312.15 318.53 306.94
  Q 318.64 294.59 318.25 282.25
  Q 318.16 279.27 315.25 279.25
  L 289.75 279.04"
/>
<path stroke="#f9c87b" vector-effect="non-scaling-stroke" d="
  M 289.75 279.04
  Q 243.25 278.94 225.75 279.00
  Q 221.19 279.02 220.37 282.49
  Q 220.25 283.00 220.25 288.03
  Q 220.25 297.64 220.25 307.25
  Q 220.25 311.74 220.33 312.24
  Q 220.89 315.60 224.07 316.22
  Q 224.28 316.26 230.43 316.24
  Q 261.59 316.11 292.75 316.46"
/>
<path stroke="#fe8e08" vector-effect="non-scaling-stroke" d="
  M 289.75 279.04
  Q 291.44 279.71 292.31 281.12
  Q 292.93 282.13 292.95 284.14
  Q 293.04 297.70 292.99 311.25
  Q 292.99 313.49 291.63 315.19
  C 291.42 315.46 291.39 315.79 291.56 315.99
  Q 291.95 316.45 292.75 316.46"
/>
<path stroke="#989898" vector-effect="non-scaling-stroke" d="
  M 341.75 408.29
  Q 343.24 415.90 347.13 422.59
  Q 350.09 427.66 355.34 430.26
  Q 359.53 432.33 359.50 437.00
  Q 359.40 451.75 359.74 462.41
  C 359.75 462.66 359.84 462.88 359.98 462.99
  L 360.25 463.21"
/>
<path stroke="#bdb5b3" vector-effect="non-scaling-stroke" d="
  M 360.25 463.21
  Q 359.76 463.13 359.50 463.46"
/>
<path stroke="#d0cbc9" vector-effect="non-scaling-stroke" d="
  M 359.50 463.46
  L 156.75 463.46"
/>
<path stroke="#a8a19e" vector-effect="non-scaling-stroke" d="
  M 401.96 463.00
  L 360.25 463.21"
/>
<path stroke="#e0d4d0" vector-effect="non-scaling-stroke" d="
  M 394.19 512.00
  Q 394.87 510.09 395.92 508.36
  C 396.10 508.07 396.19 507.75 396.20 507.44
  Q 396.30 499.47 396.46 491.50
  Q 396.87 470.62 378.97 464.69
  Q 375.41 463.51 369.86 463.51
  Q 364.68 463.51 359.50 463.46"
/>
</g>
<path fill="#838383" d="
  M 334.31 0.00
  Q 336.69 0.00 339.06 0.00
  Q 365.11 14.35 390.78 29.37
  Q 395.39 32.07 396.91 34.57
  Q 399.40 38.68 397.65 43.34
  Q 397.25 44.42 393.90 50.26
  Q 391.95 53.69 389.79 57.00
  Q 389.19 56.39 388.50 56.00
  Q 354.71 36.52 320.79 17.25
  Q 326.52 6.58 328.31 4.06
  Q 330.27 1.31 334.31 0.00
  Z"
/>
<path fill="#acacac" d="
  M 320.79 17.25
  Q 354.71 36.52 388.50 56.00
  Q 389.19 56.39 389.79 57.00
  L 378.75 76.46
  L 371.50 89.21
  L 362.54 104.75
  Q 348.72 129.04 344.56 136.06
  Q 341.20 141.75 335.65 141.50
  Q 332.70 141.37 326.95 138.11
  Q 289.31 116.75 279.94 111.31
  Q 270.32 105.73 276.07 95.57
  Q 284.67 80.33 293.54 65.25
  L 302.46 49.25
  Q 306.47 43.27 309.54 36.75
  L 320.79 17.25
  Z"
/>
<path fill="#fe7600" d="
  M 309.54 36.75
  Q 306.47 43.27 302.46 49.25
  Q 288.74 41.02 281.75 37.25
  Q 279.58 36.08 276.04 35.50
  Q 278.49 30.58 281.39 25.90
  Q 282.70 23.78 284.84 23.58
  Q 286.22 23.46 288.43 24.68
  Q 299.08 30.56 309.54 36.75
  Z"
/>
<path fill="#fea610" d="
  M 276.04 35.50
  Q 279.58 36.08 281.75 37.25
  Q 288.74 41.02 302.46 49.25
  L 293.54 65.25
  Q 283.03 59.34 272.62 53.25
  Q 270.13 51.79 269.61 50.51
  Q 268.81 48.54 270.19 45.94
  Q 272.99 40.65 276.04 35.50
  Z"
/>
<rect fill="#acacac" x="-7.72" y="-35.42" transform="translate(233.23,105.69) rotate(-16.8)" width="15.44" height="70.84" rx="7.56"/>
<path fill="#fe7600" d="
  M 378.75 76.46
  Q 381.79 78.00 391.00 83.25
  Q 447.18 115.31 503.31 147.44
  Q 508.18 150.23 505.69 154.94
  Q 504.48 157.21 500.04 164.50
  L 499.56 164.13
  C 499.35 163.97 499.18 163.68 499.08 163.32
  Q 498.49 161.06 495.75 159.50
  Q 434.47 124.56 373.25 89.50
  Q 372.58 89.11 371.50 89.21
  L 378.75 76.46
  Z"
/>
<path fill="#fea610" d="
  M 371.50 89.21
  Q 372.58 89.11 373.25 89.50
  Q 434.47 124.56 495.75 159.50
  Q 498.49 161.06 499.08 163.32
  C 499.18 163.68 499.35 163.97 499.56 164.13
  L 500.04 164.50
  Q 497.32 169.24 494.51 173.92
  Q 493.11 176.23 491.65 176.71
  Q 489.62 177.37 487.25 176.00
  Q 460.91 160.79 362.54 104.75
  L 371.50 89.21
  Z"
/>
<rect fill="#acacac" x="-35.42" y="-7.72" transform="translate(186.01,139.65) rotate(35.3)" width="70.84" height="15.44" rx="7.58"/>
<path fill="#acacac" d="
  M 436.75 199.04
  Q 436.75 221.52 436.75 244.00
  Q 436.75 245.56 437.25 246.04
  L 436.46 246.50
  Q 308.48 246.50 180.50 246.50
  Q 177.80 246.50 176.50 246.25
  Q 176.50 237.75 176.50 229.24
  Q 176.50 216.84 178.10 212.43
  Q 181.29 203.62 190.60 200.32
  Q 194.34 199.00 201.07 199.00
  Q 318.91 198.97 436.75 199.04
  Z"
/>
<path fill="#838383" d="
  M 436.75 199.04
  Q 442.00 198.97 447.25 199.00
  Q 452.62 199.03 458.02 203.49
  Q 464.12 208.54 465.60 215.66
  Q 466.01 217.62 466.01 229.38
  Q 466.01 237.56 465.96 245.75
  L 437.25 246.04
  Q 436.75 245.56 436.75 244.00
  Q 436.75 221.52 436.75 199.04
  Z"
/>
<path fill="#cdbeb9" d="
  M 465.96 245.75
  L 465.94 303.20
  Q 465.94 305.30 463.84 305.52
  Q 452.63 306.67 441.46 309.08
  Q 408.20 316.28 383.47 339.48
  Q 374.10 348.28 368.18 359.68
  Q 362.63 370.41 362.00 382.50
  Q 361.33 395.44 369.54 407.75
  L 369.52 407.88
  C 369.51 407.95 369.44 408.00 369.36 408.00
  L 341.75 408.29
  Q 341.26 408.37 341.00 408.04
  Q 341.43 407.61 341.27 406.99
  Q 338.17 394.36 338.10 381.49
  Q 338.04 371.36 340.13 361.64
  Q 347.08 329.33 373.39 309.76
  Q 381.04 304.06 390.57 299.59
  Q 410.24 290.37 431.44 288.69
  Q 434.34 288.46 436.04 287.25
  C 436.29 287.07 436.45 286.77 436.46 286.44
  Q 437.19 266.47 436.46 246.50
  L 437.25 246.04
  L 465.96 245.75
  Z"
/>
<path fill="#838383" d="
  M 176.50 246.25
  Q 176.50 296.00 176.50 345.75
  Q 176.50 348.54 176.25 349.71
  Q 153.26 345.19 131.46 336.82
  Q 123.22 333.66 112.94 329.26
  Q 80.67 315.46 50.81 295.19
  Q 32.25 282.59 17.75 267.04
  Q 18.66 265.98 19.43 266.86
  Q 20.10 267.62 20.39 267.82
  Q 32.00 275.42 44.45 281.54
  Q 94.10 305.96 148.10 317.92
  Q 151.74 318.73 153.44 318.24
  Q 156.74 317.28 156.75 313.00
  Q 156.85 257.94 157.00 246.46
  L 176.50 246.25
  Z"
/>
<path fill="#f3eae6" d="
  M 176.50 246.25
  Q 177.80 246.50 180.50 246.50
  Q 308.48 246.50 436.46 246.50
  Q 437.19 266.47 436.46 286.44
  C 436.45 286.77 436.29 287.07 436.04 287.25
  Q 434.34 288.46 431.44 288.69
  Q 410.24 290.37 390.57 299.59
  Q 381.04 304.06 373.39 309.76
  Q 347.08 329.33 340.13 361.64
  Q 338.04 371.36 338.10 381.49
  Q 338.17 394.36 341.27 406.99
  Q 341.43 407.61 341.00 408.04
  Q 272.88 408.41 204.75 408.25
  Q 190.51 408.22 184.96 407.75
  Q 191.45 400.72 196.25 391.75
  Q 200.50 383.81 201.42 375.24
  Q 202.66 363.72 194.69 357.06
  Q 187.38 350.95 176.25 349.71
  Q 176.50 348.54 176.50 345.75
  Q 176.50 296.00 176.50 246.25
  Z
  M 292.75 316.46
  Q 301.71 316.33 310.67 316.26
  Q 310.78 316.26 312.82 316.34
  Q 317.24 316.52 318.23 313.05
  Q 318.49 312.15 318.53 306.94
  Q 318.64 294.59 318.25 282.25
  Q 318.16 279.27 315.25 279.25
  L 289.75 279.04
  Q 243.25 278.94 225.75 279.00
  Q 221.19 279.02 220.37 282.49
  Q 220.25 283.00 220.25 288.03
  Q 220.25 297.64 220.25 307.25
  Q 220.25 311.74 220.33 312.24
  Q 220.89 315.60 224.07 316.22
  Q 224.28 316.26 230.43 316.24
  Q 261.59 316.11 292.75 316.46
  Z"
/>
<path fill="#acacac" d="
  M 157.00 246.46
  Q 156.85 257.94 156.75 313.00
  Q 156.74 317.28 153.44 318.24
  Q 151.74 318.73 148.10 317.92
  Q 94.10 305.96 44.45 281.54
  Q 32.00 275.42 20.39 267.82
  Q 20.10 267.62 19.43 266.86
  Q 18.66 265.98 17.75 267.04
  Q 12.84 261.88 8.45 256.28
  Q 6.55 253.85 5.59 251.00
  Q 4.94 249.10 6.80 248.32
  Q 8.79 247.49 10.89 247.07
  Q 12.45 246.75 15.13 246.74
  Q 86.06 246.35 157.00 246.46
  Z"
/>
<path fill="#fea610" d="
  M 289.75 279.04
  Q 291.44 279.71 292.31 281.12
  Q 292.93 282.13 292.95 284.14
  Q 293.04 297.70 292.99 311.25
  Q 292.99 313.49 291.63 315.19
  C 291.42 315.46 291.39 315.79 291.56 315.99
  Q 291.95 316.45 292.75 316.46
  Q 261.59 316.11 230.43 316.24
  Q 224.28 316.26 224.07 316.22
  Q 220.89 315.60 220.33 312.24
  Q 220.25 311.74 220.25 307.25
  Q 220.25 297.64 220.25 288.03
  Q 220.25 283.00 220.37 282.49
  Q 221.19 279.02 225.75 279.00
  Q 243.25 278.94 289.75 279.04
  Z"
/>
<path fill="#fe7600" d="
  M 289.75 279.04
  L 315.25 279.25
  Q 318.16 279.27 318.25 282.25
  Q 318.64 294.59 318.53 306.94
  Q 318.49 312.15 318.23 313.05
  Q 317.24 316.52 312.82 316.34
  Q 310.78 316.26 310.67 316.26
  Q 301.71 316.33 292.75 316.46
  Q 291.95 316.45 291.56 315.99
  C 291.39 315.79 291.42 315.46 291.63 315.19
  Q 292.99 313.49 292.99 311.25
  Q 293.04 297.70 292.95 284.14
  Q 292.93 282.13 292.31 281.12
  Q 291.44 279.71 289.75 279.04
  Z"
/>
<path fill="#acacac" d="
  M 184.96 407.75
  Q 190.51 408.22 204.75 408.25
  Q 272.88 408.41 341.00 408.04
  Q 341.26 408.37 341.75 408.29
  Q 343.24 415.90 347.13 422.59
  Q 350.09 427.66 355.34 430.26
  Q 359.53 432.33 359.50 437.00
  Q 359.40 451.75 359.74 462.41
  C 359.75 462.66 359.84 462.88 359.98 462.99
  L 360.25 463.21
  Q 359.76 463.13 359.50 463.46
  L 156.75 463.46
  Q 156.75 450.60 156.79 437.75
  Q 156.82 430.99 160.81 426.57
  Q 161.98 425.28 169.28 420.73
  Q 177.95 415.32 184.96 407.75
  Z"
/>
<path fill="#838383" d="
  M 369.54 407.75
  Q 379.99 421.83 397.94 430.06
  Q 401.69 431.78 401.80 437.00
  Q 402.09 450.00 401.96 463.00
  L 360.25 463.21
  L 359.98 462.99
  C 359.84 462.88 359.75 462.66 359.74 462.41
  Q 359.40 451.75 359.50 437.00
  Q 359.53 432.33 355.34 430.26
  Q 350.09 427.66 347.13 422.59
  Q 343.24 415.90 341.75 408.29
  L 369.36 408.00
  C 369.44 408.00 369.51 407.95 369.52 407.88
  L 369.54 407.75
  Z"
/>
<path fill="#cdbeb9" d="
  M 401.96 463.00
  Q 406.22 463.44 410.50 463.18
  Q 425.54 462.29 433.94 473.56
  Q 438.39 479.54 438.44 488.25
  Q 438.50 497.00 438.50 505.75
  Q 438.50 510.39 434.69 512.00
  Q 414.44 512.00 394.19 512.00
  Q 394.87 510.09 395.92 508.36
  C 396.10 508.07 396.19 507.75 396.20 507.44
  Q 396.30 499.47 396.46 491.50
  Q 396.87 470.62 378.97 464.69
  Q 375.41 463.51 369.86 463.51
  Q 364.68 463.51 359.50 463.46
  Q 359.76 463.13 360.25 463.21
  L 401.96 463.00
  Z"
/>
<path fill="#f3eae6" d="
  M 156.75 463.46
  L 359.50 463.46
  Q 364.68 463.51 369.86 463.51
  Q 375.41 463.51 378.97 464.69
  Q 396.87 470.62 396.46 491.50
  Q 396.30 499.47 396.20 507.44
  C 396.19 507.75 396.10 508.07 395.92 508.36
  Q 394.87 510.09 394.19 512.00
  Q 259.31 512.00 124.44 512.00
  Q 120.00 510.95 120.00 507.00
  Q 120.00 500.03 120.00 493.06
  Q 120.00 493.00 119.90 489.43
  Q 119.62 479.01 125.81 472.06
  Q 133.03 463.95 144.00 463.69
  Q 150.38 463.53 156.75 463.46
  Z"
/>
</svg>
