<?xml version="1.0" encoding="UTF-8" standalone="no"?>
<!DOCTYPE svg PUBLIC "-//W3C//DTD SVG 1.1//EN" "http://www.w3.org/Graphics/SVG/1.1/DTD/svg11.dtd">
<svg xmlns="http://www.w3.org/2000/svg" version="1.1" viewBox="0 0 512 512">
<g stroke-width="2.1" fill="none" stroke-linecap="butt">
<path stroke="#d09974" vector-effect="non-scaling-stroke" d="
  M 288.75 198.21
  L 257.50 226.29"
/>
<path stroke="#bd7a4c" vector-effect="non-scaling-stroke" d="
  M 257.50 226.29
  Q 257.04 226.16 256.31 225.44
  Q 216.88 186.01 177.45 146.57
  Q 174.49 143.61 172.70 142.92
  Q 169.40 141.64 166.25 143.75
  Q 161.71 146.79 162.76 151.43
  Q 163.32 153.94 166.54 157.19
  Q 199.30 190.20 232.31 222.96
  Q 232.37 223.02 238.19 229.02
  Q 242.03 232.98 246.25 236.54"
/>
<path stroke="#d09974" vector-effect="non-scaling-stroke" d="
  M 246.25 236.54
  L 193.29 284.00"
/>
<path stroke="#bd7a4c" vector-effect="non-scaling-stroke" d="
  M 19.50 58.46
  Q 19.91 58.65 20.00 59.01
  C 20.11 59.43 20.24 59.75 20.35 59.86
  Q 59.39 99.29 98.88 138.28
  Q 101.41 140.77 103.26 141.34
  Q 106.19 142.24 108.94 140.69
  Q 113.99 137.83 112.76 132.65
  Q 112.25 130.53 110.37 128.40
  Q 109.00 126.85 106.94 124.81
  Q 80.74 98.90 30.53 48.16
  Q 30.43 48.05 30.30 48.01
  Q 30.16 47.97 30.00 47.96"
/>
<path stroke="#748c99" vector-effect="non-scaling-stroke" d="
  M 349.04 65.00
  L 311.25 115.54"
/>
<path stroke="#748c99" vector-effect="non-scaling-stroke" d="
  M 358.29 78.00
  Q 333.92 110.65 324.81 123.06
  Q 324.15 123.97 323.50 124.29"
/>
<path stroke="#748c99" vector-effect="non-scaling-stroke" d="
  M 455.79 143.75
  Q 455.88 144.73 457.25 146.25
  Q 487.80 180.00 496.60 225.14
  Q 498.22 233.42 499.32 244.94
  Q 501.04 263.04 501.17 281.25
  Q 501.23 288.58 494.69 289.69
  Q 490.43 290.41 485.01 288.36
  Q 484.91 288.32 484.22 287.87
  Q 483.67 287.52 483.04 288.00"
/>
<path stroke="#748c99" vector-effect="non-scaling-stroke" d="
  M 449.71 213.00
  Q 449.64 211.58 448.44 210.31
  Q 444.31 205.99 440.17 202.54
  Q 435.04 198.26 430.64 196.49
  Q 421.23 192.71 411.31 196.06
  Q 404.16 198.48 370.39 211.22
  Q 361.43 214.60 359.90 214.85
  Q 354.13 215.78 348.50 212.79"
/>
<path stroke="#a79385" vector-effect="non-scaling-stroke" d="
  M 348.50 212.79
  L 339.00 203.71"
/>
<path stroke="#b0a69e" vector-effect="non-scaling-stroke" d="
  M 339.00 203.71
  L 313.92 178.53
  Q 313.69 178.31 313.40 177.71
  Q 313.06 176.99 312.25 177.21"
/>
<path stroke="#c68c64" vector-effect="non-scaling-stroke" d="
  M 257.50 226.29
  L 246.25 236.54"
/>
<path stroke="#d09974" vector-effect="non-scaling-stroke" d="
  M 339.00 203.71
  Q 338.31 204.04 337.00 205.50
  Q 282.17 266.76 82.60 488.75
  Q 74.90 497.32 72.81 498.62
  Q 66.32 502.68 57.81 499.69
  Q 47.05 495.89 37.42 487.96
  Q 37.35 487.90 36.59 487.05
  Q 35.83 486.20 34.50 486.54"
/>
<path stroke="#947f6f" vector-effect="non-scaling-stroke" d="
  M 350.00 214.71
  Q 349.89 213.36 348.50 212.79"
/>
<path stroke="#bd7a4c" vector-effect="non-scaling-stroke" d="
  M 329.00 238.46
  Q 328.40 238.64 327.44 239.69
  Q 313.80 254.55 300.50 269.71"
/>
<path stroke="#ac6b4e" vector-effect="non-scaling-stroke" d="
  M 300.50 269.71
  L 290.46 281.00"
/>
<path stroke="#bd7a4c" vector-effect="non-scaling-stroke" d="
  M 290.46 281.00
  Q 269.49 303.78 249.02 327.01
  Q 245.75 330.72 243.44 332.69
  Q 242.88 333.16 243.21 333.75"
/>
<path stroke="#bd7a4c" vector-effect="non-scaling-stroke" d="
  M 340.00 249.46
  Q 339.11 249.68 338.31 250.56
  Q 325.16 265.16 312.05 279.83
  C 311.76 280.16 311.77 280.65 312.08 280.96
  Q 355.79 325.09 400.06 369.19
  Q 404.19 373.30 402.87 377.88
  Q 402.11 380.52 399.82 382.05
  Q 397.26 383.76 394.36 383.12
  Q 391.96 382.59 388.50 379.14
  Q 344.94 335.77 301.65 292.52
  C 301.34 292.21 300.84 292.23 300.55 292.55
  Q 280.51 314.89 260.69 336.94
  Q 256.23 341.90 254.21 344.75"
/>
<path stroke="#a25f3f" vector-effect="non-scaling-stroke" d="
  M 290.46 281.00
  L 300.66 291.51
  C 300.86 291.72 301.19 291.71 301.38 291.50
  L 310.70 280.89
  C 310.89 280.67 310.88 280.33 310.67 280.12
  L 300.50 269.71"
/>
<path stroke="#bd7a4c" vector-effect="non-scaling-stroke" d="
  M 500.04 409.50
  Q 499.30 410.44 499.73 411.33
  Q 500.12 412.14 500.15 412.24
  Q 502.81 421.53 495.69 428.69
  Q 470.22 454.25 444.60 479.65
  C 444.41 479.84 444.09 479.84 443.90 479.65
  Q 429.65 465.28 415.03 451.31
  Q 412.39 448.78 410.19 448.41
  Q 406.95 447.86 404.31 450.06
  Q 400.67 453.11 401.53 457.20
  Q 402.04 459.66 405.27 462.94
  Q 418.91 476.84 432.65 490.64
  C 432.85 490.85 432.87 491.17 432.69 491.39
  Q 429.37 495.49 426.31 497.81
  Q 421.06 501.80 414.00 500.75
  Q 411.60 500.39 410.26 498.95
  C 409.98 498.65 409.68 498.46 409.45 498.45
  Q 408.86 498.41 408.50 498.96"
/>
<path stroke="#a25f3f" vector-effect="non-scaling-stroke" d="
  M 455.04 491.00
  L 444.45 480.45
  C 444.31 480.31 444.07 480.31 443.93 480.45
  L 433.91 490.47
  C 433.52 490.86 433.54 491.49 433.94 491.86
  Q 439.54 497.01 443.79 502.25"
/>
</g>
<path fill="#c7865b" d="
  M 83.31 0.00
  Q 84.31 0.00 85.31 0.00
  Q 91.41 0.78 96.06 5.44
  Q 192.46 101.77 288.75 198.21
  L 257.50 226.29
  Q 257.04 226.16 256.31 225.44
  Q 216.88 186.01 177.45 146.57
  Q 174.49 143.61 172.70 142.92
  Q 169.40 141.64 166.25 143.75
  Q 161.71 146.79 162.76 151.43
  Q 163.32 153.94 166.54 157.19
  Q 199.30 190.20 232.31 222.96
  Q 232.37 223.02 238.19 229.02
  Q 242.03 232.98 246.25 236.54
  L 193.29 284.00
  Q 99.29 189.85 5.15 95.85
  Q 0.72 91.43 0.00 85.19
  Q 0.00 84.19 0.00 83.19
  Q 0.69 77.20 3.31 74.56
  Q 11.35 66.46 19.50 58.46
  Q 19.91 58.65 20.00 59.01
  C 20.11 59.43 20.24 59.75 20.35 59.86
  Q 59.39 99.29 98.88 138.28
  Q 101.41 140.77 103.26 141.34
  Q 106.19 142.24 108.94 140.69
  Q 113.99 137.83 112.76 132.65
  Q 112.25 130.53 110.37 128.40
  Q 109.00 126.85 106.94 124.81
  Q 80.74 98.90 30.53 48.16
  Q 30.43 48.05 30.30 48.01
  Q 30.16 47.97 30.00 47.96
  Q 52.23 25.58 74.56 3.31
  Q 77.24 0.64 83.31 0.00
  Z"
/>
<path fill="#87a0af" d="
  M 349.04 65.00
  L 311.25 115.54
  Q 281.45 94.36 251.76 73.03
  Q 243.91 67.39 242.50 65.65
  Q 238.34 60.51 239.75 53.25
  Q 240.74 48.15 245.23 43.95
  Q 248.01 41.35 248.04 41.32
  Q 265.49 23.73 283.19 6.38
  Q 286.67 2.96 289.67 1.80
  Q 296.98 -1.04 303.06 2.88
  Q 306.09 4.84 311.35 12.13
  Q 330.34 38.46 349.04 65.00
  Z"
/>
<path fill="#b36d3c" d="
  M 30.00 47.96
  Q 30.16 47.97 30.30 48.01
  Q 30.43 48.05 30.53 48.16
  Q 80.74 98.90 106.94 124.81
  Q 109.00 126.85 110.37 128.40
  Q 112.25 130.53 112.76 132.65
  Q 113.99 137.83 108.94 140.69
  Q 106.19 142.24 103.26 141.34
  Q 101.41 140.77 98.88 138.28
  Q 59.39 99.29 20.35 59.86
  C 20.24 59.75 20.11 59.43 20.00 59.01
  Q 19.91 58.65 19.50 58.46
  L 30.00 47.96
  Z"
/>
<path fill="#607882" d="
  M 349.04 65.00
  L 358.29 78.00
  Q 333.92 110.65 324.81 123.06
  Q 324.15 123.97 323.50 124.29
  L 311.25 115.54
  L 349.04 65.00
  Z"
/>
<path fill="#87a0af" d="
  M 455.79 143.75
  Q 455.88 144.73 457.25 146.25
  Q 487.80 180.00 496.60 225.14
  Q 498.22 233.42 499.32 244.94
  Q 501.04 263.04 501.17 281.25
  Q 501.23 288.58 494.69 289.69
  Q 490.43 290.41 485.01 288.36
  Q 484.91 288.32 484.22 287.87
  Q 483.67 287.52 483.04 288.00
  Q 482.02 286.06 481.00 282.00
  Q 479.40 275.62 477.87 269.22
  Q 473.90 252.60 466.56 237.19
  Q 459.81 223.00 449.71 213.00
  Q 449.64 211.58 448.44 210.31
  Q 444.31 205.99 440.17 202.54
  Q 435.04 198.26 430.64 196.49
  Q 421.23 192.71 411.31 196.06
  Q 404.16 198.48 370.39 211.22
  Q 361.43 214.60 359.90 214.85
  Q 354.13 215.78 348.50 212.79
  L 339.00 203.71
  L 313.92 178.53
  Q 313.69 178.31 313.40 177.71
  Q 313.06 176.99 312.25 177.21
  Q 310.51 174.62 307.69 172.06
  Q 299.43 164.59 301.98 155.74
  Q 303.00 152.20 309.87 143.10
  Q 316.86 133.83 323.50 124.29
  Q 324.15 123.97 324.81 123.06
  Q 333.92 110.65 358.29 78.00
  Q 359.78 76.24 361.25 74.47
  Q 369.15 64.98 379.50 69.18
  Q 382.54 70.41 386.12 73.99
  Q 421.00 108.82 455.79 143.75
  Z"
/>
<path fill="#b36d3c" d="
  M 257.50 226.29
  L 246.25 236.54
  Q 242.03 232.98 238.19 229.02
  Q 232.37 223.02 232.31 222.96
  Q 199.30 190.20 166.54 157.19
  Q 163.32 153.94 162.76 151.43
  Q 161.71 146.79 166.25 143.75
  Q 169.40 141.64 172.70 142.92
  Q 174.49 143.61 177.45 146.57
  Q 216.88 186.01 256.31 225.44
  Q 257.04 226.16 257.50 226.29
  Z"
/>
<path fill="#607882" d="
  M 455.79 143.75
  Q 479.11 166.21 492.44 192.31
  Q 504.05 215.04 508.13 240.27
  Q 512.03 264.39 511.75 286.75
  Q 511.73 288.21 512.00 288.81
  Q 512.00 291.56 512.00 294.31
  Q 509.90 301.45 501.75 300.50
  Q 488.53 298.95 483.04 288.00
  Q 483.67 287.52 484.22 287.87
  Q 484.91 288.32 485.01 288.36
  Q 490.43 290.41 494.69 289.69
  Q 501.23 288.58 501.17 281.25
  Q 501.04 263.04 499.32 244.94
  Q 498.22 233.42 496.60 225.14
  Q 487.80 180.00 457.25 146.25
  Q 455.88 144.73 455.79 143.75
  Z"
/>
<path fill="#d8ab8c" d="
  M 339.00 203.71
  Q 338.31 204.04 337.00 205.50
  Q 282.17 266.76 82.60 488.75
  Q 74.90 497.32 72.81 498.62
  Q 66.32 502.68 57.81 499.69
  Q 47.05 495.89 37.42 487.96
  Q 37.35 487.90 36.59 487.05
  Q 35.83 486.20 34.50 486.54
  Q 21.21 472.60 15.81 456.69
  Q 13.60 450.18 16.60 444.60
  Q 18.09 441.84 24.31 436.24
  Q 108.82 360.14 193.29 284.00
  L 246.25 236.54
  L 257.50 226.29
  L 288.75 198.21
  L 312.25 177.21
  Q 313.06 176.99 313.40 177.71
  Q 313.69 178.31 313.92 178.53
  L 339.00 203.71
  Z"
/>
<path fill="#607882" d="
  M 449.71 213.00
  Q 435.15 201.83 417.72 208.43
  Q 398.50 215.71 379.25 222.94
  Q 371.14 225.98 367.97 226.00
  Q 361.59 226.05 356.59 220.91
  Q 353.43 217.67 350.00 214.71
  Q 349.89 213.36 348.50 212.79
  Q 354.13 215.78 359.90 214.85
  Q 361.43 214.60 370.39 211.22
  Q 404.16 198.48 411.31 196.06
  Q 421.23 192.71 430.64 196.49
  Q 435.04 198.26 440.17 202.54
  Q 444.31 205.99 448.44 210.31
  Q 449.64 211.58 449.71 213.00
  Z"
/>
<path fill="#c7865b" d="
  M 339.00 203.71
  L 348.50 212.79
  Q 349.89 213.36 350.00 214.71
  Q 340.35 224.97 331.06 235.56
  Q 329.30 237.57 329.00 238.46
  Q 328.40 238.64 327.44 239.69
  Q 313.80 254.55 300.50 269.71
  L 290.46 281.00
  Q 269.49 303.78 249.02 327.01
  Q 245.75 330.72 243.44 332.69
  Q 242.88 333.16 243.21 333.75
  Q 242.73 333.84 242.19 334.44
  Q 113.72 477.14 88.94 504.94
  Q 83.53 511.01 76.44 512.00
  Q 75.44 512.00 74.44 512.00
  Q 73.41 511.78 72.37 511.60
  Q 71.23 511.41 70.33 511.07
  Q 49.46 503.19 34.50 486.54
  Q 35.83 486.20 36.59 487.05
  Q 37.35 487.90 37.42 487.96
  Q 47.05 495.89 57.81 499.69
  Q 66.32 502.68 72.81 498.62
  Q 74.90 497.32 82.60 488.75
  Q 282.17 266.76 337.00 205.50
  Q 338.31 204.04 339.00 203.71
  Z"
/>
<path fill="#b36d3c" d="
  M 329.00 238.46
  L 340.00 249.46
  Q 339.11 249.68 338.31 250.56
  Q 325.16 265.16 312.05 279.83
  C 311.76 280.16 311.77 280.65 312.08 280.96
  Q 355.79 325.09 400.06 369.19
  Q 404.19 373.30 402.87 377.88
  Q 402.11 380.52 399.82 382.05
  Q 397.26 383.76 394.36 383.12
  Q 391.96 382.59 388.50 379.14
  Q 344.94 335.77 301.65 292.52
  C 301.34 292.21 300.84 292.23 300.55 292.55
  Q 280.51 314.89 260.69 336.94
  Q 256.23 341.90 254.21 344.75
  L 243.21 333.75
  Q 242.88 333.16 243.44 332.69
  Q 245.75 330.72 249.02 327.01
  Q 269.49 303.78 290.46 281.00
  L 300.66 291.51
  C 300.86 291.72 301.19 291.71 301.38 291.50
  L 310.70 280.89
  C 310.89 280.67 310.88 280.33 310.67 280.12
  L 300.50 269.71
  Q 313.80 254.55 327.44 239.69
  Q 328.40 238.64 329.00 238.46
  Z"
/>
<path fill="#c7865b" d="
  M 340.00 249.46
  L 500.04 409.50
  Q 499.30 410.44 499.73 411.33
  Q 500.12 412.14 500.15 412.24
  Q 502.81 421.53 495.69 428.69
  Q 470.22 454.25 444.60 479.65
  C 444.41 479.84 444.09 479.84 443.90 479.65
  Q 429.65 465.28 415.03 451.31
  Q 412.39 448.78 410.19 448.41
  Q 406.95 447.86 404.31 450.06
  Q 400.67 453.11 401.53 457.20
  Q 402.04 459.66 405.27 462.94
  Q 418.91 476.84 432.65 490.64
  C 432.85 490.85 432.87 491.17 432.69 491.39
  Q 429.37 495.49 426.31 497.81
  Q 421.06 501.80 414.00 500.75
  Q 411.60 500.39 410.26 498.95
  C 409.98 498.65 409.68 498.46 409.45 498.45
  Q 408.86 498.41 408.50 498.96
  L 254.21 344.75
  Q 256.23 341.90 260.69 336.94
  Q 280.51 314.89 300.55 292.55
  C 300.84 292.23 301.34 292.21 301.65 292.52
  Q 344.94 335.77 388.50 379.14
  Q 391.96 382.59 394.36 383.12
  Q 397.26 383.76 399.82 382.05
  Q 402.11 380.52 402.87 377.88
  Q 404.19 373.30 400.06 369.19
  Q 355.79 325.09 312.08 280.96
  C 311.77 280.65 311.76 280.16 312.05 279.83
  Q 325.16 265.16 338.31 250.56
  Q 339.11 249.68 340.00 249.46
  Z"
/>
<path fill="#915041" d="
  M 300.50 269.71
  L 310.67 280.12
  C 310.88 280.33 310.89 280.67 310.70 280.89
  L 301.38 291.50
  C 301.19 291.71 300.86 291.72 300.66 291.51
  L 290.46 281.00
  L 300.50 269.71
  Z"
/>
<path fill="#b36d3c" d="
  M 500.04 409.50
  Q 503.10 412.42 506.19 415.30
  Q 511.37 420.16 512.00 427.31
  Q 512.00 427.94 512.00 428.56
  Q 511.50 434.50 507.69 438.44
  Q 485.11 461.78 455.04 491.00
  L 444.45 480.45
  C 444.31 480.31 444.07 480.31 443.93 480.45
  L 433.91 490.47
  C 433.52 490.86 433.54 491.49 433.94 491.86
  Q 439.54 497.01 443.79 502.25
  Q 438.81 507.66 437.25 508.75
  Q 433.51 511.38 428.94 512.00
  Q 427.94 512.00 426.94 512.00
  Q 421.00 511.36 416.72 507.27
  Q 412.49 503.23 408.50 498.96
  Q 408.86 498.41 409.45 498.45
  C 409.68 498.46 409.98 498.65 410.26 498.95
  Q 411.60 500.39 414.00 500.75
  Q 421.06 501.80 426.31 497.81
  Q 429.37 495.49 432.69 491.39
  C 432.87 491.17 432.85 490.85 432.65 490.64
  Q 418.91 476.84 405.27 462.94
  Q 402.04 459.66 401.53 457.20
  Q 400.67 453.11 404.31 450.06
  Q 406.95 447.86 410.19 448.41
  Q 412.39 448.78 415.03 451.31
  Q 429.65 465.28 443.90 479.65
  C 444.09 479.84 444.41 479.84 444.60 479.65
  Q 470.22 454.25 495.69 428.69
  Q 502.81 421.53 500.15 412.24
  Q 500.12 412.14 499.73 411.33
  Q 499.30 410.44 500.04 409.50
  Z"
/>
<path fill="#87a0af" d="
  M 281.15 472.68
  Q 280.95 469.55 281.53 466.53
  Q 282.20 463.09 284.29 461.25
  Q 288.06 457.92 293.19 460.81
  Q 296.01 462.40 296.62 465.68
  Q 296.75 466.40 296.75 471.32
  Q 296.75 482.16 296.75 493.00
  Q 296.75 499.25 292.42 501.47
  Q 289.48 502.98 286.36 501.95
  Q 282.88 500.81 281.75 497.00
  Q 280.92 494.19 281.27 489.43
  C 281.29 489.17 281.08 488.94 280.81 488.94
  Q 229.66 488.61 178.50 488.79
  Q 174.25 488.80 171.91 486.09
  Q 169.74 483.57 170.12 479.96
  Q 170.52 476.04 174.02 474.30
  Q 176.02 473.31 180.27 473.31
  Q 230.48 473.25 280.68 473.19
  C 280.95 473.19 281.17 472.96 281.15 472.68
  Z"
/>
<path fill="#915041" d="
  M 455.04 491.00
  L 443.79 502.25
  Q 439.54 497.01 433.94 491.86
  C 433.54 491.49 433.52 490.86 433.91 490.47
  L 443.93 480.45
  C 444.07 480.31 444.31 480.31 444.45 480.45
  L 455.04 491.00
  Z"
/>
</svg>
