<?xml version="1.0" encoding="UTF-8" standalone="no"?>
<!DOCTYPE svg PUBLIC "-//W3C//DTD SVG 1.1//EN" "http://www.w3.org/Graphics/SVG/1.1/DTD/svg11.dtd">
<svg xmlns="http://www.w3.org/2000/svg" version="1.1" viewBox="0 0 512 512">
<g stroke-width="2.1" fill="none" stroke-linecap="butt">
<path stroke="#713252" vector-effect="non-scaling-stroke" d="
  M 107.71 96.75
  Q 98.82 103.54 88.46 107.75"
/>
<path stroke="#834562" vector-effect="non-scaling-stroke" d="
  M 88.46 107.75
  Q 77.30 111.56 65.50 112.29"
/>
<path stroke="#d8a362" vector-effect="non-scaling-stroke" d="
  M 469.50 493.54
  Q 479.04 488.54 479.75 478.75
  Q 480.58 467.23 471.63 458.13
  Q 462.48 448.83 450.90 442.98
  C 450.52 442.79 450.38 442.31 450.61 441.95
  Q 462.37 423.44 468.67 403.05
  Q 473.98 385.84 476.75 371.50
  Q 485.76 324.89 485.21 275.99
  Q 485.10 265.64 484.76 255.99
  Q 482.99 205.54 470.29 156.60
  Q 462.92 128.21 447.99 102.98
  C 447.89 102.82 447.96 102.61 448.13 102.53
  Q 459.00 97.34 468.06 89.31
  Q 474.82 83.33 477.89 76.03
  Q 480.59 69.61 479.41 63.70
  Q 478.09 57.08 472.56 52.44
  Q 471.13 51.24 470.46 50.25"
/>
<path stroke="#b4a393" vector-effect="non-scaling-stroke" d="
  M 387.54 482.25
  Q 387.29 478.17 387.13 474.09
  Q 386.94 469.03 386.10 466.02
  Q 381.90 450.94 367.45 445.73
  Q 363.31 444.24 356.85 444.09
  Q 348.35 443.89 339.31 444.01
  C 338.46 444.02 337.75 443.35 337.73 442.50
  Q 336.73 407.37 310.30 383.71
  Q 294.92 369.93 273.70 365.01
  C 273.19 364.89 272.82 364.45 272.78 363.92
  Q 270.54 330.65 250.00 306.37
  Q 243.56 298.77 235.58 292.57
  Q 208.12 271.27 171.85 272.18
  C 171.63 272.19 171.44 272.11 171.36 271.99
  L 171.21 271.75"
/>
<path stroke="#d97d70" vector-effect="non-scaling-stroke" d="
  M 171.21 271.75
  L 156.71 231.00"
/>
<path stroke="#edd5a9" vector-effect="non-scaling-stroke" d="
  M 256.48 266.47
  Q 261.98 269.19 266.00 269.25
  Q 300.28 269.76 385.50 269.54
  Q 391.26 269.53 397.01 269.29
  Q 403.89 269.01 408.26 267.34
  Q 420.98 262.47 424.72 250.11
  Q 426.25 245.06 426.25 230.25
  Q 426.25 213.38 426.25 196.50
  Q 426.25 184.76 418.25 176.83
  Q 413.87 172.49 408.36 170.48
  Q 402.96 168.50 396.50 168.50
  Q 332.75 168.50 269.00 168.54
  Q 258.77 168.55 251.30 174.28
  Q 246.00 178.34 243.13 184.42
  Q 240.28 190.45 240.27 197.50
  Q 240.25 219.00 240.45 240.50
  Q 240.61 258.59 256.48 266.47"
/>
<path stroke="#a2688d" vector-effect="non-scaling-stroke" d="
  M 171.21 271.75
  L 162.50 273.46"
/>
<path stroke="#b980a0" vector-effect="non-scaling-stroke" d="
  M 162.50 273.46
  L 149.75 275.96"
/>
<path stroke="#d9547a" vector-effect="non-scaling-stroke" d="
  M 149.75 275.96
  L 88.46 107.75"
/>
<path stroke="#ca93af" vector-effect="non-scaling-stroke" d="
  M 149.75 275.96
  Q 138.07 279.64 130.06 284.31
  Q 128.80 285.05 128.29 285.00"
/>
<path stroke="#94a7c3" vector-effect="non-scaling-stroke" d="
  M 359.25 496.79
  Q 360.95 495.04 361.00 492.75
  Q 361.17 484.81 360.93 475.37
  Q 360.74 468.12 359.51 464.27
  Q 357.71 458.63 353.94 454.31
  Q 345.02 444.11 330.75 444.04
  Q 322.00 444.00 312.52 444.00
  C 311.97 444.00 311.52 443.56 311.51 443.02
  Q 311.15 427.11 305.32 413.04
  Q 301.57 403.98 295.40 395.74
  Q 277.73 372.16 247.61 365.14
  C 247.05 365.01 246.64 364.54 246.60 363.97
  Q 244.18 329.99 222.92 305.57
  Q 202.52 282.13 172.45 274.81
  Q 170.61 274.37 167.49 274.13
  Q 164.97 273.94 162.50 273.46"
/>
<path stroke="#94a7c3" vector-effect="non-scaling-stroke" d="
  M 145.44 351.06
  Q 150.27 354.17 153.96 351.31
  Q 154.67 350.76 157.59 346.39
  Q 161.16 341.07 167.00 339.50
  Q 175.60 337.18 182.49 343.77
  Q 186.11 347.24 190.25 346.25
  Q 194.22 345.30 195.49 341.40
  Q 196.14 339.42 195.65 337.45
  Q 195.13 335.37 193.77 333.81
  Q 192.86 332.77 189.34 330.08
  Q 182.51 324.87 174.00 324.25
  Q 157.84 323.07 147.44 335.44
  Q 144.30 339.17 142.95 342.90
  Q 142.07 345.32 142.62 347.28
  Q 143.30 349.69 145.44 351.06"
/>
<path stroke="#94a7c3" vector-effect="non-scaling-stroke" d="
  M 260.60 415.67
  Q 267.55 420.85 268.25 430.00
  Q 268.70 435.88 273.01 437.78
  Q 275.45 438.85 278.03 438.01
  Q 280.87 437.08 282.18 434.57
  Q 283.45 432.15 282.92 427.66
  Q 281.70 417.23 275.44 409.51
  Q 269.40 402.05 260.07 398.67
  Q 245.70 393.46 230.78 401.51
  Q 227.37 403.35 226.52 406.65
  Q 225.69 409.81 227.44 412.64
  Q 229.86 416.55 235.46 415.55
  Q 236.37 415.39 240.81 413.31
  Q 245.85 410.96 251.25 411.73
  Q 256.29 412.45 260.60 415.67"
/>
<path stroke="#94a7c3" vector-effect="non-scaling-stroke" d="
  M 101.07 441.88
  Q 105.45 445.04 109.65 441.64
  Q 111.31 440.30 112.83 438.82
  Q 114.70 437.00 116.12 436.21
  Q 126.71 430.31 136.69 437.81
  Q 139.69 440.07 142.83 439.63
  Q 145.70 439.23 147.75 436.51
  Q 151.70 431.27 145.81 426.19
  Q 140.13 421.28 132.64 419.60
  Q 125.57 418.02 118.35 419.55
  Q 108.41 421.65 101.30 429.21
  Q 98.31 432.39 97.83 434.99
  Q 97.08 439.00 101.07 441.88"
/>
</g>
<path fill="#1b223a" d="
  M 107.71 96.75
  Q 98.82 103.54 88.46 107.75
  Q 77.30 111.56 65.50 112.29
  Q 27.64 111.43 6.08 80.93
  Q 4.00 77.99 2.88 74.64
  Q 1.75 71.29 2.16 67.76
  Q 3.42 56.79 14.49 52.72
  Q 61.53 35.42 108.68 18.42
  Q 111.72 17.32 114.88 17.17
  Q 117.99 17.02 121.01 18.07
  Q 127.58 20.34 130.70 26.12
  Q 132.87 30.14 133.24 37.75
  Q 134.98 73.23 107.71 96.75
  Z
  M 115.66 32.14
  Q 114.41 32.06 112.93 32.70
  Q 110.98 33.53 110.90 33.56
  Q 64.29 50.34 18.93 67.15
  Q 15.75 68.33 17.62 71.17
  Q 27.37 85.98 42.54 92.57
  Q 51.58 96.49 61.92 96.89
  Q 80.31 97.60 95.12 87.19
  Q 103.46 81.34 109.08 73.05
  Q 120.45 56.27 117.95 34.33
  Q 117.72 32.28 115.66 32.14
  Z"
/>
<path fill="#c68d4e" d="
  M 512.00 265.06
  Q 512.00 280.31 512.00 295.56
  Q 510.94 316.64 509.44 331.94
  Q 506.91 357.77 500.46 384.99
  Q 499.21 390.23 497.65 395.38
  Q 495.87 401.21 494.46 405.65
  Q 488.35 424.89 477.39 442.02
  C 477.17 442.36 477.30 442.81 477.66 442.98
  Q 491.18 449.53 500.94 461.06
  Q 504.33 465.07 505.82 470.74
  Q 507.28 476.34 506.00 481.28
  Q 504.78 486.02 501.57 489.73
  Q 498.53 493.26 494.02 495.03
  Q 487.68 497.53 480.25 496.50
  Q 474.04 495.64 469.50 493.54
  Q 479.04 488.54 479.75 478.75
  Q 480.58 467.23 471.63 458.13
  Q 462.48 448.83 450.90 442.98
  C 450.52 442.79 450.38 442.31 450.61 441.95
  Q 462.37 423.44 468.67 403.05
  Q 473.98 385.84 476.75 371.50
  Q 485.76 324.89 485.21 275.99
  Q 485.10 265.64 484.76 255.99
  Q 482.99 205.54 470.29 156.60
  Q 462.92 128.21 447.99 102.98
  C 447.89 102.82 447.96 102.61 448.13 102.53
  Q 459.00 97.34 468.06 89.31
  Q 474.82 83.33 477.89 76.03
  Q 480.59 69.61 479.41 63.70
  Q 478.09 57.08 472.56 52.44
  Q 471.13 51.24 470.46 50.25
  Q 479.58 46.11 489.49 47.79
  Q 495.95 48.89 500.31 53.03
  Q 504.48 56.98 505.94 63.00
  Q 508.26 72.58 501.81 81.56
  Q 498.33 86.41 494.91 89.40
  Q 485.86 97.30 475.07 102.56
  C 474.80 102.69 474.70 103.03 474.86 103.29
  Q 481.56 113.98 486.18 125.06
  Q 497.27 151.67 502.71 180.01
  Q 510.81 222.15 512.00 265.06
  Z"
/>
<path fill="#eab875" d="
  M 470.46 50.25
  Q 471.13 51.24 472.56 52.44
  Q 478.09 57.08 479.41 63.70
  Q 480.59 69.61 477.89 76.03
  Q 474.82 83.33 468.06 89.31
  Q 459.00 97.34 448.13 102.53
  C 447.96 102.61 447.89 102.82 447.99 102.98
  Q 462.92 128.21 470.29 156.60
  Q 482.99 205.54 484.76 255.99
  Q 485.10 265.64 485.21 275.99
  Q 485.76 324.89 476.75 371.50
  Q 473.98 385.84 468.67 403.05
  Q 462.37 423.44 450.61 441.95
  C 450.38 442.31 450.52 442.79 450.90 442.98
  Q 462.48 448.83 471.63 458.13
  Q 480.58 467.23 479.75 478.75
  Q 479.04 488.54 469.50 493.54
  Q 450.69 486.26 436.29 472.16
  C 436.07 471.94 435.75 471.87 435.45 471.96
  Q 411.91 479.03 387.54 482.25
  Q 387.29 478.17 387.13 474.09
  Q 386.94 469.03 386.10 466.02
  Q 381.90 450.94 367.45 445.73
  Q 363.31 444.24 356.85 444.09
  Q 348.35 443.89 339.31 444.01
  C 338.46 444.02 337.75 443.35 337.73 442.50
  Q 336.73 407.37 310.30 383.71
  Q 294.92 369.93 273.70 365.01
  C 273.19 364.89 272.82 364.45 272.78 363.92
  Q 270.54 330.65 250.00 306.37
  Q 243.56 298.77 235.58 292.57
  Q 208.12 271.27 171.85 272.18
  C 171.63 272.19 171.44 272.11 171.36 271.99
  L 171.21 271.75
  L 156.71 231.00
  Q 156.92 230.73 157.00 229.75
  Q 160.28 188.34 171.99 148.50
  Q 178.98 124.73 191.90 103.42
  C 192.11 103.07 191.98 102.61 191.61 102.43
  Q 187.14 100.21 182.73 97.58
  Q 172.80 91.66 165.72 82.53
  Q 162.77 78.72 161.31 74.26
  Q 159.83 69.73 160.42 65.12
  Q 161.43 57.27 167.40 52.41
  Q 171.48 49.09 176.82 48.01
  Q 181.93 46.98 187.50 48.00
  Q 195.85 49.53 202.58 52.66
  Q 218.44 60.06 231.04 72.66
  C 231.30 72.93 231.70 73.02 232.05 72.90
  Q 253.46 65.70 275.32 62.66
  Q 283.06 61.59 295.19 60.46
  Q 340.50 56.24 385.78 61.76
  Q 410.18 64.73 434.49 72.83
  C 434.97 72.99 435.50 72.87 435.86 72.51
  Q 451.25 57.16 470.46 50.25
  Z
  M 256.48 266.47
  Q 261.98 269.19 266.00 269.25
  Q 300.28 269.76 385.50 269.54
  Q 391.26 269.53 397.01 269.29
  Q 403.89 269.01 408.26 267.34
  Q 420.98 262.47 424.72 250.11
  Q 426.25 245.06 426.25 230.25
  Q 426.25 213.38 426.25 196.50
  Q 426.25 184.76 418.25 176.83
  Q 413.87 172.49 408.36 170.48
  Q 402.96 168.50 396.50 168.50
  Q 332.75 168.50 269.00 168.54
  Q 258.77 168.55 251.30 174.28
  Q 246.00 178.34 243.13 184.42
  Q 240.28 190.45 240.27 197.50
  Q 240.25 219.00 240.45 240.50
  Q 240.61 258.59 256.48 266.47
  Z"
/>
<path fill="#c7416a" d="
  M 107.71 96.75
  L 156.71 231.00
  L 171.21 271.75
  L 162.50 273.46
  L 149.75 275.96
  L 88.46 107.75
  Q 98.82 103.54 107.71 96.75
  Z"
/>
<path fill="#ea6789" d="
  M 88.46 107.75
  L 149.75 275.96
  Q 138.07 279.64 130.06 284.31
  Q 128.80 285.05 128.29 285.00
  L 65.50 112.29
  Q 77.30 111.56 88.46 107.75
  Z"
/>
<path fill="#f0f2dc" d="
  M 256.48 266.47
  Q 240.61 258.59 240.45 240.50
  Q 240.25 219.00 240.27 197.50
  Q 240.28 190.45 243.13 184.42
  Q 246.00 178.34 251.30 174.28
  Q 258.77 168.55 269.00 168.54
  Q 332.75 168.50 396.50 168.50
  Q 402.96 168.50 408.36 170.48
  Q 413.87 172.49 418.25 176.83
  Q 426.25 184.76 426.25 196.50
  Q 426.25 213.38 426.25 230.25
  Q 426.25 245.06 424.72 250.11
  Q 420.98 262.47 408.26 267.34
  Q 403.89 269.01 397.01 269.29
  Q 391.26 269.53 385.50 269.54
  Q 300.28 269.76 266.00 269.25
  Q 261.98 269.19 256.48 266.47
  Z"
/>
<path fill="#7d8eb0" d="
  M 171.21 271.75
  L 171.36 271.99
  C 171.44 272.11 171.63 272.19 171.85 272.18
  Q 208.12 271.27 235.58 292.57
  Q 243.56 298.77 250.00 306.37
  Q 270.54 330.65 272.78 363.92
  C 272.82 364.45 273.19 364.89 273.70 365.01
  Q 294.92 369.93 310.30 383.71
  Q 336.73 407.37 337.73 442.50
  C 337.75 443.35 338.46 444.02 339.31 444.01
  Q 348.35 443.89 356.85 444.09
  Q 363.31 444.24 367.45 445.73
  Q 381.90 450.94 386.10 466.02
  Q 386.94 469.03 387.13 474.09
  Q 387.29 478.17 387.54 482.25
  Q 387.63 487.23 387.36 492.20
  Q 387.23 494.66 386.41 495.59
  Q 385.23 496.97 382.75 497.00
  Q 371.00 497.16 359.25 496.79
  Q 360.95 495.04 361.00 492.75
  Q 361.17 484.81 360.93 475.37
  Q 360.74 468.12 359.51 464.27
  Q 357.71 458.63 353.94 454.31
  Q 345.02 444.11 330.75 444.04
  Q 322.00 444.00 312.52 444.00
  C 311.97 444.00 311.52 443.56 311.51 443.02
  Q 311.15 427.11 305.32 413.04
  Q 301.57 403.98 295.40 395.74
  Q 277.73 372.16 247.61 365.14
  C 247.05 365.01 246.64 364.54 246.60 363.97
  Q 244.18 329.99 222.92 305.57
  Q 202.52 282.13 172.45 274.81
  Q 170.61 274.37 167.49 274.13
  Q 164.97 273.94 162.50 273.46
  L 171.21 271.75
  Z"
/>
<path fill="#aabfd5" d="
  M 162.50 273.46
  Q 164.97 273.94 167.49 274.13
  Q 170.61 274.37 172.45 274.81
  Q 202.52 282.13 222.92 305.57
  Q 244.18 329.99 246.60 363.97
  C 246.64 364.54 247.05 365.01 247.61 365.14
  Q 277.73 372.16 295.40 395.74
  Q 301.57 403.98 305.32 413.04
  Q 311.15 427.11 311.51 443.02
  C 311.52 443.56 311.97 444.00 312.52 444.00
  Q 322.00 444.00 330.75 444.04
  Q 345.02 444.11 353.94 454.31
  Q 357.71 458.63 359.51 464.27
  Q 360.74 468.12 360.93 475.37
  Q 361.17 484.81 361.00 492.75
  Q 360.95 495.04 359.25 496.79
  Q 181.50 496.74 3.75 496.75
  Q 0.92 496.75 0.00 493.94
  Q 0.00 483.31 0.00 472.69
  Q 2.19 451.78 20.41 445.70
  Q 24.88 444.20 31.76 444.04
  Q 37.30 443.91 43.30 444.02
  C 43.82 444.03 44.24 443.62 44.26 443.10
  Q 45.03 419.95 62.42 404.44
  Q 71.06 396.72 82.43 393.37
  C 82.81 393.26 83.03 392.87 82.94 392.48
  Q 76.13 363.56 85.54 336.82
  Q 88.85 327.41 94.09 318.79
  Q 106.50 298.35 127.06 286.06
  Q 128.09 285.45 128.29 285.00
  Q 128.80 285.05 130.06 284.31
  Q 138.07 279.64 149.75 275.96
  L 162.50 273.46
  Z
  M 145.44 351.06
  Q 150.27 354.17 153.96 351.31
  Q 154.67 350.76 157.59 346.39
  Q 161.16 341.07 167.00 339.50
  Q 175.60 337.18 182.49 343.77
  Q 186.11 347.24 190.25 346.25
  Q 194.22 345.30 195.49 341.40
  Q 196.14 339.42 195.65 337.45
  Q 195.13 335.37 193.77 333.81
  Q 192.86 332.77 189.34 330.08
  Q 182.51 324.87 174.00 324.25
  Q 157.84 323.07 147.44 335.44
  Q 144.30 339.17 142.95 342.90
  Q 142.07 345.32 142.62 347.28
  Q 143.30 349.69 145.44 351.06
  Z
  M 260.60 415.67
  Q 267.55 420.85 268.25 430.00
  Q 268.70 435.88 273.01 437.78
  Q 275.45 438.85 278.03 438.01
  Q 280.87 437.08 282.18 434.57
  Q 283.45 432.15 282.92 427.66
  Q 281.70 417.23 275.44 409.51
  Q 269.40 402.05 260.07 398.67
  Q 245.70 393.46 230.78 401.51
  Q 227.37 403.35 226.52 406.65
  Q 225.69 409.81 227.44 412.64
  Q 229.86 416.55 235.46 415.55
  Q 236.37 415.39 240.81 413.31
  Q 245.85 410.96 251.25 411.73
  Q 256.29 412.45 260.60 415.67
  Z
  M 101.07 441.88
  Q 105.45 445.04 109.65 441.64
  Q 111.31 440.30 112.83 438.82
  Q 114.70 437.00 116.12 436.21
  Q 126.71 430.31 136.69 437.81
  Q 139.69 440.07 142.83 439.63
  Q 145.70 439.23 147.75 436.51
  Q 151.70 431.27 145.81 426.19
  Q 140.13 421.28 132.64 419.60
  Q 125.57 418.02 118.35 419.55
  Q 108.41 421.65 101.30 429.21
  Q 98.31 432.39 97.83 434.99
  Q 97.08 439.00 101.07 441.88
  Z"
/>
<path fill="#7d8eb0" d="
  M 145.44 351.06
  Q 143.30 349.69 142.62 347.28
  Q 142.07 345.32 142.95 342.90
  Q 144.30 339.17 147.44 335.44
  Q 157.84 323.07 174.00 324.25
  Q 182.51 324.87 189.34 330.08
  Q 192.86 332.77 193.77 333.81
  Q 195.13 335.37 195.65 337.45
  Q 196.14 339.42 195.49 341.40
  Q 194.22 345.30 190.25 346.25
  Q 186.11 347.24 182.49 343.77
  Q 175.60 337.18 167.00 339.50
  Q 161.16 341.07 157.59 346.39
  Q 154.67 350.76 153.96 351.31
  Q 150.27 354.17 145.44 351.06
  Z"
/>
<path fill="#7d8eb0" d="
  M 251.25 411.73
  Q 245.85 410.96 240.81 413.31
  Q 236.37 415.39 235.46 415.55
  Q 229.86 416.55 227.44 412.64
  Q 225.69 409.81 226.52 406.65
  Q 227.37 403.35 230.78 401.51
  Q 245.70 393.46 260.07 398.67
  Q 269.40 402.05 275.44 409.51
  Q 281.70 417.23 282.92 427.66
  Q 283.45 432.15 282.18 434.57
  Q 280.87 437.08 278.03 438.01
  Q 275.45 438.85 273.01 437.78
  Q 268.70 435.88 268.25 430.00
  Q 267.55 420.85 260.60 415.67
  Q 256.29 412.45 251.25 411.73
  Z"
/>
<path fill="#7d8eb0" d="
  M 101.07 441.88
  Q 97.08 439.00 97.83 434.99
  Q 98.31 432.39 101.30 429.21
  Q 108.41 421.65 118.35 419.55
  Q 125.57 418.02 132.64 419.60
  Q 140.13 421.28 145.81 426.19
  Q 151.70 431.27 147.75 436.51
  Q 145.70 439.23 142.83 439.63
  Q 139.69 440.07 136.69 437.81
  Q 126.71 430.31 116.12 436.21
  Q 114.70 437.00 112.83 438.82
  Q 111.31 440.30 109.65 441.64
  Q 105.45 445.04 101.07 441.88
  Z"
/>
</svg>
