<?xml version="1.0" encoding="UTF-8" standalone="no"?>
<!DOCTYPE svg PUBLIC "-//W3C//DTD SVG 1.1//EN" "http://www.w3.org/Graphics/SVG/1.1/DTD/svg11.dtd">
<svg xmlns="http://www.w3.org/2000/svg" version="1.1" viewBox="0 0 512 512">
<g stroke-width="2.1" fill="none" stroke-linecap="butt">
<path stroke="#aadef4" vector-effect="non-scaling-stroke" d="
  M 359.50 46.79
  L 358.93 47.49
  C 358.71 47.77 358.43 47.93 358.19 47.93
  Q 356.45 47.97 354.83 48.62
  Q 337.56 55.58 330.47 71.33
  Q 326.28 80.67 326.57 90.78
  Q 326.97 104.67 335.81 116.19
  Q 343.82 126.62 356.71 130.66
  C 356.93 130.73 357.18 130.95 357.41 131.26
  L 358.00 132.04"
/>
<path stroke="#70b7d5" vector-effect="non-scaling-stroke" d="
  M 152.71 64.75
  L 133.54 65.00"
/>
<path stroke="#70b7d5" vector-effect="non-scaling-stroke" d="
  M 153.04 247.50
  L 153.04 277.00"
/>
<path stroke="#5a8299" vector-effect="non-scaling-stroke" d="
  M 153.04 277.00
  Q 152.97 287.00 153.00 297.00
  Q 152.52 297.74 153.25 298.29"
/>
<path stroke="#cabc8d" vector-effect="non-scaling-stroke" d="
  M 153.25 298.29
  L 152.99 298.64
  C 152.84 298.84 152.76 299.13 152.78 299.44
  Q 153.15 305.09 153.06 310.75
  Q 152.39 354.23 153.00 397.71"
/>
<path stroke="#75beb2" vector-effect="non-scaling-stroke" d="
  M 153.00 397.71
  L 133.25 397.71"
/>
<path stroke="#cabc8d" vector-effect="non-scaling-stroke" d="
  M 133.46 322.00
  Q 134.21 319.45 133.97 316.90
  Q 133.54 312.53 133.54 312.44
  Q 133.48 305.35 133.46 298.25"
/>
<path stroke="#5a8299" vector-effect="non-scaling-stroke" d="
  M 133.46 298.25
  L 133.46 276.75"
/>
<path stroke="#70b7d5" vector-effect="non-scaling-stroke" d="
  M 133.46 276.75
  L 133.46 247.50"
/>
<path stroke="#dff0f6" vector-effect="non-scaling-stroke" d="
  M 389.04 212.50
  Q 388.23 213.71 387.69 213.94
  Q 376.55 218.70 369.75 228.71"
/>
<path stroke="#cce9f6" vector-effect="non-scaling-stroke" d="
  M 369.75 228.71
  Q 351.78 221.39 340.68 236.69
  Q 339.97 237.68 339.59 236.52
  Q 334.77 221.59 319.21 217.75"
/>
<path stroke="#c4f0ff" vector-effect="non-scaling-stroke" d="
  M 369.75 228.71
  Q 380.57 234.82 382.12 248.28
  C 382.17 248.69 382.51 249.00 382.93 249.00
  Q 387.50 249.00 391.50 248.96
  Q 406.69 248.83 412.13 262.11
  Q 412.27 262.44 413.00 265.49
  Q 413.42 267.24 414.50 268.71"
/>
<path stroke="#5d90af" vector-effect="non-scaling-stroke" d="
  M 414.50 268.71
  L 289.79 268.75"
/>
<path stroke="#73c5eb" vector-effect="non-scaling-stroke" d="
  M 289.79 268.75
  Q 289.72 261.50 289.77 254.25
  Q 289.83 246.99 282.00 247.50
  Q 274.43 247.99 232.46 247.25"
/>
<path stroke="#7097af" vector-effect="non-scaling-stroke" d="
  M 459.21 268.25
  Q 458.91 268.75 457.75 268.75
  Q 436.13 268.78 414.50 268.71"
/>
<path stroke="#1e6c9b" vector-effect="non-scaling-stroke" d="
  M 289.79 268.75
  Q 290.25 275.94 284.82 276.97
  Q 284.67 277.00 276.67 277.00
  Q 214.85 277.00 153.04 277.00"
/>
<path stroke="#1e6c9b" vector-effect="non-scaling-stroke" d="
  M 133.46 276.75
  Q 123.57 277.33 113.69 276.82
  Q 109.94 276.63 108.54 273.25"
/>
<path stroke="#847954" vector-effect="non-scaling-stroke" d="
  M 457.75 298.54
  Q 457.26 298.25 456.00 298.25
  Q 307.00 298.22 158.00 298.29"
/>
<path stroke="#797152" vector-effect="non-scaling-stroke" d="
  M 158.00 298.29
  L 153.25 298.29"
/>
<path stroke="#797152" vector-effect="non-scaling-stroke" d="
  M 133.46 298.25
  L 129.46 298.50"
/>
<path stroke="#f4b348" vector-effect="non-scaling-stroke" d="
  M 158.00 298.29
  L 157.65 298.55
  C 157.44 298.70 157.34 298.97 157.39 299.24
  Q 169.81 366.73 181.98 434.25
  Q 182.18 435.35 182.00 436.46"
/>
<path stroke="#8fa68f" vector-effect="non-scaling-stroke" d="
  M 182.00 436.46
  L 167.00 436.21"
/>
<path stroke="#94ad6c" vector-effect="non-scaling-stroke" d="
  M 167.00 436.21
  Q 166.30 411.01 166.75 404.50
  Q 167.01 400.73 164.81 398.97
  Q 163.38 397.82 159.78 397.77
  Q 156.39 397.73 153.00 397.71"
/>
<path stroke="#847954" vector-effect="non-scaling-stroke" d="
  M 434.96 422.50
  Q 434.56 422.89 433.94 422.56
  Q 379.90 393.87 325.96 365.00"
/>
<path stroke="#e59c4e" vector-effect="non-scaling-stroke" d="
  M 325.96 365.00
  L 326.20 364.41
  Q 326.50 363.69 326.50 363.50
  Q 326.48 352.72 321.00 344.47
  Q 315.73 336.53 306.47 332.42
  Q 295.37 327.50 283.83 331.31
  Q 273.89 334.58 267.63 342.47
  Q 260.82 351.05 260.75 362.50
  Q 260.69 372.50 266.24 380.59
  Q 271.45 388.19 280.09 392.23
  Q 295.22 399.30 311.75 390.00
  Q 313.10 389.24 313.54 388.25"
/>
<path stroke="#847954" vector-effect="non-scaling-stroke" d="
  M 313.54 388.25
  L 429.79 450.00"
/>
<path stroke="#9fb56e" vector-effect="non-scaling-stroke" d="
  M 249.75 481.21
  Q 250.74 469.19 241.34 464.89
  Q 238.32 463.51 232.93 463.43
  Q 215.76 463.16 208.00 463.50
  Q 206.51 463.57 206.46 462.75"
/>
<path stroke="#9aae91" vector-effect="non-scaling-stroke" d="
  M 206.46 462.75
  Q 206.88 455.32 206.80 447.88
  Q 206.74 441.71 206.73 441.62
  Q 206.15 437.33 202.18 436.55
  Q 201.97 436.50 194.30 436.51
  Q 188.15 436.51 182.00 436.46"
/>
<path stroke="#6a5a58" vector-effect="non-scaling-stroke" d="
  M 325.96 365.00
  Q 308.27 355.84 305.19 354.06
  Q 300.19 351.17 294.94 352.69
  Q 287.81 354.74 285.83 361.41
  Q 284.99 364.26 285.52 367.15
  Q 286.07 370.15 287.74 372.59
  Q 289.44 375.07 294.25 377.72
  Q 303.87 383.03 313.54 388.25"
/>
<path stroke="#39a8b4" vector-effect="non-scaling-stroke" d="
  M 167.00 436.21
  L 119.25 436.46"
/>
<path stroke="#39a8b4" vector-effect="non-scaling-stroke" d="
  M 206.46 462.75
  Q 204.06 463.63 201.57 463.49
  Q 198.02 463.28 197.91 463.29
  Q 185.58 463.52 173.25 463.40
  Q 162.12 463.30 153.25 463.40
  Q 130.50 463.65 107.75 463.21"
/>
<path stroke="#339bce" vector-effect="non-scaling-stroke" d="
  M 107.75 463.21
  Q 107.56 454.23 107.26 445.26
  Q 107.14 441.67 108.44 439.19
  Q 109.29 437.56 109.25 436.54"
/>
<path stroke="#38a2ab" vector-effect="non-scaling-stroke" d="
  M 107.75 463.21
  Q 93.86 463.84 79.96 463.25"
/>
<path stroke="#62c2a3" vector-effect="non-scaling-stroke" d="
  M 244.50 489.71
  L 240.25 491.79"
/>
<path stroke="#278871" stroke-opacity="0.996" vector-effect="non-scaling-stroke" d="
  M 240.25 491.79
  Q 234.17 492.43 228.07 492.54
  Q 227.27 492.56 227.75 492.79"
/>
<path stroke="#62c2a3" vector-effect="non-scaling-stroke" d="
  M 227.75 492.79
  Q 227.50 493.10 227.46 493.50"
/>
<path stroke="#237d69" stroke-opacity="0.980" vector-effect="non-scaling-stroke" d="
  M 221.75 492.54
  Q 212.31 491.93 202.86 492.42
  Q 202.83 492.42 202.28 492.36
  Q 201.86 492.31 201.75 492.79"
/>
<path stroke="#62c2a3" vector-effect="non-scaling-stroke" d="
  M 201.75 492.79
  L 201.46 493.25"
/>
<path stroke="#237d69" stroke-opacity="0.980" vector-effect="non-scaling-stroke" d="
  M 196.00 492.54
  Q 186.65 491.95 177.29 492.43
  Q 177.08 492.44 176.84 492.40
  Q 175.60 492.18 176.50 492.79"
/>
<path stroke="#62c2a3" vector-effect="non-scaling-stroke" d="
  M 176.50 492.79
  L 175.71 493.25"
/>
<path stroke="#237d69" stroke-opacity="0.980" vector-effect="non-scaling-stroke" d="
  M 170.00 492.54
  Q 144.50 491.80 119.00 492.54"
/>
<path stroke="#62c2a3" vector-effect="non-scaling-stroke" d="
  M 114.04 493.25
  L 113.96 492.75"
/>
<path stroke="#278871" stroke-opacity="0.996" vector-effect="non-scaling-stroke" d="
  M 113.96 492.75
  Q 114.08 491.94 113.20 492.18
  Q 112.71 492.31 112.40 492.31
  Q 102.95 492.13 93.50 492.54"
/>
<path stroke="#62c2a3" vector-effect="non-scaling-stroke" d="
  M 88.75 492.54
  Q 88.37 492.45 88.00 492.54"
/>
<path stroke="#278871" stroke-opacity="0.996" vector-effect="non-scaling-stroke" d="
  M 88.00 492.54
  L 78.75 491.96"
/>
<path stroke="#3da88b" vector-effect="non-scaling-stroke" d="
  M 78.75 491.96
  Q 71.55 487.71 70.25 480.50
  Q 68.63 471.54 76.55 466.09
  Q 77.70 465.30 78.70 464.31
  C 78.88 464.13 79.15 464.04 79.44 464.05
  Q 80.28 464.10 79.71 463.50"
/>
<path stroke="#26806b" stroke-opacity="0.996" vector-effect="non-scaling-stroke" d="
  M 78.75 491.96
  L 67.00 492.54"
/>
<path stroke="#26806b" stroke-opacity="0.996" vector-effect="non-scaling-stroke" d="
  M 63.25 492.54
  L 47.25 491.79
  Q 46.87 491.77 46.34 491.46
  Q 45.60 491.03 44.75 491.21"
/>
<path stroke="#61bb9d" vector-effect="non-scaling-stroke" d="
  M 44.75 491.21
  L 44.00 490.96"
/>
<path stroke="#4b9b83" stroke-opacity="0.996" vector-effect="non-scaling-stroke" d="
  M 227.75 492.79
  Q 234.09 493.16 240.25 491.79"
/>
<path stroke="#4b9b83" stroke-opacity="0.996" vector-effect="non-scaling-stroke" d="
  M 44.75 491.21
  Q 48.27 492.67 51.56 492.69
  Q 58.63 492.72 62.54 493.00"
/>
<path stroke="#4b9b83" stroke-opacity="0.996" vector-effect="non-scaling-stroke" d="
  M 88.00 492.54
  L 67.54 493.00"
/>
<path stroke="#47907b" stroke-opacity="0.980" vector-effect="non-scaling-stroke" d="
  M 170.00 492.96
  Q 144.75 492.16 119.50 492.96"
/>
<path stroke="#4b9b83" stroke-opacity="0.996" vector-effect="non-scaling-stroke" d="
  M 113.96 492.75
  L 93.50 492.96"
/>
<path stroke="#47907b" stroke-opacity="0.980" vector-effect="non-scaling-stroke" d="
  M 196.00 492.96
  L 176.50 492.79"
/>
<path stroke="#47907b" stroke-opacity="0.980" vector-effect="non-scaling-stroke" d="
  M 221.75 492.96
  L 201.75 492.79"
/>
</g>
<path fill="#34a1d7" d="
  M 138.31 0.00
  Q 143.44 0.00 148.56 0.00
  Q 153.14 1.64 152.87 6.41
  Q 152.75 8.50 152.75 8.60
  Q 152.78 36.68 152.71 64.75
  L 133.54 65.00
  Q 133.47 35.63 133.50 6.25
  Q 133.51 1.02 138.31 0.00
  Z"
/>
<path fill="#a3d4e8" d="
  M 359.50 46.79
  L 358.93 47.49
  C 358.71 47.77 358.43 47.93 358.19 47.93
  Q 356.45 47.97 354.83 48.62
  Q 337.56 55.58 330.47 71.33
  Q 326.28 80.67 326.57 90.78
  Q 326.97 104.67 335.81 116.19
  Q 343.82 126.62 356.71 130.66
  C 356.93 130.73 357.18 130.95 357.41 131.26
  L 358.00 132.04
  Q 345.38 133.77 334.75 128.50
  Q 319.48 120.92 313.49 105.86
  Q 309.82 96.63 310.42 86.27
  Q 311.58 66.50 327.94 54.19
  Q 341.32 44.12 359.50 46.79
  Z"
/>
<path fill="#b1e8ff" d="
  M 359.50 46.79
  Q 375.76 49.59 385.44 61.81
  Q 397.97 77.64 394.56 96.81
  Q 391.70 112.90 378.81 123.31
  Q 369.52 130.82 358.00 132.04
  L 357.41 131.26
  C 357.18 130.95 356.93 130.73 356.71 130.66
  Q 343.82 126.62 335.81 116.19
  Q 326.97 104.67 326.57 90.78
  Q 326.28 80.67 330.47 71.33
  Q 337.56 55.58 354.83 48.62
  Q 356.45 47.97 358.19 47.93
  C 358.43 47.93 358.71 47.77 358.93 47.49
  L 359.50 46.79
  Z"
/>
<path fill="#abccd3" d="
  M 152.71 64.75
  Q 152.83 212.49 152.75 245.75
  Q 152.75 247.00 153.04 247.50
  L 153.04 277.00
  Q 152.97 287.00 153.00 297.00
  Q 152.52 297.74 153.25 298.29
  L 152.99 298.64
  C 152.84 298.84 152.76 299.13 152.78 299.44
  Q 153.15 305.09 153.06 310.75
  Q 152.39 354.23 153.00 397.71
  L 133.25 397.71
  L 133.46 322.00
  Q 134.21 319.45 133.97 316.90
  Q 133.54 312.53 133.54 312.44
  Q 133.48 305.35 133.46 298.25
  L 133.46 276.75
  L 133.46 247.50
  L 133.54 65.00
  L 152.71 64.75
  Z"
/>
<ellipse fill="#e6e9ed" cx="0.00" cy="0.00" transform="translate(427.94,158.43) rotate(88.7)" rx="22.78" ry="22.41"/>
<path fill="#e6e9ed" d="
  M 389.04 212.50
  Q 388.23 213.71 387.69 213.94
  Q 376.55 218.70 369.75 228.71
  Q 351.78 221.39 340.68 236.69
  Q 339.97 237.68 339.59 236.52
  Q 334.77 221.59 319.21 217.75
  Q 319.65 209.71 322.81 203.56
  Q 332.62 184.48 353.75 183.50
  Q 361.80 183.13 370.13 187.42
  Q 385.58 195.38 389.04 212.50
  Z"
/>
<path fill="#b1e8ff" d="
  M 319.21 217.75
  Q 334.77 221.59 339.59 236.52
  Q 339.97 237.68 340.68 236.69
  Q 351.78 221.39 369.75 228.71
  Q 380.57 234.82 382.12 248.28
  C 382.17 248.69 382.51 249.00 382.93 249.00
  Q 387.50 249.00 391.50 248.96
  Q 406.69 248.83 412.13 262.11
  Q 412.27 262.44 413.00 265.49
  Q 413.42 267.24 414.50 268.71
  L 289.79 268.75
  Q 289.72 261.50 289.77 254.25
  Q 289.83 246.99 282.00 247.50
  Q 274.43 247.99 232.46 247.25
  Q 233.87 229.54 250.09 222.98
  Q 254.13 221.34 258.82 221.24
  C 259.40 221.23 259.82 220.70 259.70 220.13
  Q 257.74 210.86 262.12 202.60
  Q 268.25 191.04 280.50 188.75
  Q 288.22 187.30 295.22 190.24
  Q 301.94 193.05 306.35 199.02
  Q 311.92 206.54 311.76 216.75
  C 311.75 217.02 311.97 217.25 312.25 217.27
  L 319.21 217.75
  Z"
/>
<path fill="#d7f7ff" d="
  M 459.21 268.25
  Q 458.91 268.75 457.75 268.75
  Q 436.13 268.78 414.50 268.71
  Q 413.42 267.24 413.00 265.49
  Q 412.27 262.44 412.13 262.11
  Q 406.69 248.83 391.50 248.96
  Q 387.50 249.00 382.93 249.00
  C 382.51 249.00 382.17 248.69 382.12 248.28
  Q 380.57 234.82 369.75 228.71
  Q 376.55 218.70 387.69 213.94
  Q 388.23 213.71 389.04 212.50
  L 389.28 213.09
  C 389.39 213.35 389.66 213.50 389.92 213.43
  Q 399.48 210.81 407.44 212.81
  Q 427.69 217.92 434.04 238.59
  C 434.13 238.88 434.39 239.08 434.69 239.12
  Q 443.89 240.23 450.19 245.81
  Q 459.93 254.45 459.21 268.25
  Z"
/>
<path fill="#34a1d7" d="
  M 232.46 247.25
  Q 274.43 247.99 282.00 247.50
  Q 289.83 246.99 289.77 254.25
  Q 289.72 261.50 289.79 268.75
  Q 290.25 275.94 284.82 276.97
  Q 284.67 277.00 276.67 277.00
  Q 214.85 277.00 153.04 277.00
  L 153.04 247.50
  L 232.46 247.25
  Z"
/>
<path fill="#34a1d7" d="
  M 133.46 247.50
  L 133.46 276.75
  Q 123.57 277.33 113.69 276.82
  Q 109.94 276.63 108.54 273.25
  Q 108.47 263.25 108.47 253.25
  Q 108.48 250.06 110.60 248.51
  Q 111.98 247.50 115.14 247.50
  Q 124.30 247.50 133.46 247.50
  Z"
/>
<path fill="#08375e" d="
  M 459.21 268.25
  Q 459.21 268.48 459.31 268.65
  C 459.40 268.83 459.66 268.93 459.96 268.92
  Q 466.47 268.62 473.00 268.79
  Q 476.72 268.88 478.06 271.52
  Q 478.75 272.87 478.75 276.58
  Q 478.75 283.87 478.75 291.17
  Q 478.75 294.89 477.39 296.46
  Q 475.32 298.88 471.25 298.25
  Q 468.07 297.76 457.75 298.54
  Q 457.26 298.25 456.00 298.25
  Q 307.00 298.22 158.00 298.29
  L 153.25 298.29
  Q 152.52 297.74 153.00 297.00
  Q 152.97 287.00 153.04 277.00
  Q 214.85 277.00 276.67 277.00
  Q 284.67 277.00 284.82 276.97
  Q 290.25 275.94 289.79 268.75
  L 414.50 268.71
  Q 436.13 268.78 457.75 268.75
  Q 458.91 268.75 459.21 268.25
  Z"
/>
<path fill="#08375e" d="
  M 108.54 273.25
  Q 109.94 276.63 113.69 276.82
  Q 123.57 277.33 133.46 276.75
  L 133.46 298.25
  L 129.46 298.50
  Q 118.82 297.81 116.00 298.25
  Q 111.80 298.91 109.78 296.36
  Q 108.50 294.74 108.49 290.83
  Q 108.48 282.04 108.54 273.25
  Z"
/>
<path fill="#e9ab46" d="
  M 133.46 298.25
  Q 133.48 305.35 133.54 312.44
  Q 133.54 312.53 133.97 316.90
  Q 134.21 319.45 133.46 322.00
  L 129.46 298.50
  L 133.46 298.25
  Z"
/>
<path fill="#e9ab46" d="
  M 153.25 298.29
  L 158.00 298.29
  L 157.65 298.55
  C 157.44 298.70 157.34 298.97 157.39 299.24
  Q 169.81 366.73 181.98 434.25
  Q 182.18 435.35 182.00 436.46
  L 167.00 436.21
  Q 166.30 411.01 166.75 404.50
  Q 167.01 400.73 164.81 398.97
  Q 163.38 397.82 159.78 397.77
  Q 156.39 397.73 153.00 397.71
  Q 152.39 354.23 153.06 310.75
  Q 153.15 305.09 152.78 299.44
  C 152.76 299.13 152.84 298.84 152.99 298.64
  L 153.25 298.29
  Z"
/>
<path fill="#ffbb4a" d="
  M 158.00 298.29
  Q 307.00 298.22 456.00 298.25
  Q 457.26 298.25 457.75 298.54
  L 434.96 422.50
  Q 434.56 422.89 433.94 422.56
  Q 379.90 393.87 325.96 365.00
  L 326.20 364.41
  Q 326.50 363.69 326.50 363.50
  Q 326.48 352.72 321.00 344.47
  Q 315.73 336.53 306.47 332.42
  Q 295.37 327.50 283.83 331.31
  Q 273.89 334.58 267.63 342.47
  Q 260.82 351.05 260.75 362.50
  Q 260.69 372.50 266.24 380.59
  Q 271.45 388.19 280.09 392.23
  Q 295.22 399.30 311.75 390.00
  Q 313.10 389.24 313.54 388.25
  L 429.79 450.00
  Q 428.37 457.63 426.97 465.27
  Q 425.49 473.35 423.45 476.10
  Q 419.67 481.17 412.00 481.18
  Q 330.88 481.28 249.75 481.21
  Q 250.74 469.19 241.34 464.89
  Q 238.32 463.51 232.93 463.43
  Q 215.76 463.16 208.00 463.50
  Q 206.51 463.57 206.46 462.75
  Q 206.88 455.32 206.80 447.88
  Q 206.74 441.71 206.73 441.62
  Q 206.15 437.33 202.18 436.55
  Q 201.97 436.50 194.30 436.51
  Q 188.15 436.51 182.00 436.46
  Q 182.18 435.35 181.98 434.25
  Q 169.81 366.73 157.39 299.24
  C 157.34 298.97 157.44 298.70 157.65 298.55
  L 158.00 298.29
  Z"
/>
<path fill="#cb7c52" d="
  M 325.96 365.00
  Q 308.27 355.84 305.19 354.06
  Q 300.19 351.17 294.94 352.69
  Q 287.81 354.74 285.83 361.41
  Q 284.99 364.26 285.52 367.15
  Q 286.07 370.15 287.74 372.59
  Q 289.44 375.07 294.25 377.72
  Q 303.87 383.03 313.54 388.25
  Q 313.10 389.24 311.75 390.00
  Q 295.22 399.30 280.09 392.23
  Q 271.45 388.19 266.24 380.59
  Q 260.69 372.50 260.75 362.50
  Q 260.82 351.05 267.63 342.47
  Q 273.89 334.58 283.83 331.31
  Q 295.37 327.50 306.47 332.42
  Q 315.73 336.53 321.00 344.47
  Q 326.48 352.72 326.50 363.50
  Q 326.50 363.69 326.20 364.41
  L 325.96 365.00
  Z"
/>
<path fill="#08375e" d="
  M 325.96 365.00
  Q 379.90 393.87 433.94 422.56
  Q 434.56 422.89 434.96 422.50
  Q 434.86 423.26 435.69 423.56
  Q 436.67 423.92 439.26 425.45
  Q 441.38 426.70 442.55 427.79
  Q 447.02 431.96 446.86 437.69
  Q 446.71 443.06 442.95 446.78
  Q 438.00 451.68 429.79 450.00
  L 313.54 388.25
  Q 303.87 383.03 294.25 377.72
  Q 289.44 375.07 287.74 372.59
  Q 286.07 370.15 285.52 367.15
  Q 284.99 364.26 285.83 361.41
  Q 287.81 354.74 294.94 352.69
  Q 300.19 351.17 305.19 354.06
  Q 308.27 355.84 325.96 365.00
  Z"
/>
<path fill="#3eaf91" d="
  M 133.25 397.71
  L 153.00 397.71
  Q 156.39 397.73 159.78 397.77
  Q 163.38 397.82 164.81 398.97
  Q 167.01 400.73 166.75 404.50
  Q 166.30 411.01 167.00 436.21
  L 119.25 436.46
  Q 119.90 412.84 119.50 404.50
  Q 119.30 400.22 122.07 398.61
  Q 123.52 397.76 127.59 397.76
  Q 130.42 397.76 133.25 397.71
  Z"
/>
<path fill="#34a1d7" d="
  M 167.00 436.21
  L 182.00 436.46
  Q 188.15 436.51 194.30 436.51
  Q 201.97 436.50 202.18 436.55
  Q 206.15 437.33 206.73 441.62
  Q 206.74 441.71 206.80 447.88
  Q 206.88 455.32 206.46 462.75
  Q 204.06 463.63 201.57 463.49
  Q 198.02 463.28 197.91 463.29
  Q 185.58 463.52 173.25 463.40
  Q 162.12 463.30 153.25 463.40
  Q 130.50 463.65 107.75 463.21
  Q 107.56 454.23 107.26 445.26
  Q 107.14 441.67 108.44 439.19
  Q 109.29 437.56 109.25 436.54
  L 119.25 436.46
  L 167.00 436.21
  Z"
/>
<path fill="#3294c4" d="
  M 109.25 436.54
  Q 109.29 437.56 108.44 439.19
  Q 107.14 441.67 107.26 445.26
  Q 107.56 454.23 107.75 463.21
  Q 93.86 463.84 79.96 463.25
  Q 79.65 454.63 79.72 446.00
  Q 79.76 440.99 79.87 440.51
  Q 80.41 438.22 82.57 437.15
  Q 83.87 436.50 86.54 436.50
  Q 97.90 436.47 109.25 436.54
  Z"
/>
<path fill="#3eaf91" d="
  M 206.46 462.75
  Q 206.51 463.57 208.00 463.50
  Q 215.76 463.16 232.93 463.43
  Q 238.32 463.51 241.34 464.89
  Q 250.74 469.19 249.75 481.21
  Q 247.87 485.91 244.50 489.71
  L 240.25 491.79
  Q 234.17 492.43 228.07 492.54
  Q 227.27 492.56 227.75 492.79
  Q 227.50 493.10 227.46 493.50
  Q 224.95 491.77 221.75 492.54
  Q 212.31 491.93 202.86 492.42
  Q 202.83 492.42 202.28 492.36
  Q 201.86 492.31 201.75 492.79
  L 201.46 493.25
  Q 198.94 491.92 196.00 492.54
  Q 186.65 491.95 177.29 492.43
  Q 177.08 492.44 176.84 492.40
  Q 175.60 492.18 176.50 492.79
  L 175.71 493.25
  Q 173.03 491.94 170.00 492.54
  Q 144.50 491.80 119.00 492.54
  Q 116.31 491.91 114.04 493.25
  L 113.96 492.75
  Q 114.08 491.94 113.20 492.18
  Q 112.71 492.31 112.40 492.31
  Q 102.95 492.13 93.50 492.54
  L 88.75 492.54
  Q 88.37 492.45 88.00 492.54
  L 78.75 491.96
  Q 71.55 487.71 70.25 480.50
  Q 68.63 471.54 76.55 466.09
  Q 77.70 465.30 78.70 464.31
  C 78.88 464.13 79.15 464.04 79.44 464.05
  Q 80.28 464.10 79.71 463.50
  Q 79.75 463.29 79.96 463.25
  Q 93.86 463.84 107.75 463.21
  Q 130.50 463.65 153.25 463.40
  Q 162.12 463.30 173.25 463.40
  Q 185.58 463.52 197.91 463.29
  Q 198.02 463.28 201.57 463.49
  Q 204.06 463.63 206.46 462.75
  Z"
/>
<path fill="#3ca085" d="
  M 79.71 463.50
  Q 80.28 464.10 79.44 464.05
  C 79.15 464.04 78.88 464.13 78.70 464.31
  Q 77.70 465.30 76.55 466.09
  Q 68.63 471.54 70.25 480.50
  Q 71.55 487.71 78.75 491.96
  L 67.00 492.54
  L 63.25 492.54
  L 47.25 491.79
  Q 46.87 491.77 46.34 491.46
  Q 45.60 491.03 44.75 491.21
  L 44.00 490.96
  Q 38.15 487.10 36.93 481.00
  Q 35.73 474.98 38.95 469.95
  Q 41.30 466.26 45.52 464.58
  Q 48.19 463.52 53.63 463.36
  Q 66.67 462.98 79.71 463.50
  Z"
/>
<path fill="#86d5b5" d="
  M 244.50 489.71
  Q 249.77 494.06 254.09 499.31
  Q 256.10 501.74 256.28 503.79
  Q 256.44 505.63 255.75 507.36
  Q 255.12 508.96 253.63 510.13
  Q 250.23 512.79 246.46 511.35
  Q 244.47 510.59 241.18 507.31
  Q 234.28 500.44 227.46 493.50
  Q 227.50 493.10 227.75 492.79
  Q 234.09 493.16 240.25 491.79
  L 244.50 489.71
  Z"
/>
<path fill="#86d5b5" d="
  M 44.00 490.96
  L 44.75 491.21
  Q 48.27 492.67 51.56 492.69
  Q 58.63 492.72 62.54 493.00
  Q 55.15 501.22 46.97 508.65
  Q 43.99 511.35 41.84 511.78
  Q 38.37 512.47 35.56 509.69
  Q 31.37 505.53 34.69 500.19
  Q 36.43 497.37 44.00 490.96
  Z"
/>
<path fill="#0f6051" fill-opacity="0.992" d="
  M 63.25 492.54
  L 62.54 493.00
  Q 58.63 492.72 51.56 492.69
  Q 48.27 492.67 44.75 491.21
  Q 45.60 491.03 46.34 491.46
  Q 46.87 491.77 47.25 491.79
  L 63.25 492.54
  Z"
/>
<path fill="#0f6051" fill-opacity="0.992" d="
  M 240.25 491.79
  Q 234.09 493.16 227.75 492.79
  Q 227.27 492.56 228.07 492.54
  Q 234.17 492.43 240.25 491.79
  Z"
/>
<path fill="#0f6051" fill-opacity="0.992" d="
  M 78.75 491.96
  L 88.00 492.54
  L 67.54 493.00
  L 67.00 492.54
  L 78.75 491.96
  Z"
/>
<path fill="#06483f" fill-opacity="0.961" d="
  M 170.00 492.54
  L 170.00 492.96
  Q 144.75 492.16 119.50 492.96
  L 119.00 492.54
  Q 144.50 491.80 170.00 492.54
  Z"
/>
<path fill="#0f6051" fill-opacity="0.992" d="
  M 113.96 492.75
  L 93.50 492.96
  L 93.50 492.54
  Q 102.95 492.13 112.40 492.31
  Q 112.71 492.31 113.20 492.18
  Q 114.08 491.94 113.96 492.75
  Z"
/>
<path fill="#06483f" fill-opacity="0.961" d="
  M 196.00 492.54
  L 196.00 492.96
  L 176.50 492.79
  Q 175.60 492.18 176.84 492.40
  Q 177.08 492.44 177.29 492.43
  Q 186.65 491.95 196.00 492.54
  Z"
/>
<path fill="#06483f" fill-opacity="0.961" d="
  M 221.75 492.54
  L 221.75 492.96
  L 201.75 492.79
  Q 201.86 492.31 202.28 492.36
  Q 202.83 492.42 202.86 492.42
  Q 212.31 491.93 221.75 492.54
  Z"
/>
<path fill="#86d5b5" d="
  M 88.00 492.54
  Q 88.37 492.45 88.75 492.54
  Q 75.95 506.42 72.00 509.50
  Q 64.95 515.01 59.94 507.81
  Q 58.71 506.05 59.21 503.40
  Q 59.55 501.56 61.12 499.59
  Q 63.99 495.99 67.54 493.00
  L 88.00 492.54
  Z"
/>
<path fill="#86d5b5" d="
  M 170.00 492.96
  Q 174.27 495.95 177.35 500.16
  Q 178.88 502.27 178.82 504.69
  Q 178.76 506.91 177.29 508.90
  Q 174.96 512.06 171.02 511.75
  Q 168.71 511.57 166.19 509.41
  Q 159.41 503.62 153.74 497.16
  Q 152.22 495.43 152.25 497.73
  Q 152.28 500.22 152.24 502.70
  Q 152.20 505.89 151.45 507.55
  Q 150.04 510.70 146.77 511.50
  Q 143.29 512.36 140.50 510.42
  Q 137.53 508.37 137.34 504.01
  Q 137.17 500.16 137.38 497.16
  Q 137.47 495.81 136.54 496.79
  Q 130.62 503.03 124.88 508.27
  Q 121.45 511.41 118.77 511.80
  Q 114.17 512.47 111.56 507.69
  Q 109.86 504.56 111.81 500.81
  Q 113.35 497.87 119.50 492.96
  Q 144.75 492.16 170.00 492.96
  Z"
/>
<path fill="#86d5b5" d="
  M 113.96 492.75
  L 114.04 493.25
  Q 107.06 500.44 99.88 507.44
  Q 96.27 510.97 93.99 511.66
  Q 89.59 513.00 86.31 508.69
  Q 83.36 504.79 86.44 500.19
  Q 87.83 498.10 93.50 492.96
  L 113.96 492.75
  Z"
/>
<path fill="#86d5b5" d="
  M 176.50 492.79
  L 196.00 492.96
  Q 202.17 497.61 204.19 501.81
  Q 206.15 505.89 202.31 509.55
  Q 199.15 512.54 195.62 511.62
  Q 193.62 511.09 190.41 508.07
  Q 182.79 500.93 175.71 493.25
  L 176.50 492.79
  Z"
/>
<path fill="#86d5b5" d="
  M 201.75 492.79
  L 221.75 492.96
  Q 223.66 494.48 225.39 496.19
  Q 228.38 499.15 228.77 499.65
  Q 230.55 501.94 230.41 504.86
  Q 230.27 507.55 228.41 509.57
  Q 225.71 512.52 221.80 511.60
  Q 219.44 511.05 216.48 508.22
  Q 208.81 500.89 201.46 493.25
  L 201.75 492.79
  Z"
/>
</svg>
