<?xml version="1.0" encoding="UTF-8" standalone="no"?>
<!DOCTYPE svg PUBLIC "-//W3C//DTD SVG 1.1//EN" "http://www.w3.org/Graphics/SVG/1.1/DTD/svg11.dtd">
<svg xmlns="http://www.w3.org/2000/svg" version="1.1" viewBox="0 0 512 512">
<g stroke-width="2.1" fill="none" stroke-linecap="butt">
<path stroke="#9da5ad" vector-effect="non-scaling-stroke" d="
  M 93.71 94.50
  L 63.21 94.50"
/>
<path stroke="#9da5ad" vector-effect="non-scaling-stroke" d="
  M 215.75 94.71
  L 185.29 94.50"
/>
<path stroke="#8793a2" vector-effect="non-scaling-stroke" d="
  M 410.75 8.21
  L 410.46 9.05
  C 410.36 9.35 410.43 9.65 410.63 9.82
  Q 438.81 33.55 444.89 70.10
  Q 444.95 70.46 445.30 71.35
  Q 445.82 72.73 444.04 72.50"
/>
<path stroke="#6f7b88" vector-effect="non-scaling-stroke" d="
  M 118.71 380.00
  Q 118.91 379.51 120.00 379.50
  Q 140.13 379.28 160.25 379.79"
/>
<path stroke="#7e8b96" vector-effect="non-scaling-stroke" d="
  M 454.56 105.82
  Q 454.31 306.00 454.69 506.18
  Q 454.69 506.69 454.69 506.18
  Q 454.94 306.00 454.56 105.82
  Q 454.56 105.31 454.56 105.82"
/>
<path stroke="#57636b" vector-effect="non-scaling-stroke" d="
  M 223.50 94.79
  Q 224.76 101.36 220.39 106.38
  Q 215.95 111.50 209.50 111.50
  Q 117.00 111.50 24.51 111.50
  Q 24.46 111.50 20.49 111.69
  Q 17.75 111.82 15.04 111.25"
/>
<path stroke="#475256" vector-effect="non-scaling-stroke" d="
  M 171.79 308.75
  L 171.74 321.62
  C 171.74 322.57 170.96 323.34 170.02 323.31
  Q 163.88 323.15 158.99 323.33
  Q 154.86 323.49 152.85 324.95
  Q 149.73 327.21 150.06 331.44
  Q 150.34 334.92 153.14 336.78
  Q 154.96 337.99 158.64 338.14
  Q 164.68 338.38 171.13 338.24
  C 171.47 338.23 171.75 338.50 171.75 338.84
  L 171.75 346.69
  Q 171.75 348.75 169.69 348.75
  Q 166.13 348.75 163.07 348.75
  Q 156.85 348.75 156.45 348.82
  Q 152.67 349.45 150.95 352.87
  Q 149.73 355.29 150.32 357.89
  Q 150.99 360.86 153.46 362.33
  Q 155.40 363.49 160.27 363.66
  Q 165.52 363.85 171.15 363.74
  C 171.48 363.73 171.75 364.00 171.75 364.33
  L 171.79 371.75"
/>
<path stroke="#57636b" vector-effect="non-scaling-stroke" d="
  M 107.25 348.96
  Q 113.57 348.68 119.90 348.72
  Q 123.57 348.74 125.40 349.82
  Q 128.17 351.44 128.88 354.72
  C 129.02 355.37 129.78 355.65 130.32 355.27
  Q 137.01 350.50 139.84 343.37
  Q 141.49 339.22 141.66 330.90
  Q 141.88 320.17 141.73 308.61
  C 141.72 308.13 141.34 307.75 140.86 307.74
  L 109.00 307.51
  Q 108.93 307.51 108.07 307.27
  Q 107.55 307.12 107.21 307.75"
/>
<path stroke="#57636b" vector-effect="non-scaling-stroke" d="
  M 70.54 287.75
  Q 102.52 287.31 134.50 287.63
  Q 147.20 287.76 150.25 287.25
  Q 162.38 285.23 166.40 273.72
  Q 168.50 267.70 169.95 261.71
  C 170.07 261.22 169.70 260.75 169.20 260.75
  Q 116.50 260.75 64.50 260.75
  Q 63.53 260.75 63.21 261.00"
/>
<path stroke="#57636b" vector-effect="non-scaling-stroke" d="
  M 33.29 240.50
  Q 76.86 241.01 120.43 240.65
  Q 126.79 240.60 140.44 240.77
  Q 153.83 240.93 167.21 240.48
  Q 174.34 240.24 179.11 238.73
  Q 200.47 231.97 206.42 210.36
  Q 207.74 205.58 207.82 197.99
  Q 208.17 163.28 207.99 127.55
  C 207.99 127.11 207.63 126.75 207.19 126.75
  L 33.00 126.75
  Q 32.75 126.75 32.06 126.52
  Q 31.39 126.30 31.00 127.04"
/>
<path stroke="#ab9255" vector-effect="non-scaling-stroke" d="
  M 147.94 177.71
  Q 146.82 176.26 147.63 174.32
  Q 148.13 173.13 148.16 173.02
  Q 152.17 161.23 156.50 149.55
  Q 157.44 147.00 157.45 145.73
  Q 157.48 142.78 154.68 142.29
  Q 154.58 142.27 149.80 142.21
  Q 141.34 142.12 133.31 142.48
  Q 131.45 142.56 130.82 144.30
  Q 121.91 168.70 113.36 193.22
  Q 112.91 194.50 113.05 195.34
  Q 113.26 196.58 114.17 197.31
  Q 115.01 197.98 117.00 198.07
  Q 124.56 198.41 132.75 198.23
  C 133.58 198.22 134.17 199.04 133.88 199.82
  Q 129.10 212.82 124.44 226.23
  Q 122.48 231.89 127.19 234.31
  Q 130.14 235.83 132.74 234.32
  Q 134.19 233.47 136.07 230.54
  Q 150.45 208.13 164.68 185.63
  Q 165.70 184.02 165.89 183.10
  Q 166.26 181.30 165.02 180.21
  Q 164.01 179.32 161.60 179.28
  Q 156.41 179.21 151.12 179.25
  Q 149.15 179.27 147.94 177.71"
/>
</g>
<path fill="#dadee4" d="
  M 70.56 0.00
  Q 78.56 0.00 86.56 0.00
  Q 93.74 1.99 93.75 10.00
  Q 93.78 52.25 93.71 94.50
  L 63.21 94.50
  Q 62.68 52.28 63.21 10.07
  Q 63.26 5.73 64.60 3.73
  Q 66.57 0.79 70.56 0.00
  Z"
/>
<path fill="#dadee4" d="
  M 192.56 0.00
  Q 200.56 0.00 208.56 0.00
  Q 214.53 1.60 215.63 6.63
  Q 215.75 7.20 215.75 15.37
  Q 215.75 55.04 215.75 94.71
  L 185.29 94.50
  Q 185.22 54.79 185.25 15.08
  Q 185.25 7.43 185.50 6.44
  Q 186.71 1.53 192.56 0.00
  Z"
/>
<path fill="#8f9bae" d="
  M 410.75 8.21
  L 410.46 9.05
  C 410.36 9.35 410.43 9.65 410.63 9.82
  Q 438.81 33.55 444.89 70.10
  Q 444.95 70.46 445.30 71.35
  Q 445.82 72.73 444.04 72.50
  Q 433.67 58.35 417.90 52.62
  Q 408.55 49.23 398.29 49.23
  Q 377.82 49.25 362.06 63.06
  Q 348.65 74.82 344.71 91.91
  Q 343.25 98.22 343.25 111.71
  Q 343.25 241.98 343.25 372.25
  Q 343.25 388.03 342.99 396.00
  Q 342.24 418.79 332.53 439.36
  Q 314.09 478.46 274.94 495.44
  Q 258.76 502.45 240.73 504.04
  Q 230.97 504.90 220.76 503.94
  Q 178.28 499.94 149.06 468.94
  Q 122.60 440.86 119.12 401.66
  Q 118.76 397.65 118.76 390.84
  Q 118.76 385.42 118.71 380.00
  Q 118.91 379.51 120.00 379.50
  Q 140.13 379.28 160.25 379.79
  Q 160.08 390.36 160.50 397.00
  Q 161.36 410.63 167.28 422.84
  Q 171.55 431.62 178.43 439.36
  Q 197.38 460.71 226.75 462.75
  Q 244.54 463.99 260.85 456.19
  Q 269.81 451.91 277.46 445.19
  Q 296.09 428.84 300.37 404.18
  Q 301.50 397.70 301.50 384.26
  Q 301.50 251.87 301.50 119.49
  Q 301.50 101.85 301.64 99.51
  Q 302.93 78.52 312.54 59.96
  Q 317.09 51.19 323.53 43.30
  Q 346.41 15.28 382.81 8.81
  Q 395.57 6.55 410.75 8.21
  Z"
/>
<path fill="#7e8b96" d="
  M 410.75 8.21
  Q 443.83 12.42 466.94 35.31
  Q 493.47 61.61 495.81 98.51
  Q 496.00 101.57 496.00 118.50
  Q 496.00 310.22 496.00 501.94
  Q 496.00 507.40 495.97 507.55
  Q 495.34 510.76 491.69 512.00
  Q 474.94 512.00 458.19 512.00
  Q 453.87 509.82 454.13 505.10
  Q 454.25 502.98 454.25 502.89
  Q 454.25 313.19 454.25 123.50
  Q 454.25 114.40 454.16 107.67
  Q 454.03 97.72 452.63 91.95
  Q 450.10 81.57 444.04 72.50
  Q 445.82 72.73 445.30 71.35
  Q 444.95 70.46 444.89 70.10
  Q 438.81 33.55 410.63 9.82
  C 410.43 9.65 410.36 9.35 410.46 9.05
  L 410.75 8.21
  Z
  M 454.56 105.82
  Q 454.31 306.00 454.69 506.18
  Q 454.69 506.69 454.69 506.18
  Q 454.94 306.00 454.56 105.82
  Q 454.56 105.31 454.56 105.82
  Z"
/>
<path fill="#5f6c75" d="
  M 63.21 94.50
  L 93.71 94.50
  Q 94.18 94.75 95.50 94.75
  Q 139.50 94.75 183.50 94.75
  Q 184.82 94.75 185.29 94.50
  L 215.75 94.71
  L 223.50 94.79
  Q 224.76 101.36 220.39 106.38
  Q 215.95 111.50 209.50 111.50
  Q 117.00 111.50 24.51 111.50
  Q 24.46 111.50 20.49 111.69
  Q 17.75 111.82 15.04 111.25
  Q 14.93 99.83 24.08 96.00
  Q 27.08 94.75 32.62 94.79
  Q 47.92 94.88 63.21 94.50
  Z"
/>
<path fill="#4e5a61" d="
  M 171.79 308.75
  L 171.74 321.62
  C 171.74 322.57 170.96 323.34 170.02 323.31
  Q 163.88 323.15 158.99 323.33
  Q 154.86 323.49 152.85 324.95
  Q 149.73 327.21 150.06 331.44
  Q 150.34 334.92 153.14 336.78
  Q 154.96 337.99 158.64 338.14
  Q 164.68 338.38 171.13 338.24
  C 171.47 338.23 171.75 338.50 171.75 338.84
  L 171.75 346.69
  Q 171.75 348.75 169.69 348.75
  Q 166.13 348.75 163.07 348.75
  Q 156.85 348.75 156.45 348.82
  Q 152.67 349.45 150.95 352.87
  Q 149.73 355.29 150.32 357.89
  Q 150.99 360.86 153.46 362.33
  Q 155.40 363.49 160.27 363.66
  Q 165.52 363.85 171.15 363.74
  C 171.48 363.73 171.75 364.00 171.75 364.33
  L 171.79 371.75
  Q 171.62 377.65 165.99 379.21
  Q 163.19 379.99 160.25 379.79
  Q 140.13 379.28 120.00 379.50
  Q 118.91 379.51 118.71 380.00
  Q 117.74 379.71 116.74 379.70
  Q 115.00 379.67 114.77 379.64
  Q 107.16 378.53 107.00 369.75
  Q 106.81 359.35 107.25 348.96
  Q 113.57 348.68 119.90 348.72
  Q 123.57 348.74 125.40 349.82
  Q 128.17 351.44 128.88 354.72
  C 129.02 355.37 129.78 355.65 130.32 355.27
  Q 137.01 350.50 139.84 343.37
  Q 141.49 339.22 141.66 330.90
  Q 141.88 320.17 141.73 308.61
  C 141.72 308.13 141.34 307.75 140.86 307.74
  L 109.00 307.51
  Q 108.93 307.51 108.07 307.27
  Q 107.55 307.12 107.21 307.75
  Q 92.04 308.04 88.75 307.50
  Q 78.27 305.77 73.25 296.50
  Q 71.92 294.03 70.54 287.75
  Q 102.52 287.31 134.50 287.63
  Q 147.20 287.76 150.25 287.25
  Q 162.38 285.23 166.40 273.72
  Q 168.50 267.70 169.95 261.71
  C 170.07 261.22 169.70 260.75 169.20 260.75
  Q 116.50 260.75 64.50 260.75
  Q 63.53 260.75 63.21 261.00
  Q 41.81 259.79 33.29 240.50
  Q 76.86 241.01 120.43 240.65
  Q 126.79 240.60 140.44 240.77
  Q 153.83 240.93 167.21 240.48
  Q 174.34 240.24 179.11 238.73
  Q 200.47 231.97 206.42 210.36
  Q 207.74 205.58 207.82 197.99
  Q 208.17 163.28 207.99 127.55
  C 207.99 127.11 207.63 126.75 207.19 126.75
  L 33.00 126.75
  Q 32.75 126.75 32.06 126.52
  Q 31.39 126.30 31.00 127.04
  Q 20.35 126.71 16.00 117.50
  Q 14.71 114.77 15.04 111.25
  Q 17.75 111.82 20.49 111.69
  Q 24.46 111.50 24.51 111.50
  Q 117.00 111.50 209.50 111.50
  Q 215.95 111.50 220.39 106.38
  Q 224.76 101.36 223.50 94.79
  Q 231.20 94.44 238.90 94.43
  Q 250.58 94.42 253.03 95.09
  Q 258.55 96.59 261.63 101.56
  Q 264.23 105.76 264.06 111.40
  Q 263.65 125.02 248.56 127.00
  C 248.27 127.04 248.06 127.28 248.06 127.56
  Q 247.96 175.50 247.99 223.44
  Q 248.00 233.81 246.53 238.41
  Q 244.10 246.00 238.04 251.79
  Q 229.65 259.81 216.90 260.84
  C 216.33 260.89 215.85 261.29 215.69 261.84
  Q 212.07 275.04 208.50 287.75
  Q 207.48 291.39 206.60 293.93
  Q 205.42 297.31 203.66 299.63
  Q 199.82 304.69 193.89 306.63
  Q 190.67 307.68 183.38 307.75
  Q 176.09 307.82 172.75 307.75
  Q 171.60 307.72 171.79 308.75
  Z"
/>
<path fill="#7e8b96" d="
  M 454.56 105.82
  Q 454.94 306.00 454.69 506.18
  Q 454.69 506.69 454.69 506.18
  Q 454.31 306.00 454.56 105.82
  Q 454.56 105.31 454.56 105.82
  Z"
/>
<path fill="#5f6c75" d="
  M 33.29 240.50
  Q 30.72 233.09 30.91 225.27
  Q 31.00 221.34 31.00 221.22
  Q 31.00 174.13 31.00 127.04
  Q 31.39 126.30 32.06 126.52
  Q 32.75 126.75 33.00 126.75
  L 207.19 126.75
  C 207.63 126.75 207.99 127.11 207.99 127.55
  Q 208.17 163.28 207.82 197.99
  Q 207.74 205.58 206.42 210.36
  Q 200.47 231.97 179.11 238.73
  Q 174.34 240.24 167.21 240.48
  Q 153.83 240.93 140.44 240.77
  Q 126.79 240.60 120.43 240.65
  Q 76.86 241.01 33.29 240.50
  Z
  M 147.94 177.71
  Q 146.82 176.26 147.63 174.32
  Q 148.13 173.13 148.16 173.02
  Q 152.17 161.23 156.50 149.55
  Q 157.44 147.00 157.45 145.73
  Q 157.48 142.78 154.68 142.29
  Q 154.58 142.27 149.80 142.21
  Q 141.34 142.12 133.31 142.48
  Q 131.45 142.56 130.82 144.30
  Q 121.91 168.70 113.36 193.22
  Q 112.91 194.50 113.05 195.34
  Q 113.26 196.58 114.17 197.31
  Q 115.01 197.98 117.00 198.07
  Q 124.56 198.41 132.75 198.23
  C 133.58 198.22 134.17 199.04 133.88 199.82
  Q 129.10 212.82 124.44 226.23
  Q 122.48 231.89 127.19 234.31
  Q 130.14 235.83 132.74 234.32
  Q 134.19 233.47 136.07 230.54
  Q 150.45 208.13 164.68 185.63
  Q 165.70 184.02 165.89 183.10
  Q 166.26 181.30 165.02 180.21
  Q 164.01 179.32 161.60 179.28
  Q 156.41 179.21 151.12 179.25
  Q 149.15 179.27 147.94 177.71
  Z"
/>
<path fill="#f7b735" d="
  M 147.94 177.71
  Q 149.15 179.27 151.12 179.25
  Q 156.41 179.21 161.60 179.28
  Q 164.01 179.32 165.02 180.21
  Q 166.26 181.30 165.89 183.10
  Q 165.70 184.02 164.68 185.63
  Q 150.45 208.13 136.07 230.54
  Q 134.19 233.47 132.74 234.32
  Q 130.14 235.83 127.19 234.31
  Q 122.48 231.89 124.44 226.23
  Q 129.10 212.82 133.88 199.82
  C 134.17 199.04 133.58 198.22 132.75 198.23
  Q 124.56 198.41 117.00 198.07
  Q 115.01 197.98 114.17 197.31
  Q 113.26 196.58 113.05 195.34
  Q 112.91 194.50 113.36 193.22
  Q 121.91 168.70 130.82 144.30
  Q 131.45 142.56 133.31 142.48
  Q 141.34 142.12 149.80 142.21
  Q 154.58 142.27 154.68 142.29
  Q 157.48 142.78 157.45 145.73
  Q 157.44 147.00 156.50 149.55
  Q 152.17 161.23 148.16 173.02
  Q 148.13 173.13 147.63 174.32
  Q 146.82 176.26 147.94 177.71
  Z"
/>
<path fill="#5f6c75" d="
  M 70.54 287.75
  L 63.21 261.00
  Q 63.53 260.75 64.50 260.75
  Q 116.50 260.75 169.20 260.75
  C 169.70 260.75 170.07 261.22 169.95 261.71
  Q 168.50 267.70 166.40 273.72
  Q 162.38 285.23 150.25 287.25
  Q 147.20 287.76 134.50 287.63
  Q 102.52 287.31 70.54 287.75
  Z"
/>
<path fill="#5f6c75" d="
  M 107.25 348.96
  L 107.21 307.75
  Q 107.55 307.12 108.07 307.27
  Q 108.93 307.51 109.00 307.51
  L 140.86 307.74
  C 141.34 307.75 141.72 308.13 141.73 308.61
  Q 141.88 320.17 141.66 330.90
  Q 141.49 339.22 139.84 343.37
  Q 137.01 350.50 130.32 355.27
  C 129.78 355.65 129.02 355.37 128.88 354.72
  Q 128.17 351.44 125.40 349.82
  Q 123.57 348.74 119.90 348.72
  Q 113.57 348.68 107.25 348.96
  Z"
/>
<path fill="#3f4a4a" d="
  M 171.79 308.75
  Q 172.31 340.25 171.79 371.75
  L 171.75 364.33
  C 171.75 364.00 171.48 363.73 171.15 363.74
  Q 165.52 363.85 160.27 363.66
  Q 155.40 363.49 153.46 362.33
  Q 150.99 360.86 150.32 357.89
  Q 149.73 355.29 150.95 352.87
  Q 152.67 349.45 156.45 348.82
  Q 156.85 348.75 163.07 348.75
  Q 166.13 348.75 169.69 348.75
  Q 171.75 348.75 171.75 346.69
  L 171.75 338.84
  C 171.75 338.50 171.47 338.23 171.13 338.24
  Q 164.68 338.38 158.64 338.14
  Q 154.96 337.99 153.14 336.78
  Q 150.34 334.92 150.06 331.44
  Q 149.73 327.21 152.85 324.95
  Q 154.86 323.49 158.99 323.33
  Q 163.88 323.15 170.02 323.31
  C 170.96 323.34 171.74 322.57 171.74 321.62
  L 171.79 308.75
  Z"
/>
</svg>
