<?xml version="1.0" encoding="UTF-8" standalone="no"?>
<!DOCTYPE svg PUBLIC "-//W3C//DTD SVG 1.1//EN" "http://www.w3.org/Graphics/SVG/1.1/DTD/svg11.dtd">
<svg xmlns="http://www.w3.org/2000/svg" version="1.1" viewBox="0 0 875 875">
<g stroke-width="2.1" fill="none" stroke-linecap="butt">
<path stroke="#f9cb7d" vector-effect="non-scaling-stroke" d="
  M 739.29 239.25
  L 739.29 447.00"
/>
<path stroke="#f9db80" vector-effect="non-scaling-stroke" d="
  M 739.29 447.00
  Q 737.21 449.10 730.94 454.69
  Q 650.31 526.45 569.71 598.25"
/>
<path stroke="#f9e5a4" vector-effect="non-scaling-stroke" d="
  M 569.71 598.25
  Q 568.74 598.36 568.02 597.74
  Q 543.22 576.31 518.20 555.14
  Q 507.83 546.36 502.53 542.76
  Q 471.96 521.96 434.75 522.75
  Q 401.93 523.44 374.25 541.32
  Q 368.05 545.32 358.53 553.63
  Q 332.86 576.02 307.44 598.69
  Q 307.11 598.98 306.25 599.04"
/>
<path stroke="#f9db80" vector-effect="non-scaling-stroke" d="
  M 306.25 599.04
  Q 221.61 523.80 137.06 448.44
  Q 135.98 447.47 135.75 446.96"
/>
<path stroke="#f9cb7d" vector-effect="non-scaling-stroke" d="
  M 135.75 446.96
  L 135.71 239.00"
/>
<path stroke="#f3f5f8" stroke-opacity="0.992" vector-effect="non-scaling-stroke" d="
  M 169.05 0.31
  Q 437.28 0.64 705.50 0.54
  Q 707.79 0.54 706.84 0.32
  Q 706.55 0.25 706.16 0.25
  Q 437.60 0.20 169.05 0.31
  Q 168.56 0.31 169.05 0.31"
/>
<path stroke="#da8b90" vector-effect="non-scaling-stroke" d="
  M 510.56 179.94
  Q 488.26 158.35 457.87 152.29
  Q 448.16 150.35 438.01 150.32
  Q 402.55 150.24 374.35 171.05
  Q 366.15 177.10 359.46 184.34
  Q 341.69 203.58 334.82 229.52
  Q 329.93 247.97 331.75 266.00
  Q 335.23 300.44 358.44 326.58
  Q 373.57 343.62 394.44 352.81
  Q 415.92 362.28 439.02 361.87
  Q 448.89 361.70 458.85 359.60
  Q 493.23 352.36 517.01 325.49
  C 517.29 325.17 517.80 325.25 517.97 325.64
  Q 525.77 343.37 542.42 353.34
  Q 558.84 363.17 577.25 361.75
  Q 604.23 359.68 621.19 338.19
  Q 629.70 327.41 632.36 313.42
  Q 633.50 307.45 633.50 293.49
  Q 633.50 273.62 633.50 253.75
  Q 633.50 221.59 621.25 188.25
  Q 605.33 144.92 570.31 112.44
  Q 525.05 70.45 462.94 62.11
  Q 452.75 60.74 443.01 60.47
  Q 414.32 59.67 386.45 67.22
  Q 347.73 77.71 316.53 102.19
  Q 308.78 108.28 301.48 115.36
  Q 258.84 156.70 245.94 214.94
  Q 243.78 224.72 242.71 234.67
  Q 236.53 292.62 262.38 344.35
  Q 266.90 353.39 272.23 361.75
  Q 294.45 396.59 328.94 419.56
  Q 373.70 449.38 427.61 452.06
  Q 437.46 452.55 437.87 452.52
  Q 443.61 452.11 447.66 448.29
  Q 451.69 444.47 452.41 439.14
  Q 453.18 433.43 449.56 428.44
  Q 447.15 425.11 443.24 423.54
  Q 440.85 422.58 435.61 422.41
  Q 362.95 420.04 314.91 367.96
  Q 308.00 360.48 302.31 352.43
  Q 274.92 313.69 271.87 265.99
  Q 271.24 256.13 271.98 246.02
  Q 276.65 182.44 321.42 138.04
  Q 328.58 130.93 336.46 124.91
  Q 378.54 92.76 431.94 90.69
  Q 442.09 90.29 451.92 91.16
  Q 485.35 94.10 514.69 109.56
  Q 550.35 128.35 573.94 162.06
  Q 598.19 196.72 602.52 239.77
  Q 603.23 246.89 603.40 259.75
  Q 603.65 279.87 603.57 300.00
  Q 603.50 317.75 589.69 326.94
  Q 582.25 331.88 573.42 331.81
  Q 565.15 331.75 557.75 327.37
  Q 547.83 321.49 544.51 310.38
  Q 543.00 305.32 543.00 293.48
  Q 543.00 278.36 543.00 263.25
  Q 543.00 249.89 542.19 243.29
  Q 537.63 206.14 510.56 179.94"
/>
<path stroke="#da8b90" vector-effect="non-scaling-stroke" d="
  M 512.79 256.39
  C 512.79 214.80 479.07 181.08 437.48 181.08
  C 395.89 181.08 362.17 214.80 362.17 256.39
  C 362.17 297.98 395.89 331.70 437.48 331.70
  C 479.07 331.70 512.79 297.98 512.79 256.39"
/>
<path stroke="#ffb104" vector-effect="non-scaling-stroke" d="
  M 135.75 446.96
  Q 135.17 447.13 134.73 446.96
  C 134.56 446.89 134.34 446.61 134.13 446.22
  Q 133.76 445.53 132.81 444.69
  Q 73.85 392.12 14.81 339.65
  Q 14.55 339.41 13.95 339.22
  Q 13.38 339.04 13.04 338.50"
/>
<path stroke="#ffb104" vector-effect="non-scaling-stroke" d="
  M 861.75 338.46
  Q 784.79 406.24 740.94 445.94
  Q 739.83 446.94 739.29 447.00"
/>
<path stroke="#ffcb2b" vector-effect="non-scaling-stroke" d="
  M 306.25 599.04
  Q 305.97 599.86 304.19 601.44
  Q 171.70 718.71 39.10 835.85
  Q 37.23 837.50 35.50 839.29"
/>
<path stroke="#ffbe08" stroke-opacity="0.996" vector-effect="non-scaling-stroke" d="
  M 0.31 386.06
  Q 0.20 571.41 0.40 756.75
  Q 0.40 760.27 0.41 756.50
  Q 0.64 571.28 0.31 386.06
  Q 0.31 385.56 0.31 386.06"
/>
<path stroke="#ffbe08" stroke-opacity="0.996" vector-effect="non-scaling-stroke" d="
  M 875.00 391.81
  Q 874.75 391.89 874.75 392.50
  Q 874.72 576.00 874.79 759.50"
/>
<path stroke="#ffcb2b" vector-effect="non-scaling-stroke" d="
  M 844.50 833.79
  Q 707.60 716.93 570.81 599.94
  Q 569.75 599.03 569.71 598.25"
/>
<path stroke="#ffeaa7" vector-effect="non-scaling-stroke" d="
  M 241.16 814.02
  C 241.16 806.04 234.69 799.57 226.71 799.57
  L 165.57 799.57
  C 157.59 799.57 151.12 806.04 151.12 814.02
  L 151.12 815.02
  C 151.12 823.00 157.59 829.47 165.57 829.47
  L 226.71 829.47
  C 234.69 829.47 241.16 823.00 241.16 815.02
  L 241.16 814.02"
/>
<path stroke="#ffeaa7" vector-effect="non-scaling-stroke" d="
  M 301.63 814.56
  C 301.63 806.30 294.94 799.61 286.68 799.61
  C 278.42 799.61 271.73 806.30 271.73 814.56
  C 271.73 822.82 278.42 829.51 286.68 829.51
  C 294.94 829.51 301.63 822.82 301.63 814.56"
/>
</g>
<path fill="#f3f5f9" d="
  M 165.31 0.00
  Q 437.81 0.00 710.31 0.00
  Q 717.54 0.39 723.19 3.56
  Q 733.52 9.36 737.29 19.95
  Q 739.02 24.82 739.16 34.27
  Q 739.26 41.01 739.25 50.25
  Q 739.18 96.47 739.29 239.25
  L 739.29 447.00
  Q 737.21 449.10 730.94 454.69
  Q 650.31 526.45 569.71 598.25
  Q 568.74 598.36 568.02 597.74
  Q 543.22 576.31 518.20 555.14
  Q 507.83 546.36 502.53 542.76
  Q 471.96 521.96 434.75 522.75
  Q 401.93 523.44 374.25 541.32
  Q 368.05 545.32 358.53 553.63
  Q 332.86 576.02 307.44 598.69
  Q 307.11 598.98 306.25 599.04
  Q 221.61 523.80 137.06 448.44
  Q 135.98 447.47 135.75 446.96
  L 135.71 239.00
  Q 135.82 80.25 135.75 37.50
  Q 135.74 32.78 135.96 29.03
  Q 136.24 24.19 137.41 20.73
  Q 140.61 11.28 149.08 5.35
  Q 156.36 0.25 165.31 0.00
  Z
  M 169.05 0.31
  Q 437.28 0.64 705.50 0.54
  Q 707.79 0.54 706.84 0.32
  Q 706.55 0.25 706.16 0.25
  Q 437.60 0.20 169.05 0.31
  Q 168.56 0.31 169.05 0.31
  Z
  M 510.56 179.94
  Q 488.26 158.35 457.87 152.29
  Q 448.16 150.35 438.01 150.32
  Q 402.55 150.24 374.35 171.05
  Q 366.15 177.10 359.46 184.34
  Q 341.69 203.58 334.82 229.52
  Q 329.93 247.97 331.75 266.00
  Q 335.23 300.44 358.44 326.58
  Q 373.57 343.62 394.44 352.81
  Q 415.92 362.28 439.02 361.87
  Q 448.89 361.70 458.85 359.60
  Q 493.23 352.36 517.01 325.49
  C 517.29 325.17 517.80 325.25 517.97 325.64
  Q 525.77 343.37 542.42 353.34
  Q 558.84 363.17 577.25 361.75
  Q 604.23 359.68 621.19 338.19
  Q 629.70 327.41 632.36 313.42
  Q 633.50 307.45 633.50 293.49
  Q 633.50 273.62 633.50 253.75
  Q 633.50 221.59 621.25 188.25
  Q 605.33 144.92 570.31 112.44
  Q 525.05 70.45 462.94 62.11
  Q 452.75 60.74 443.01 60.47
  Q 414.32 59.67 386.45 67.22
  Q 347.73 77.71 316.53 102.19
  Q 308.78 108.28 301.48 115.36
  Q 258.84 156.70 245.94 214.94
  Q 243.78 224.72 242.71 234.67
  Q 236.53 292.62 262.38 344.35
  Q 266.90 353.39 272.23 361.75
  Q 294.45 396.59 328.94 419.56
  Q 373.70 449.38 427.61 452.06
  Q 437.46 452.55 437.87 452.52
  Q 443.61 452.11 447.66 448.29
  Q 451.69 444.47 452.41 439.14
  Q 453.18 433.43 449.56 428.44
  Q 447.15 425.11 443.24 423.54
  Q 440.85 422.58 435.61 422.41
  Q 362.95 420.04 314.91 367.96
  Q 308.00 360.48 302.31 352.43
  Q 274.92 313.69 271.87 265.99
  Q 271.24 256.13 271.98 246.02
  Q 276.65 182.44 321.42 138.04
  Q 328.58 130.93 336.46 124.91
  Q 378.54 92.76 431.94 90.69
  Q 442.09 90.29 451.92 91.16
  Q 485.35 94.10 514.69 109.56
  Q 550.35 128.35 573.94 162.06
  Q 598.19 196.72 602.52 239.77
  Q 603.23 246.89 603.40 259.75
  Q 603.65 279.87 603.57 300.00
  Q 603.50 317.75 589.69 326.94
  Q 582.25 331.88 573.42 331.81
  Q 565.15 331.75 557.75 327.37
  Q 547.83 321.49 544.51 310.38
  Q 543.00 305.32 543.00 293.48
  Q 543.00 278.36 543.00 263.25
  Q 543.00 249.89 542.19 243.29
  Q 537.63 206.14 510.56 179.94
  Z"
/>
<path fill="#f2f4f7" fill-opacity="0.984" d="
  M 169.05 0.31
  Q 437.60 0.20 706.16 0.25
  Q 706.55 0.25 706.84 0.32
  Q 707.79 0.54 705.50 0.54
  Q 437.28 0.64 169.05 0.31
  Q 168.56 0.31 169.05 0.31
  Z"
/>
<path fill="#c02027" d="
  M 510.56 179.94
  Q 537.63 206.14 542.19 243.29
  Q 543.00 249.89 543.00 263.25
  Q 543.00 278.36 543.00 293.48
  Q 543.00 305.32 544.51 310.38
  Q 547.83 321.49 557.75 327.37
  Q 565.15 331.75 573.42 331.81
  Q 582.25 331.88 589.69 326.94
  Q 603.50 317.75 603.57 300.00
  Q 603.65 279.87 603.40 259.75
  Q 603.23 246.89 602.52 239.77
  Q 598.19 196.72 573.94 162.06
  Q 550.35 128.35 514.69 109.56
  Q 485.35 94.10 451.92 91.16
  Q 442.09 90.29 431.94 90.69
  Q 378.54 92.76 336.46 124.91
  Q 328.58 130.93 321.42 138.04
  Q 276.65 182.44 271.98 246.02
  Q 271.24 256.13 271.87 265.99
  Q 274.92 313.69 302.31 352.43
  Q 308.00 360.48 314.91 367.96
  Q 362.95 420.04 435.61 422.41
  Q 440.85 422.58 443.24 423.54
  Q 447.15 425.11 449.56 428.44
  Q 453.18 433.43 452.41 439.14
  Q 451.69 444.47 447.66 448.29
  Q 443.61 452.11 437.87 452.52
  Q 437.46 452.55 427.61 452.06
  Q 373.70 449.38 328.94 419.56
  Q 294.45 396.59 272.23 361.75
  Q 266.90 353.39 262.38 344.35
  Q 236.53 292.62 242.71 234.67
  Q 243.78 224.72 245.94 214.94
  Q 258.84 156.70 301.48 115.36
  Q 308.78 108.28 316.53 102.19
  Q 347.73 77.71 386.45 67.22
  Q 414.32 59.67 443.01 60.47
  Q 452.75 60.74 462.94 62.11
  Q 525.05 70.45 570.31 112.44
  Q 605.33 144.92 621.25 188.25
  Q 633.50 221.59 633.50 253.75
  Q 633.50 273.62 633.50 293.49
  Q 633.50 307.45 632.36 313.42
  Q 629.70 327.41 621.19 338.19
  Q 604.23 359.68 577.25 361.75
  Q 558.84 363.17 542.42 353.34
  Q 525.77 343.37 517.97 325.64
  C 517.80 325.25 517.29 325.17 517.01 325.49
  Q 493.23 352.36 458.85 359.60
  Q 448.89 361.70 439.02 361.87
  Q 415.92 362.28 394.44 352.81
  Q 373.57 343.62 358.44 326.58
  Q 335.23 300.44 331.75 266.00
  Q 329.93 247.97 334.82 229.52
  Q 341.69 203.58 359.46 184.34
  Q 366.15 177.10 374.35 171.05
  Q 402.55 150.24 438.01 150.32
  Q 448.16 150.35 457.87 152.29
  Q 488.26 158.35 510.56 179.94
  Z
  M 512.79 256.39
  C 512.79 214.80 479.07 181.08 437.48 181.08
  C 395.89 181.08 362.17 214.80 362.17 256.39
  C 362.17 297.98 395.89 331.70 437.48 331.70
  C 479.07 331.70 512.79 297.98 512.79 256.39
  Z"
/>
<circle fill="#f3f5f9" cx="437.48" cy="256.39" r="75.31"/>
<path fill="#ffa000" d="
  M 135.71 239.00
  L 135.75 446.96
  Q 135.17 447.13 134.73 446.96
  C 134.56 446.89 134.34 446.61 134.13 446.22
  Q 133.76 445.53 132.81 444.69
  Q 73.85 392.12 14.81 339.65
  Q 14.55 339.41 13.95 339.22
  Q 13.38 339.04 13.04 338.50
  Q 23.77 317.43 41.28 302.10
  Q 46.65 297.40 57.42 290.34
  Q 96.56 264.67 135.71 239.00
  Z"
/>
<path fill="#ffa000" d="
  M 739.29 239.25
  Q 779.49 265.14 819.35 291.53
  Q 829.82 298.47 835.33 303.50
  Q 851.66 318.42 861.75 338.46
  Q 784.79 406.24 740.94 445.94
  Q 739.83 446.94 739.29 447.00
  L 739.29 239.25
  Z"
/>
<path fill="#ffc107" d="
  M 13.04 338.50
  Q 13.38 339.04 13.95 339.22
  Q 14.55 339.41 14.81 339.65
  Q 73.85 392.12 132.81 444.69
  Q 133.76 445.53 134.13 446.22
  C 134.34 446.61 134.56 446.89 134.73 446.96
  Q 135.17 447.13 135.75 446.96
  Q 135.98 447.47 137.06 448.44
  Q 221.61 523.80 306.25 599.04
  Q 305.97 599.86 304.19 601.44
  Q 171.70 718.71 39.10 835.85
  Q 37.23 837.50 35.50 839.29
  Q 3.04 806.29 0.00 759.69
  Q 0.00 572.06 0.00 384.44
  Q 2.08 360.17 13.04 338.50
  Z
  M 0.31 386.06
  Q 0.20 571.41 0.40 756.75
  Q 0.40 760.27 0.41 756.50
  Q 0.64 571.28 0.31 386.06
  Q 0.31 385.56 0.31 386.06
  Z"
/>
<path fill="#ffc107" d="
  M 861.75 338.46
  Q 874.06 362.34 875.00 389.31
  Q 875.00 390.56 875.00 391.81
  Q 874.75 391.89 874.75 392.50
  Q 874.72 576.00 874.79 759.50
  Q 872.36 802.00 844.50 833.79
  Q 707.60 716.93 570.81 599.94
  Q 569.75 599.03 569.71 598.25
  Q 650.31 526.45 730.94 454.69
  Q 737.21 449.10 739.29 447.00
  Q 739.83 446.94 740.94 445.94
  Q 784.79 406.24 861.75 338.46
  Z"
/>
<path fill="#febb09" fill-opacity="0.992" d="
  M 0.31 386.06
  Q 0.64 571.28 0.41 756.50
  Q 0.40 760.27 0.40 756.75
  Q 0.20 571.41 0.31 386.06
  Q 0.31 385.56 0.31 386.06
  Z"
/>
<path fill="#febb09" fill-opacity="0.992" d="
  M 875.00 391.81
  Q 875.00 575.69 875.00 759.56
  Q 874.90 759.53 874.79 759.50
  Q 874.72 576.00 874.75 392.50
  Q 874.75 391.89 875.00 391.81
  Z"
/>
<path fill="#ffd54f" d="
  M 569.71 598.25
  Q 569.75 599.03 570.81 599.94
  Q 707.60 716.93 844.50 833.79
  Q 810.94 871.10 760.44 875.00
  Q 437.31 875.00 114.19 875.00
  Q 68.06 871.58 35.50 839.29
  Q 37.23 837.50 39.10 835.85
  Q 171.70 718.71 304.19 601.44
  Q 305.97 599.86 306.25 599.04
  Q 307.11 598.98 307.44 598.69
  Q 332.86 576.02 358.53 553.63
  Q 368.05 545.32 374.25 541.32
  Q 401.93 523.44 434.75 522.75
  Q 471.96 521.96 502.53 542.76
  Q 507.83 546.36 518.20 555.14
  Q 543.22 576.31 568.02 597.74
  Q 568.74 598.36 569.71 598.25
  Z
  M 241.16 814.02
  C 241.16 806.04 234.69 799.57 226.71 799.57
  L 165.57 799.57
  C 157.59 799.57 151.12 806.04 151.12 814.02
  L 151.12 815.02
  C 151.12 823.00 157.59 829.47 165.57 829.47
  L 226.71 829.47
  C 234.69 829.47 241.16 823.00 241.16 815.02
  L 241.16 814.02
  Z
  M 301.63 814.56
  C 301.63 806.30 294.94 799.61 286.68 799.61
  C 278.42 799.61 271.73 806.30 271.73 814.56
  C 271.73 822.82 278.42 829.51 286.68 829.51
  C 294.94 829.51 301.63 822.82 301.63 814.56
  Z"
/>
<rect fill="#ffffff" x="151.12" y="799.57" width="90.04" height="29.90" rx="14.45"/>
<circle fill="#ffffff" cx="286.68" cy="814.56" r="14.95"/>
</svg>
