<?xml version="1.0" encoding="UTF-8" standalone="no"?>
<!DOCTYPE svg PUBLIC "-//W3C//DTD SVG 1.1//EN" "http://www.w3.org/Graphics/SVG/1.1/DTD/svg11.dtd">
<svg xmlns="http://www.w3.org/2000/svg" version="1.1" viewBox="0 0 512 512">
<g stroke-width="2.1" fill="none" stroke-linecap="butt">
<path stroke="#fee674" vector-effect="non-scaling-stroke" d="
  M 257.50 1.71
  L 256.51 2.08
  C 256.24 2.18 256.06 2.47 256.06 2.81
  L 256.00 138.96"
/>
<path stroke="#fdc178" vector-effect="non-scaling-stroke" d="
  M 256.00 138.96
  Q 255.77 139.02 255.71 139.25"
/>
<path stroke="#fed672" vector-effect="non-scaling-stroke" d="
  M 255.71 139.25
  Q 244.76 151.60 226.94 173.69
  Q 204.01 202.10 187.69 230.89
  Q 181.76 241.37 177.36 252.58
  Q 172.74 264.36 172.00 273.25
  Q 170.50 291.16 177.28 308.46
  Q 180.90 317.71 186.67 326.07
  Q 203.09 349.85 231.48 358.95
  Q 231.60 358.99 235.08 359.74
  Q 237.19 360.19 239.00 361.46"
/>
<path stroke="#939371" vector-effect="non-scaling-stroke" d="
  M 239.00 361.46
  Q 228.23 360.15 217.75 357.29"
/>
<path stroke="#8a8150" vector-effect="non-scaling-stroke" d="
  M 294.00 357.29
  Q 285.14 359.83 276.00 361.04"
/>
<path stroke="#fbb863" vector-effect="non-scaling-stroke" d="
  M 276.00 361.04
  Q 274.91 360.58 275.97 360.32
  Q 292.46 356.20 305.94 345.91
  Q 336.56 322.55 339.85 285.16
  Q 340.67 275.91 338.80 266.94
  Q 336.07 253.80 329.75 241.25
  Q 320.04 221.98 309.07 206.15
  Q 284.64 170.90 256.00 138.96"
/>
<path stroke="#895c54" vector-effect="non-scaling-stroke" d="
  M 276.00 361.04
  Q 265.94 362.73 255.75 363.04"
/>
<path stroke="#90645f" vector-effect="non-scaling-stroke" d="
  M 255.75 363.04
  Q 255.26 363.12 255.00 362.79"
/>
<path stroke="#fba860" vector-effect="non-scaling-stroke" d="
  M 255.00 362.79
  Q 256.00 362.97 256.00 361.75
  Q 256.00 253.75 256.07 145.75
  Q 256.08 142.49 255.71 139.25"
/>
<path stroke="#917a59" vector-effect="non-scaling-stroke" d="
  M 255.00 362.79
  Q 246.94 362.85 239.00 361.46"
/>
<path stroke="#1f2e4d" vector-effect="non-scaling-stroke" d="
  M 255.75 363.04
  L 256.00 408.36
  C 256.01 408.99 256.51 409.50 257.12 409.50
  L 294.25 409.46"
/>
<path stroke="#1f2e4d" vector-effect="non-scaling-stroke" d="
  M 343.79 409.50
  L 391.44 409.44
  C 391.68 409.44 391.90 409.24 392.00 408.94
  Q 392.22 408.23 393.25 408.46"
/>
<path stroke="#4a7da4" vector-effect="non-scaling-stroke" d="
  M 418.71 481.75
  Q 417.58 482.01 415.00 482.00
  Q 383.65 481.92 256.25 482.04"
/>
<path stroke="#648ea9" vector-effect="non-scaling-stroke" d="
  M 256.25 482.04
  L 256.00 481.96"
/>
<path stroke="#36426b" vector-effect="non-scaling-stroke" d="
  M 256.00 481.96
  L 256.00 410.00
  C 256.00 409.72 255.78 409.50 255.50 409.50
  L 217.75 409.46"
/>
<path stroke="#36426b" vector-effect="non-scaling-stroke" d="
  M 168.21 409.25
  Q 153.21 409.56 126.75 409.50
  Q 120.71 409.49 116.75 408.96"
/>
<path stroke="#739abb" vector-effect="non-scaling-stroke" d="
  M 256.00 481.96
  Q 176.00 482.03 96.00 482.00
  Q 94.25 482.00 93.25 481.71"
/>
<path stroke="#87d5f4" vector-effect="non-scaling-stroke" d="
  M 256.25 482.04
  L 256.00 510.71"
/>
<path stroke="#a1e6f9" vector-effect="non-scaling-stroke" d="
  M 256.00 510.71
  Q 255.61 510.75 255.48 510.99
  C 255.35 511.26 255.15 511.44 254.97 511.44
  Q 128.11 511.55 1.25 511.50
  Q 0.98 511.50 0.19 512.00"
/>
<path stroke="#87d5f4" vector-effect="non-scaling-stroke" d="
  M 256.19 512.00
  Q 257.12 511.36 256.00 510.71"
/>
</g>
<path fill="#ffef89" d="
  M 257.50 1.71
  L 256.51 2.08
  C 256.24 2.18 256.06 2.47 256.06 2.81
  L 256.00 138.96
  Q 255.77 139.02 255.71 139.25
  Q 244.76 151.60 226.94 173.69
  Q 204.01 202.10 187.69 230.89
  Q 181.76 241.37 177.36 252.58
  Q 172.74 264.36 172.00 273.25
  Q 170.50 291.16 177.28 308.46
  Q 180.90 317.71 186.67 326.07
  Q 203.09 349.85 231.48 358.95
  Q 231.60 358.99 235.08 359.74
  Q 237.19 360.19 239.00 361.46
  Q 228.23 360.15 217.75 357.29
  Q 169.79 342.32 142.56 301.44
  Q 118.03 264.59 120.50 219.00
  Q 120.93 211.12 125.46 196.86
  Q 131.55 177.68 140.80 159.81
  Q 148.78 144.39 157.92 129.63
  Q 181.24 91.96 211.31 54.06
  Q 235.68 23.36 255.67 0.63
  C 255.87 0.39 256.21 0.36 256.39 0.55
  L 257.50 1.71
  Z"
/>
<path fill="#fcdd5f" d="
  M 257.50 1.71
  Q 271.72 18.29 285.64 35.13
  Q 314.80 70.39 340.46 108.28
  Q 353.52 127.56 364.97 147.85
  Q 376.91 169.03 385.05 191.95
  Q 388.64 202.07 390.45 212.59
  Q 392.08 222.08 391.61 232.49
  Q 389.30 283.83 353.75 321.00
  Q 329.17 346.70 294.00 357.29
  Q 285.14 359.83 276.00 361.04
  Q 274.91 360.58 275.97 360.32
  Q 292.46 356.20 305.94 345.91
  Q 336.56 322.55 339.85 285.16
  Q 340.67 275.91 338.80 266.94
  Q 336.07 253.80 329.75 241.25
  Q 320.04 221.98 309.07 206.15
  Q 284.64 170.90 256.00 138.96
  L 256.06 2.81
  C 256.06 2.47 256.24 2.18 256.51 2.08
  L 257.50 1.71
  Z"
/>
<path fill="#fa9266" d="
  M 256.00 138.96
  Q 284.64 170.90 309.07 206.15
  Q 320.04 221.98 329.75 241.25
  Q 336.07 253.80 338.80 266.94
  Q 340.67 275.91 339.85 285.16
  Q 336.56 322.55 305.94 345.91
  Q 292.46 356.20 275.97 360.32
  Q 274.91 360.58 276.00 361.04
  Q 265.94 362.73 255.75 363.04
  Q 255.26 363.12 255.00 362.79
  Q 256.00 362.97 256.00 361.75
  Q 256.00 253.75 256.07 145.75
  Q 256.08 142.49 255.71 139.25
  Q 255.77 139.02 256.00 138.96
  Z"
/>
<path fill="#fcbd5a" d="
  M 255.71 139.25
  Q 256.08 142.49 256.07 145.75
  Q 256.00 253.75 256.00 361.75
  Q 256.00 362.97 255.00 362.79
  Q 246.94 362.85 239.00 361.46
  Q 237.19 360.19 235.08 359.74
  Q 231.60 358.99 231.48 358.95
  Q 203.09 349.85 186.67 326.07
  Q 180.90 317.71 177.28 308.46
  Q 170.50 291.16 172.00 273.25
  Q 172.74 264.36 177.36 252.58
  Q 181.76 241.37 187.69 230.89
  Q 204.01 202.10 226.94 173.69
  Q 244.76 151.60 255.71 139.25
  Z"
/>
<path fill="#263658" d="
  M 217.75 357.29
  Q 228.23 360.15 239.00 361.46
  Q 246.94 362.85 255.00 362.79
  Q 255.26 363.12 255.75 363.04
  L 256.00 408.36
  C 256.01 408.99 256.51 409.50 257.12 409.50
  L 294.25 409.46
  L 343.79 409.50
  L 391.44 409.44
  C 391.68 409.44 391.90 409.24 392.00 408.94
  Q 392.22 408.23 393.25 408.46
  Q 396.34 409.11 399.50 409.20
  Q 408.78 409.46 418.06 409.68
  C 418.34 409.69 418.57 409.91 418.57 410.18
  L 418.71 481.75
  Q 417.58 482.01 415.00 482.00
  Q 383.65 481.92 256.25 482.04
  L 256.00 481.96
  L 256.00 410.00
  C 256.00 409.72 255.78 409.50 255.50 409.50
  L 217.75 409.46
  Q 218.32 383.38 217.75 357.29
  Z"
/>
<path fill="#182541" d="
  M 294.00 357.29
  L 294.25 409.46
  L 257.12 409.50
  C 256.51 409.50 256.01 408.99 256.00 408.36
  L 255.75 363.04
  Q 265.94 362.73 276.00 361.04
  Q 285.14 359.83 294.00 357.29
  Z"
/>
<path fill="#263658" d="
  M 168.21 409.25
  Q 153.21 409.56 126.75 409.50
  Q 120.71 409.49 116.75 408.96
  Q 132.19 405.66 141.81 394.56
  Q 152.06 382.74 153.07 365.79
  C 153.10 365.25 153.56 364.83 154.12 364.82
  L 182.15 364.75
  C 182.63 364.75 183.02 365.14 183.01 365.61
  Q 182.63 390.14 168.21 409.25
  Z"
/>
<path fill="#182541" d="
  M 393.25 408.46
  Q 392.22 408.23 392.00 408.94
  C 391.90 409.24 391.68 409.44 391.44 409.44
  L 343.79 409.50
  Q 329.70 389.91 329.20 365.69
  C 329.19 365.41 329.41 365.18 329.68 365.16
  Q 342.70 364.60 355.73 364.74
  Q 355.87 364.74 357.25 364.64
  Q 359.43 364.48 359.37 366.57
  Q 359.31 368.34 359.32 368.44
  Q 360.61 383.65 370.69 394.81
  Q 379.79 404.90 393.25 408.46
  Z"
/>
<path fill="#454d7d" d="
  M 116.75 408.96
  Q 120.71 409.49 126.75 409.50
  Q 153.21 409.56 168.21 409.25
  L 217.75 409.46
  L 255.50 409.50
  C 255.78 409.50 256.00 409.72 256.00 410.00
  L 256.00 481.96
  Q 176.00 482.03 96.00 482.00
  Q 94.25 482.00 93.25 481.71
  L 93.25 410.29
  C 93.25 409.85 93.61 409.49 94.07 409.48
  L 116.75 408.96
  Z"
/>
<path fill="#a1e6f9" d="
  M 93.25 481.71
  Q 94.25 482.00 96.00 482.00
  Q 176.00 482.03 256.00 481.96
  L 256.25 482.04
  L 256.00 510.71
  Q 255.61 510.75 255.48 510.99
  C 255.35 511.26 255.15 511.44 254.97 511.44
  Q 128.11 511.55 1.25 511.50
  Q 0.98 511.50 0.19 512.00
  Q 0.09 512.00 0.00 512.00
  Q 0.00 497.09 0.00 482.19
  Q 58.56 481.76 90.25 482.00
  Q 92.36 482.02 93.25 481.71
  Z"
/>
<path fill="#6dc3ef" d="
  M 418.71 481.75
  Q 419.03 482.00 420.00 482.00
  Q 441.16 481.90 512.00 482.06
  Q 512.00 497.03 512.00 512.00
  Q 384.09 512.00 256.19 512.00
  Q 257.12 511.36 256.00 510.71
  L 256.25 482.04
  Q 383.65 481.92 415.00 482.00
  Q 417.58 482.01 418.71 481.75
  Z"
/>
<path fill="#a1e6f9" d="
  M 256.00 510.71
  Q 257.12 511.36 256.19 512.00
  Q 128.19 512.00 0.19 512.00
  Q 0.98 511.50 1.25 511.50
  Q 128.11 511.55 254.97 511.44
  C 255.15 511.44 255.35 511.26 255.48 510.99
  Q 255.61 510.75 256.00 510.71
  Z"
/>
</svg>
