<?xml version="1.0" encoding="UTF-8" standalone="no"?>
<!DOCTYPE svg PUBLIC "-//W3C//DTD SVG 1.1//EN" "http://www.w3.org/Graphics/SVG/1.1/DTD/svg11.dtd">
<svg xmlns="http://www.w3.org/2000/svg" version="1.1" viewBox="0 0 875 875">
<g stroke-width="2.1" fill="none" stroke-linecap="butt">
<path stroke="#a96f28" vector-effect="non-scaling-stroke" d="
  M 504.50 419.21
  Q 504.05 419.57 503.19 421.19
  Q 478.64 467.34 454.50 513.71"
/>
<path stroke="#ef8539" vector-effect="non-scaling-stroke" d="
  M 454.50 513.71
  L 438.39 544.03
  Q 437.69 545.35 436.98 544.02
  L 421.00 513.96"
/>
<path stroke="#a96f28" vector-effect="non-scaling-stroke" d="
  M 421.00 513.96
  Q 396.88 467.46 372.31 421.19
  Q 371.45 419.57 371.00 419.21"
/>
<path stroke="#fabc3d" vector-effect="non-scaling-stroke" d="
  M 512.71 546.75
  Q 510.63 554.97 504.19 559.94
  Q 493.63 568.08 480.23 571.68
  Q 442.89 581.74 404.90 574.25
  Q 394.08 572.11 381.19 566.06
  Q 368.99 560.34 363.54 549.50"
/>
<path stroke="#b5bb3d" vector-effect="non-scaling-stroke" d="
  M 421.00 513.96
  Q 410.49 514.86 398.81 517.81
  Q 386.48 520.94 376.32 527.07
  Q 369.46 531.20 365.69 536.94
  Q 362.06 542.45 363.54 549.50"
/>
<path stroke="#b4a62c" vector-effect="non-scaling-stroke" d="
  M 363.54 549.50
  Q 362.17 556.85 366.06 562.19
  Q 370.79 568.68 379.22 572.99
  Q 384.77 575.84 390.61 578.01
  Q 395.97 580.00 402.54 581.44
  Q 434.33 588.40 467.00 583.00
  Q 475.39 581.61 483.15 579.11
  Q 492.75 576.02 498.26 573.03
  Q 505.91 568.88 510.94 562.44
  Q 516.25 555.63 512.71 546.75"
/>
<path stroke="#b5bb3d" vector-effect="non-scaling-stroke" d="
  M 512.71 546.75
  Q 512.55 539.77 508.69 535.06
  Q 503.40 528.61 494.74 524.52
  Q 491.97 523.21 489.21 521.89
  Q 486.26 520.48 483.50 519.66
  Q 469.27 515.45 454.50 513.71"
/>
<path stroke="#f19c92" vector-effect="non-scaling-stroke" d="
  M 529.41 165.45
  C 529.41 114.81 488.36 73.76 437.72 73.76
  C 387.08 73.76 346.03 114.81 346.03 165.45
  C 346.03 216.09 387.08 257.14 437.72 257.14
  C 488.36 257.14 529.41 216.09 529.41 165.45"
/>
<path stroke="#526221" vector-effect="non-scaling-stroke" d="
  M 735.93 568.24
  Q 740.19 568.44 744.45 568.66
  C 744.73 568.68 744.99 568.49 745.06 568.21
  Q 746.02 564.39 745.84 560.44
  C 745.83 560.15 745.61 559.91 745.31 559.87
  Q 734.82 558.48 723.82 559.02
  C 723.36 559.04 723.00 559.42 723.00 559.88
  L 723.00 567.34
  C 723.00 567.71 723.30 568.01 723.67 568.00
  Q 729.97 567.95 735.93 568.24"
/>
<path stroke="#526221" vector-effect="non-scaling-stroke" d="
  M 671.03 577.33
  Q 687.49 571.72 704.69 569.26
  C 704.98 569.22 705.18 568.97 705.14 568.70
  L 703.92 560.93
  C 703.88 560.65 703.60 560.47 703.31 560.51
  Q 685.40 562.90 668.29 568.65
  C 668.01 568.74 667.85 569.03 667.94 569.30
  L 670.43 577.05
  C 670.51 577.29 670.78 577.41 671.03 577.33"
/>
<path stroke="#526221" vector-effect="non-scaling-stroke" d="
  M 623.27 604.40
  L 630.06 609.01
  C 630.29 609.16 630.61 609.08 630.77 608.83
  Q 640.00 594.51 654.32 585.27
  C 654.58 585.11 654.66 584.78 654.51 584.56
  L 650.03 578.09
  C 649.87 577.86 649.54 577.81 649.28 577.97
  Q 633.12 588.25 623.19 603.87
  C 623.07 604.05 623.11 604.28 623.27 604.40"
/>
<path stroke="#526221" vector-effect="non-scaling-stroke" d="
  M 623.17 624.70
  L 615.67 623.15
  C 615.31 623.07 614.95 623.31 614.87 623.68
  Q 610.95 641.85 612.40 659.81
  C 612.42 660.12 612.66 660.35 612.94 660.33
  L 620.95 659.78
  C 621.22 659.76 621.42 659.49 621.40 659.18
  Q 619.99 642.27 623.77 625.65
  C 623.87 625.22 623.60 624.79 623.17 624.70"
/>
<path stroke="#526221" vector-effect="non-scaling-stroke" d="
  M 598.89 709.68
  L 605.54 714.13
  C 605.78 714.29 606.10 714.22 606.27 713.98
  Q 617.02 698.35 620.74 680.29
  C 620.82 679.89 620.58 679.49 620.18 679.40
  L 612.72 677.61
  C 612.45 677.54 612.17 677.72 612.11 678.00
  Q 608.46 695.11 598.76 708.98
  C 598.60 709.21 598.66 709.53 598.89 709.68"
/>
<path stroke="#526221" vector-effect="non-scaling-stroke" d="
  M 592.53 728.90
  L 587.38 723.08
  C 587.20 722.87 586.86 722.87 586.61 723.08
  Q 573.56 734.11 558.26 742.48
  C 558.00 742.62 557.91 742.95 558.05 743.22
  L 561.79 750.15
  C 561.96 750.45 562.33 750.57 562.62 750.41
  Q 578.92 741.83 592.44 729.65
  C 592.67 729.44 592.71 729.10 592.53 728.90"
/>
<path stroke="#526221" vector-effect="non-scaling-stroke" d="
  M 509.44 768.91
  Q 526.84 764.52 543.77 758.91
  C 544.29 758.74 544.57 758.18 544.39 757.67
  L 541.79 750.37
  C 541.69 750.08 541.35 749.93 541.05 750.04
  Q 524.61 756.24 507.56 759.84
  C 507.26 759.91 507.07 760.20 507.14 760.50
  L 509.06 768.68
  C 509.10 768.85 509.27 768.95 509.44 768.91"
/>
<path stroke="#526221" vector-effect="non-scaling-stroke" d="
  M 489.4818 763.9449
  C 489.46 763.76 489.29 763.62 489.1065 763.6442
  L 453.3637 767.5903
  C 453.18 767.61 453.04 767.78 453.0630 767.9655
  L 453.9782 776.2551
  C 454.00 776.44 454.17 776.58 454.3535 776.5558
  L 490.0963 772.6097
  C 490.28 772.59 490.42 772.42 490.3970 772.2345
  L 489.4818 763.9449"
/>
<path stroke="#526221" vector-effect="non-scaling-stroke" d="
  M 435.05 768.97
  C 435.05 768.70 434.83 768.48 434.56 768.48
  L 398.80 768.48
  C 398.53 768.48 398.31 768.70 398.31 768.97
  L 398.31 777.11
  C 398.31 777.38 398.53 777.60 398.80 777.60
  L 434.56 777.60
  C 434.83 777.60 435.05 777.38 435.05 777.11
  L 435.05 768.97"
/>
<path stroke="#526221" vector-effect="non-scaling-stroke" d="
  M 379.6235 769.2437
  C 379.61 768.98 379.39 768.79 379.1265 768.8024
  L 343.5891 770.9137
  C 343.33 770.93 343.13 771.15 343.1478 771.4108
  L 343.6365 779.6363
  C 343.65 779.90 343.87 780.09 344.1335 780.0776
  L 379.6709 777.9663
  C 379.93 777.95 380.13 777.73 380.1122 777.4692
  L 379.6235 769.2437"
/>
<path stroke="#526221" vector-effect="non-scaling-stroke" d="
  M 324.4348 773.3695
  C 324.40 773.10 324.15 772.90 323.8716 772.9420
  L 288.5415 777.7816
  C 288.27 777.82 288.08 778.07 288.1140 778.3449
  L 289.2052 786.3105
  C 289.24 786.58 289.49 786.78 289.7684 786.7380
  L 325.0985 781.8984
  C 325.37 781.86 325.56 781.61 325.5260 781.3351
  L 324.4348 773.3695"
/>
<path stroke="#526221" vector-effect="non-scaling-stroke" d="
  M 257.06 794.31
  Q 263.45 792.75 270.89 790.78
  C 271.28 790.67 271.50 790.27 271.41 789.87
  L 269.64 782.30
  C 269.57 782.01 269.29 781.82 269.01 781.88
  Q 251.45 785.93 234.56 791.82
  C 234.23 791.93 234.05 792.27 234.16 792.59
  L 236.63 799.97
  C 236.71 800.23 237.01 800.37 237.29 800.28
  Q 250.79 795.85 257.06 794.31"
/>
<path stroke="#526221" vector-effect="non-scaling-stroke" d="
  M 219.83 806.73
  L 216.19 799.75
  C 216.06 799.50 215.75 799.40 215.49 799.52
  Q 199.32 807.12 185.75 819.84
  C 185.33 820.24 185.31 820.91 185.71 821.34
  L 190.73 826.81
  C 190.92 827.01 191.24 827.03 191.44 826.84
  Q 204.00 815.20 219.50 807.66
  C 219.86 807.48 220.01 807.06 219.83 806.73"
/>
<path stroke="#526221" vector-effect="non-scaling-stroke" d="
  M 169.78 860.73
  Q 174.32 861.81 177.47 860.84
  C 177.75 860.76 177.95 860.49 177.96 860.18
  Q 178.37 850.34 181.53 841.03
  C 181.62 840.75 181.49 840.45 181.23 840.36
  L 173.67 837.80
  C 173.41 837.71 173.12 837.87 173.02 838.15
  Q 169.36 848.14 168.97 859.66
  C 168.95 860.17 169.29 860.61 169.78 860.73"
/>
<path stroke="#6fa52c" vector-effect="non-scaling-stroke" d="
  M 3.31 861.57
  Q 76.41 861.89 149.50 861.79
  Q 151.79 861.79 150.84 861.57
  Q 150.55 861.50 150.16 861.50
  Q 76.74 861.45 3.32 861.56
  Q 2.81 861.56 3.31 861.57"
/>
</g>
<path fill="#e33924" d="
  M 504.50 419.21
  Q 504.05 419.57 503.19 421.19
  Q 478.64 467.34 454.50 513.71
  L 438.39 544.03
  Q 437.69 545.35 436.98 544.02
  L 421.00 513.96
  Q 396.88 467.46 372.31 421.19
  Q 371.45 419.57 371.00 419.21
  Q 371.14 418.61 370.81 418.18
  Q 370.45 417.71 370.40 417.63
  Q 326.57 334.14 282.44 250.81
  Q 280.31 246.79 277.94 239.27
  Q 269.35 211.95 268.73 183.49
  Q 268.50 173.43 269.71 163.54
  Q 276.14 110.59 310.44 69.94
  Q 328.93 48.02 355.04 33.03
  Q 386.47 15.01 422.43 12.34
  Q 427.01 12.00 434.58 12.00
  Q 438.63 12.00 442.68 12.00
  Q 447.52 12.00 450.81 12.20
  Q 486.39 14.35 515.94 30.56
  Q 566.20 58.14 590.18 110.25
  Q 605.20 142.92 606.50 180.50
  Q 606.84 190.47 606.14 196.77
  Q 603.65 219.05 597.69 238.19
  Q 594.71 247.74 589.15 258.05
  Q 586.33 263.26 586.28 263.36
  Q 545.59 340.71 504.70 417.97
  Q 504.39 418.55 504.50 419.21
  Z
  M 529.41 165.45
  C 529.41 114.81 488.36 73.76 437.72 73.76
  C 387.08 73.76 346.03 114.81 346.03 165.45
  C 346.03 216.09 387.08 257.14 437.72 257.14
  C 488.36 257.14 529.41 216.09 529.41 165.45
  Z"
/>
<circle fill="#ffffff" cx="437.72" cy="165.45" r="91.69"/>
<path fill="#6fa52c" d="
  M 371.00 419.21
  Q 371.45 419.57 372.31 421.19
  Q 396.88 467.46 421.00 513.96
  Q 410.49 514.86 398.81 517.81
  Q 386.48 520.94 376.32 527.07
  Q 369.46 531.20 365.69 536.94
  Q 362.06 542.45 363.54 549.50
  Q 362.17 556.85 366.06 562.19
  Q 370.79 568.68 379.22 572.99
  Q 384.77 575.84 390.61 578.01
  Q 395.97 580.00 402.54 581.44
  Q 434.33 588.40 467.00 583.00
  Q 475.39 581.61 483.15 579.11
  Q 492.75 576.02 498.26 573.03
  Q 505.91 568.88 510.94 562.44
  Q 516.25 555.63 512.71 546.75
  Q 512.55 539.77 508.69 535.06
  Q 503.40 528.61 494.74 524.52
  Q 491.97 523.21 489.21 521.89
  Q 486.26 520.48 483.50 519.66
  Q 469.27 515.45 454.50 513.71
  Q 478.64 467.34 503.19 421.19
  Q 504.05 419.57 504.50 419.21
  L 688.44 419.25
  C 688.83 419.25 689.18 419.48 689.33 419.84
  L 873.87 861.38
  C 874.00 861.70 873.76 862.06 873.41 862.06
  Q 522.20 861.82 171.93 862.18
  Q 162.30 862.19 151.94 862.15
  Q 77.52 861.87 2.11 862.00
  C 1.70 862.00 1.42 861.59 1.58 861.21
  L 186.05 419.91
  C 186.22 419.51 186.61 419.25 187.05 419.25
  L 371.00 419.21
  Z
  M 735.93 568.24
  Q 740.19 568.44 744.45 568.66
  C 744.73 568.68 744.99 568.49 745.06 568.21
  Q 746.02 564.39 745.84 560.44
  C 745.83 560.15 745.61 559.91 745.31 559.87
  Q 734.82 558.48 723.82 559.02
  C 723.36 559.04 723.00 559.42 723.00 559.88
  L 723.00 567.34
  C 723.00 567.71 723.30 568.01 723.67 568.00
  Q 729.97 567.95 735.93 568.24
  Z
  M 671.03 577.33
  Q 687.49 571.72 704.69 569.26
  C 704.98 569.22 705.18 568.97 705.14 568.70
  L 703.92 560.93
  C 703.88 560.65 703.60 560.47 703.31 560.51
  Q 685.40 562.90 668.29 568.65
  C 668.01 568.74 667.85 569.03 667.94 569.30
  L 670.43 577.05
  C 670.51 577.29 670.78 577.41 671.03 577.33
  Z
  M 623.27 604.40
  L 630.06 609.01
  C 630.29 609.16 630.61 609.08 630.77 608.83
  Q 640.00 594.51 654.32 585.27
  C 654.58 585.11 654.66 584.78 654.51 584.56
  L 650.03 578.09
  C 649.87 577.86 649.54 577.81 649.28 577.97
  Q 633.12 588.25 623.19 603.87
  C 623.07 604.05 623.11 604.28 623.27 604.40
  Z
  M 623.17 624.70
  L 615.67 623.15
  C 615.31 623.07 614.95 623.31 614.87 623.68
  Q 610.95 641.85 612.40 659.81
  C 612.42 660.12 612.66 660.35 612.94 660.33
  L 620.95 659.78
  C 621.22 659.76 621.42 659.49 621.40 659.18
  Q 619.99 642.27 623.77 625.65
  C 623.87 625.22 623.60 624.79 623.17 624.70
  Z
  M 598.89 709.68
  L 605.54 714.13
  C 605.78 714.29 606.10 714.22 606.27 713.98
  Q 617.02 698.35 620.74 680.29
  C 620.82 679.89 620.58 679.49 620.18 679.40
  L 612.72 677.61
  C 612.45 677.54 612.17 677.72 612.11 678.00
  Q 608.46 695.11 598.76 708.98
  C 598.60 709.21 598.66 709.53 598.89 709.68
  Z
  M 592.53 728.90
  L 587.38 723.08
  C 587.20 722.87 586.86 722.87 586.61 723.08
  Q 573.56 734.11 558.26 742.48
  C 558.00 742.62 557.91 742.95 558.05 743.22
  L 561.79 750.15
  C 561.96 750.45 562.33 750.57 562.62 750.41
  Q 578.92 741.83 592.44 729.65
  C 592.67 729.44 592.71 729.10 592.53 728.90
  Z
  M 509.44 768.91
  Q 526.84 764.52 543.77 758.91
  C 544.29 758.74 544.57 758.18 544.39 757.67
  L 541.79 750.37
  C 541.69 750.08 541.35 749.93 541.05 750.04
  Q 524.61 756.24 507.56 759.84
  C 507.26 759.91 507.07 760.20 507.14 760.50
  L 509.06 768.68
  C 509.10 768.85 509.27 768.95 509.44 768.91
  Z
  M 489.4818 763.9449
  C 489.46 763.76 489.29 763.62 489.1065 763.6442
  L 453.3637 767.5903
  C 453.18 767.61 453.04 767.78 453.0630 767.9655
  L 453.9782 776.2551
  C 454.00 776.44 454.17 776.58 454.3535 776.5558
  L 490.0963 772.6097
  C 490.28 772.59 490.42 772.42 490.3970 772.2345
  L 489.4818 763.9449
  Z
  M 435.05 768.97
  C 435.05 768.70 434.83 768.48 434.56 768.48
  L 398.80 768.48
  C 398.53 768.48 398.31 768.70 398.31 768.97
  L 398.31 777.11
  C 398.31 777.38 398.53 777.60 398.80 777.60
  L 434.56 777.60
  C 434.83 777.60 435.05 777.38 435.05 777.11
  L 435.05 768.97
  Z
  M 379.6235 769.2437
  C 379.61 768.98 379.39 768.79 379.1265 768.8024
  L 343.5891 770.9137
  C 343.33 770.93 343.13 771.15 343.1478 771.4108
  L 343.6365 779.6363
  C 343.65 779.90 343.87 780.09 344.1335 780.0776
  L 379.6709 777.9663
  C 379.93 777.95 380.13 777.73 380.1122 777.4692
  L 379.6235 769.2437
  Z
  M 324.4348 773.3695
  C 324.40 773.10 324.15 772.90 323.8716 772.9420
  L 288.5415 777.7816
  C 288.27 777.82 288.08 778.07 288.1140 778.3449
  L 289.2052 786.3105
  C 289.24 786.58 289.49 786.78 289.7684 786.7380
  L 325.0985 781.8984
  C 325.37 781.86 325.56 781.61 325.5260 781.3351
  L 324.4348 773.3695
  Z
  M 257.06 794.31
  Q 263.45 792.75 270.89 790.78
  C 271.28 790.67 271.50 790.27 271.41 789.87
  L 269.64 782.30
  C 269.57 782.01 269.29 781.82 269.01 781.88
  Q 251.45 785.93 234.56 791.82
  C 234.23 791.93 234.05 792.27 234.16 792.59
  L 236.63 799.97
  C 236.71 800.23 237.01 800.37 237.29 800.28
  Q 250.79 795.85 257.06 794.31
  Z
  M 219.83 806.73
  L 216.19 799.75
  C 216.06 799.50 215.75 799.40 215.49 799.52
  Q 199.32 807.12 185.75 819.84
  C 185.33 820.24 185.31 820.91 185.71 821.34
  L 190.73 826.81
  C 190.92 827.01 191.24 827.03 191.44 826.84
  Q 204.00 815.20 219.50 807.66
  C 219.86 807.48 220.01 807.06 219.83 806.73
  Z
  M 169.78 860.73
  Q 174.32 861.81 177.47 860.84
  C 177.75 860.76 177.95 860.49 177.96 860.18
  Q 178.37 850.34 181.53 841.03
  C 181.62 840.75 181.49 840.45 181.23 840.36
  L 173.67 837.80
  C 173.41 837.71 173.12 837.87 173.02 838.15
  Q 169.36 848.14 168.97 859.66
  C 168.95 860.17 169.29 860.61 169.78 860.73
  Z
  M 3.31 861.57
  Q 76.41 861.89 149.50 861.79
  Q 151.79 861.79 150.84 861.57
  Q 150.55 861.50 150.16 861.50
  Q 76.74 861.45 3.32 861.56
  Q 2.81 861.56 3.31 861.57
  Z"
/>
<path fill="#fbd14e" d="
  M 454.50 513.71
  Q 469.27 515.45 483.50 519.66
  Q 486.26 520.48 489.21 521.89
  Q 491.97 523.21 494.74 524.52
  Q 503.40 528.61 508.69 535.06
  Q 512.55 539.77 512.71 546.75
  Q 510.63 554.97 504.19 559.94
  Q 493.63 568.08 480.23 571.68
  Q 442.89 581.74 404.90 574.25
  Q 394.08 572.11 381.19 566.06
  Q 368.99 560.34 363.54 549.50
  Q 362.06 542.45 365.69 536.94
  Q 369.46 531.20 376.32 527.07
  Q 386.48 520.94 398.81 517.81
  Q 410.49 514.86 421.00 513.96
  L 436.98 544.02
  Q 437.69 545.35 438.39 544.03
  L 454.50 513.71
  Z"
/>
<path fill="#f8a62b" d="
  M 512.71 546.75
  Q 516.25 555.63 510.94 562.44
  Q 505.91 568.88 498.26 573.03
  Q 492.75 576.02 483.15 579.11
  Q 475.39 581.61 467.00 583.00
  Q 434.33 588.40 402.54 581.44
  Q 395.97 580.00 390.61 578.01
  Q 384.77 575.84 379.22 572.99
  Q 370.79 568.68 366.06 562.19
  Q 362.17 556.85 363.54 549.50
  Q 368.99 560.34 381.19 566.06
  Q 394.08 572.11 404.90 574.25
  Q 442.89 581.74 480.23 571.68
  Q 493.63 568.08 504.19 559.94
  Q 510.63 554.97 512.71 546.75
  Z"
/>
<path fill="#351f16" d="
  M 735.93 568.24
  Q 729.97 567.95 723.67 568.00
  C 723.30 568.01 723.00 567.71 723.00 567.34
  L 723.00 559.88
  C 723.00 559.42 723.36 559.04 723.82 559.02
  Q 734.82 558.48 745.31 559.87
  C 745.61 559.91 745.83 560.15 745.84 560.44
  Q 746.02 564.39 745.06 568.21
  C 744.99 568.49 744.73 568.68 744.45 568.66
  Q 740.19 568.44 735.93 568.24
  Z"
/>
<path fill="#351f16" d="
  M 671.03 577.33
  C 670.78 577.41 670.51 577.29 670.43 577.05
  L 667.94 569.30
  C 667.85 569.03 668.01 568.74 668.29 568.65
  Q 685.40 562.90 703.31 560.51
  C 703.60 560.47 703.88 560.65 703.92 560.93
  L 705.14 568.70
  C 705.18 568.97 704.98 569.22 704.69 569.26
  Q 687.49 571.72 671.03 577.33
  Z"
/>
<path fill="#351f16" d="
  M 623.27 604.40
  C 623.11 604.28 623.07 604.05 623.19 603.87
  Q 633.12 588.25 649.28 577.97
  C 649.54 577.81 649.87 577.86 650.03 578.09
  L 654.51 584.56
  C 654.66 584.78 654.58 585.11 654.32 585.27
  Q 640.00 594.51 630.77 608.83
  C 630.61 609.08 630.29 609.16 630.06 609.01
  L 623.27 604.40
  Z"
/>
<path fill="#351f16" d="
  M 623.17 624.70
  C 623.60 624.79 623.87 625.22 623.77 625.65
  Q 619.99 642.27 621.40 659.18
  C 621.42 659.49 621.22 659.76 620.95 659.78
  L 612.94 660.33
  C 612.66 660.35 612.42 660.12 612.40 659.81
  Q 610.95 641.85 614.87 623.68
  C 614.95 623.31 615.31 623.07 615.67 623.15
  L 623.17 624.70
  Z"
/>
<path fill="#351f16" d="
  M 598.89 709.68
  C 598.66 709.53 598.60 709.21 598.76 708.98
  Q 608.46 695.11 612.11 678.00
  C 612.17 677.72 612.45 677.54 612.72 677.61
  L 620.18 679.40
  C 620.58 679.49 620.82 679.89 620.74 680.29
  Q 617.02 698.35 606.27 713.98
  C 606.10 714.22 605.78 714.29 605.54 714.13
  L 598.89 709.68
  Z"
/>
<path fill="#351f16" d="
  M 592.44 729.65
  Q 578.92 741.83 562.62 750.41
  C 562.33 750.57 561.96 750.45 561.79 750.15
  L 558.05 743.22
  C 557.91 742.95 558.00 742.62 558.26 742.48
  Q 573.56 734.11 586.61 723.08
  C 586.86 722.87 587.20 722.87 587.38 723.08
  L 592.53 728.90
  C 592.71 729.10 592.67 729.44 592.44 729.65
  Z"
/>
<path fill="#351f16" d="
  M 509.44 768.91
  C 509.27 768.95 509.10 768.85 509.06 768.68
  L 507.14 760.50
  C 507.07 760.20 507.26 759.91 507.56 759.84
  Q 524.61 756.24 541.05 750.04
  C 541.35 749.93 541.69 750.08 541.79 750.37
  L 544.39 757.67
  C 544.57 758.18 544.29 758.74 543.77 758.91
  Q 526.84 764.52 509.44 768.91
  Z"
/>
<rect fill="#351f16" x="-18.32" y="-4.51" transform="translate(471.73,770.10) rotate(-6.3)" width="36.64" height="9.02" rx="0.34"/>
<rect fill="#351f16" x="398.31" y="768.48" width="36.74" height="9.12" rx="0.49"/>
<rect fill="#351f16" x="-18.27" y="-4.59" transform="translate(361.63,774.44) rotate(-3.4)" width="36.54" height="9.18" rx="0.47"/>
<rect fill="#351f16" x="-18.33" y="-4.52" transform="translate(306.82,779.84) rotate(-7.8)" width="36.66" height="9.04" rx="0.50"/>
<path fill="#351f16" d="
  M 257.06 794.31
  Q 250.79 795.85 237.29 800.28
  C 237.01 800.37 236.71 800.23 236.63 799.97
  L 234.16 792.59
  C 234.05 792.27 234.23 791.93 234.56 791.82
  Q 251.45 785.93 269.01 781.88
  C 269.29 781.82 269.57 782.01 269.64 782.30
  L 271.41 789.87
  C 271.50 790.27 271.28 790.67 270.89 790.78
  Q 263.45 792.75 257.06 794.31
  Z"
/>
<path fill="#351f16" d="
  M 219.83 806.73
  C 220.01 807.06 219.86 807.48 219.50 807.66
  Q 204.00 815.20 191.44 826.84
  C 191.24 827.03 190.92 827.01 190.73 826.81
  L 185.71 821.34
  C 185.31 820.91 185.33 820.24 185.75 819.84
  Q 199.32 807.12 215.49 799.52
  C 215.75 799.40 216.06 799.50 216.19 799.75
  L 219.83 806.73
  Z"
/>
<path fill="#351f16" d="
  M 169.78 860.73
  C 169.29 860.61 168.95 860.17 168.97 859.66
  Q 169.36 848.14 173.02 838.15
  C 173.12 837.87 173.41 837.71 173.67 837.80
  L 181.23 840.36
  C 181.49 840.45 181.62 840.75 181.53 841.03
  Q 178.37 850.34 177.96 860.18
  C 177.95 860.49 177.75 860.76 177.47 860.84
  Q 174.32 861.81 169.78 860.73
  Z"
/>
<path fill="#6fa52c" d="
  M 3.32 861.56
  Q 76.74 861.45 150.16 861.50
  Q 150.55 861.50 150.84 861.57
  Q 151.79 861.79 149.50 861.79
  Q 76.41 861.89 3.31 861.57
  Q 2.81 861.56 3.32 861.56
  Z"
/>
</svg>
