<?xml version="1.0" encoding="UTF-8" standalone="no"?>
<!DOCTYPE svg PUBLIC "-//W3C//DTD SVG 1.1//EN" "http://www.w3.org/Graphics/SVG/1.1/DTD/svg11.dtd">
<svg xmlns="http://www.w3.org/2000/svg" version="1.1" viewBox="0 0 512 512">
<g stroke-width="2.1" fill="none" stroke-linecap="butt">
<path stroke="#d0b9a4" vector-effect="non-scaling-stroke" d="
  M 333.00 95.96
  L 332.75 130.04"
/>
<path stroke="#e4bb7a" vector-effect="non-scaling-stroke" d="
  M 332.71 239.75
  Q 316.23 240.40 299.75 239.71"
/>
<path stroke="#b8845c" vector-effect="non-scaling-stroke" d="
  M 299.75 239.71
  Q 301.63 237.75 301.75 236.00
  Q 302.17 229.86 302.14 215.25
  Q 302.00 126.00 301.96 36.75
  Q 301.96 33.58 299.88 32.02
  Q 298.52 31.01 295.37 30.96
  Q 281.31 30.75 267.25 31.04"
/>
<path stroke="#c28b60" vector-effect="non-scaling-stroke" d="
  M 267.25 31.04
  Q 233.37 30.97 199.50 31.04
  Q 193.75 31.06 193.75 37.00
  Q 193.75 67.35 193.75 97.71"
/>
<path stroke="#cbb49f" vector-effect="non-scaling-stroke" d="
  M 193.75 97.71
  Q 186.01 97.78 178.26 97.75
  Q 178.15 97.75 176.78 97.54
  Q 175.84 97.39 175.00 97.96"
/>
<path stroke="#dac3af" vector-effect="non-scaling-stroke" d="
  M 175.00 97.96
  L 163.00 97.71"
/>
<path stroke="#b8845c" vector-effect="non-scaling-stroke" d="
  M 163.00 97.71
  Q 163.17 67.48 162.78 37.26
  Q 162.74 34.60 162.10 33.36
  Q 160.98 31.16 158.50 31.00
  Q 148.38 30.34 128.25 31.04"
/>
<path stroke="#c28b60" vector-effect="non-scaling-stroke" d="
  M 128.25 31.04
  Q 97.12 30.97 66.00 31.00
  Q 59.07 31.00 59.02 31.01
  Q 54.48 31.86 54.49 37.75
  Q 54.50 134.25 54.40 230.75
  Q 54.40 235.40 54.81 236.44
  Q 56.19 239.88 59.06 239.94
  Q 70.54 240.16 128.25 239.96"
/>
<path stroke="#b8845c" vector-effect="non-scaling-stroke" d="
  M 128.25 239.96
  Q 142.90 240.19 157.54 239.80
  Q 159.77 239.74 160.84 239.15
  Q 162.71 238.12 162.75 236.00
  Q 163.27 205.86 163.00 129.17
  C 163.00 129.11 162.94 129.03 162.84 128.96
  Q 162.76 128.91 162.75 128.79"
/>
<path stroke="#dac3af" vector-effect="non-scaling-stroke" d="
  M 162.75 128.79
  L 176.00 128.71"
/>
<path stroke="#cbb49f" vector-effect="non-scaling-stroke" d="
  M 176.00 128.71
  L 193.50 129.04"
/>
<path stroke="#c28b60" vector-effect="non-scaling-stroke" d="
  M 193.50 129.04
  Q 193.31 129.47 193.44 129.88
  Q 193.69 130.61 193.69 130.81
  Q 193.80 180.98 193.75 231.15
  Q 193.75 235.26 193.76 235.36
  Q 194.09 237.90 196.11 239.10
  Q 197.62 240.00 201.56 240.00
  Q 226.78 240.00 252.00 239.97
  Q 253.68 239.96 255.25 240.54"
/>
<path stroke="#e4bb7a" vector-effect="non-scaling-stroke" d="
  M 255.25 240.54
  Q 239.21 246.54 240.03 264.00
  Q 240.19 267.37 239.75 270.71"
/>
<path stroke="#c28b60" vector-effect="non-scaling-stroke" d="
  M 239.75 270.71
  Q 208.08 271.53 201.00 271.00
  Q 196.58 270.67 194.79 273.28
  Q 193.75 274.79 193.75 278.94
  Q 193.75 378.59 193.75 478.25
  Q 193.75 480.86 195.86 482.19
  Q 197.15 482.99 199.82 483.03
  Q 233.78 483.43 267.75 483.21"
/>
<path stroke="#b8845c" vector-effect="non-scaling-stroke" d="
  M 267.75 483.21
  Q 281.88 483.28 296.00 483.15
  Q 302.00 483.10 302.00 477.50
  Q 302.00 386.68 302.00 295.85
  Q 302.00 295.75 301.83 294.68
  Q 301.71 293.92 302.21 293.25"
/>
<path stroke="#e4bb7a" vector-effect="non-scaling-stroke" d="
  M 302.21 293.25
  Q 302.25 293.54 302.41 293.71
  Q 302.92 294.25 302.97 294.38
  Q 305.66 301.54 312.06 303.87
  Q 317.49 305.84 322.81 303.86
  Q 328.38 301.79 331.23 295.88
  Q 331.40 295.53 331.37 294.94
  Q 331.31 293.65 332.71 293.75"
/>
<path stroke="#d0b9a4" vector-effect="non-scaling-stroke" d="
  M 333.00 382.21
  L 332.78 382.24
  C 332.65 382.26 332.56 382.39 332.57 382.54
  Q 332.88 398.40 332.75 414.26
  Q 332.75 414.33 332.58 415.21
  Q 332.44 415.89 333.25 416.21"
/>
<path stroke="#b8845c" vector-effect="non-scaling-stroke" d="
  M 128.00 483.21
  Q 151.72 483.33 156.50 483.25
  Q 161.95 483.16 162.88 478.86
  Q 163.00 478.32 163.00 472.13
  Q 163.00 377.19 162.92 282.25
  Q 162.92 279.50 162.93 276.75
  Q 162.95 273.43 160.73 271.93
  Q 159.37 271.02 156.07 270.92
  Q 142.66 270.52 129.25 271.04"
/>
<path stroke="#c28b60" vector-effect="non-scaling-stroke" d="
  M 129.25 271.04
  Q 124.65 270.70 120.05 270.81
  Q 111.51 271.00 111.45 271.00
  Q 86.48 270.99 61.52 271.00
  Q 58.82 271.00 57.57 271.55
  Q 55.32 272.53 54.82 274.84
  Q 54.78 274.99 54.59 280.16
  Q 54.50 282.36 54.50 285.50
  Q 54.45 379.47 54.56 473.43
  Q 54.57 478.39 54.89 479.42
  Q 55.99 482.95 60.75 483.00
  Q 101.96 483.41 128.00 483.21"
/>
<path stroke="#ad7147" vector-effect="non-scaling-stroke" d="
  M 129.25 271.04
  Q 129.00 272.07 129.94 272.31
  Q 131.74 272.78 131.75 275.00
  Q 132.37 376.50 131.72 478.00
  Q 131.71 480.46 129.89 481.95
  Q 129.67 482.13 129.00 482.30
  Q 128.30 482.47 128.00 483.21"
/>
<path stroke="#ad7147" vector-effect="non-scaling-stroke" d="
  M 128.25 31.04
  Q 132.09 32.97 131.89 37.04
  Q 131.77 39.39 131.78 39.46
  Q 132.23 61.98 131.92 84.50
  Q 131.76 96.84 131.77 104.51
  Q 131.92 165.75 132.06 227.00
  Q 132.06 228.04 131.80 229.86
  Q 131.55 231.55 131.75 232.75
  Q 132.59 237.82 128.25 239.96"
/>
<path stroke="#c6a996" vector-effect="non-scaling-stroke" d="
  M 163.00 97.71
  Q 158.00 97.76 153.02 97.93
  Q 150.84 98.01 149.64 98.72
  Q 147.70 99.85 147.50 101.75
  Q 146.99 106.71 147.25 122.50
  Q 147.31 126.01 149.45 127.66
  Q 150.86 128.75 154.32 128.74
  Q 158.53 128.74 162.75 128.79"
/>
<path stroke="#d0a161" vector-effect="non-scaling-stroke" d="
  M 299.75 239.71
  L 267.50 239.96"
/>
<path stroke="#ad7147" vector-effect="non-scaling-stroke" d="
  M 267.50 239.96
  Q 267.60 239.07 268.50 239.00
  Q 270.16 238.88 270.50 237.00
  Q 271.17 233.28 271.16 229.50
  Q 271.00 134.83 271.00 40.15
  Q 271.00 40.08 271.13 37.85
  Q 271.39 33.24 267.25 31.04"
/>
<path stroke="#daa865" vector-effect="non-scaling-stroke" d="
  M 267.50 239.96
  Q 261.34 239.74 255.25 240.54"
/>
<path stroke="#c0a08a" vector-effect="non-scaling-stroke" d="
  M 193.50 129.04
  Q 200.76 128.92 202.25 129.00
  Q 209.48 129.39 209.38 122.25
  Q 209.25 113.00 209.16 103.75
  Q 209.10 97.45 202.75 97.75
  Q 201.09 97.83 193.75 97.71"
/>
<path stroke="#d9d9d9" vector-effect="non-scaling-stroke" d="
  M 176.00 128.71
  Q 178.59 124.91 178.37 120.36
  Q 178.25 117.71 178.25 117.63
  Q 178.25 111.06 178.25 104.50
  Q 178.25 100.13 175.00 97.96"
/>
<path stroke="#dec795" vector-effect="non-scaling-stroke" d="
  M 434.75 317.04
  L 420.09 317.02
  C 419.83 317.02 419.62 317.10 419.51 317.23
  L 419.29 317.50"
/>
<path stroke="#f2ca6a" vector-effect="non-scaling-stroke" d="
  M 413.50 315.79
  Q 413.83 315.47 413.97 315.06
  C 414.08 314.73 414.29 314.49 414.54 314.40
  Q 447.00 303.02 456.06 268.81
  Q 457.03 265.17 456.54 263.25"
/>
<path stroke="#f2ca6a" vector-effect="non-scaling-stroke" d="
  M 456.46 248.50
  Q 457.23 248.11 457.00 247.00
  Q 449.22 210.19 414.79 197.61
  C 414.56 197.53 414.34 197.29 414.19 196.96
  Q 413.89 196.33 413.00 196.29"
/>
<path stroke="#d0a161" vector-effect="non-scaling-stroke" d="
  M 302.21 293.25
  Q 301.54 286.02 301.86 278.75
  Q 302.00 275.57 301.25 272.50
  C 301.08 271.82 300.79 271.32 300.56 271.31
  L 271.55 271.01
  C 271.25 271.01 271.00 271.26 271.00 271.57
  Q 271.00 290.88 271.00 310.25
  Q 271.00 311.35 270.81 312.74
  Q 270.63 313.99 270.54 315.25"
/>
<path stroke="#daa865" vector-effect="non-scaling-stroke" d="
  M 270.54 315.25
  Q 267.81 322.77 261.00 325.42
  Q 257.00 326.98 252.88 326.22
  Q 248.51 325.43 245.25 322.44
  Q 242.53 319.94 241.21 316.38
  Q 239.94 312.95 240.00 309.00
  Q 240.24 292.16 239.75 270.71"
/>
<path stroke="#ad7147" vector-effect="non-scaling-stroke" d="
  M 270.54 315.25
  L 270.76 315.38
  C 270.87 315.44 270.94 315.61 270.94 315.82
  Q 271.05 395.91 271.00 476.00
  Q 271.00 480.70 267.75 483.21"
/>
<path stroke="#dcae8f" vector-effect="non-scaling-stroke" d="
  M 434.79 352.75
  Q 434.08 353.18 431.75 353.25
  Q 425.49 353.45 419.25 352.96"
/>
<path stroke="#ee9a5f" vector-effect="non-scaling-stroke" d="
  M 413.75 453.29
  Q 414.91 453.51 415.37 452.77
  C 415.57 452.45 415.80 452.23 416.03 452.14
  Q 426.53 448.16 426.50 436.00
  Q 426.49 431.32 426.00 429.54"
/>
<path stroke="#f2c4a5" vector-effect="non-scaling-stroke" d="
  M 426.00 429.54
  Q 430.71 429.65 433.07 426.51
  Q 434.49 424.64 434.57 420.64
  Q 434.87 405.67 434.79 390.70
  Q 434.74 382.98 434.44 381.84
  Q 433.03 376.55 426.25 375.96"
/>
<path stroke="#ee9a5f" vector-effect="non-scaling-stroke" d="
  M 426.25 375.96
  Q 426.86 371.48 426.25 367.00
  Q 425.12 358.73 417.69 355.06
  Q 415.99 354.22 415.50 353.29"
/>
<path stroke="#fbd5ba" vector-effect="non-scaling-stroke" d="
  M 426.25 375.96
  Q 419.31 377.56 419.29 384.75
  Q 419.25 401.13 419.00 417.50
  Q 418.93 422.11 419.75 424.50
  Q 421.12 428.51 426.00 429.54"
/>
</g>
<path fill="#cc9e75" d="
  M 42.81 0.00
  Q 178.44 0.00 314.06 0.00
  Q 332.95 3.70 332.81 23.25
  Q 332.56 59.61 333.00 95.96
  L 332.75 130.04
  L 332.71 239.75
  Q 316.23 240.40 299.75 239.71
  Q 301.63 237.75 301.75 236.00
  Q 302.17 229.86 302.14 215.25
  Q 302.00 126.00 301.96 36.75
  Q 301.96 33.58 299.88 32.02
  Q 298.52 31.01 295.37 30.96
  Q 281.31 30.75 267.25 31.04
  Q 233.37 30.97 199.50 31.04
  Q 193.75 31.06 193.75 37.00
  Q 193.75 67.35 193.75 97.71
  Q 186.01 97.78 178.26 97.75
  Q 178.15 97.75 176.78 97.54
  Q 175.84 97.39 175.00 97.96
  L 163.00 97.71
  Q 163.17 67.48 162.78 37.26
  Q 162.74 34.60 162.10 33.36
  Q 160.98 31.16 158.50 31.00
  Q 148.38 30.34 128.25 31.04
  Q 97.12 30.97 66.00 31.00
  Q 59.07 31.00 59.02 31.01
  Q 54.48 31.86 54.49 37.75
  Q 54.50 134.25 54.40 230.75
  Q 54.40 235.40 54.81 236.44
  Q 56.19 239.88 59.06 239.94
  Q 70.54 240.16 128.25 239.96
  Q 142.90 240.19 157.54 239.80
  Q 159.77 239.74 160.84 239.15
  Q 162.71 238.12 162.75 236.00
  Q 163.27 205.86 163.00 129.17
  C 163.00 129.11 162.94 129.03 162.84 128.96
  Q 162.76 128.91 162.75 128.79
  L 176.00 128.71
  L 193.50 129.04
  Q 193.31 129.47 193.44 129.88
  Q 193.69 130.61 193.69 130.81
  Q 193.80 180.98 193.75 231.15
  Q 193.75 235.26 193.76 235.36
  Q 194.09 237.90 196.11 239.10
  Q 197.62 240.00 201.56 240.00
  Q 226.78 240.00 252.00 239.97
  Q 253.68 239.96 255.25 240.54
  Q 239.21 246.54 240.03 264.00
  Q 240.19 267.37 239.75 270.71
  Q 208.08 271.53 201.00 271.00
  Q 196.58 270.67 194.79 273.28
  Q 193.75 274.79 193.75 278.94
  Q 193.75 378.59 193.75 478.25
  Q 193.75 480.86 195.86 482.19
  Q 197.15 482.99 199.82 483.03
  Q 233.78 483.43 267.75 483.21
  Q 281.88 483.28 296.00 483.15
  Q 302.00 483.10 302.00 477.50
  Q 302.00 386.68 302.00 295.85
  Q 302.00 295.75 301.83 294.68
  Q 301.71 293.92 302.21 293.25
  Q 302.25 293.54 302.41 293.71
  Q 302.92 294.25 302.97 294.38
  Q 305.66 301.54 312.06 303.87
  Q 317.49 305.84 322.81 303.86
  Q 328.38 301.79 331.23 295.88
  Q 331.40 295.53 331.37 294.94
  Q 331.31 293.65 332.71 293.75
  Q 332.78 337.66 332.75 381.58
  Q 332.75 381.76 332.82 381.90
  Q 332.90 382.06 333.00 382.21
  L 332.78 382.24
  C 332.65 382.26 332.56 382.39 332.57 382.54
  Q 332.88 398.40 332.75 414.26
  Q 332.75 414.33 332.58 415.21
  Q 332.44 415.89 333.25 416.21
  Q 332.75 416.17 332.75 416.75
  Q 332.75 447.56 332.75 478.36
  Q 332.75 493.90 331.68 497.54
  Q 328.19 509.49 313.44 512.00
  Q 178.06 512.00 42.69 512.00
  Q 29.27 509.89 25.09 498.44
  Q 23.75 494.76 23.75 487.88
  Q 23.75 256.04 23.75 24.19
  Q 23.75 17.20 25.10 13.50
  Q 29.30 2.05 42.81 0.00
  Z
  M 128.00 483.21
  Q 151.72 483.33 156.50 483.25
  Q 161.95 483.16 162.88 478.86
  Q 163.00 478.32 163.00 472.13
  Q 163.00 377.19 162.92 282.25
  Q 162.92 279.50 162.93 276.75
  Q 162.95 273.43 160.73 271.93
  Q 159.37 271.02 156.07 270.92
  Q 142.66 270.52 129.25 271.04
  Q 124.65 270.70 120.05 270.81
  Q 111.51 271.00 111.45 271.00
  Q 86.48 270.99 61.52 271.00
  Q 58.82 271.00 57.57 271.55
  Q 55.32 272.53 54.82 274.84
  Q 54.78 274.99 54.59 280.16
  Q 54.50 282.36 54.50 285.50
  Q 54.45 379.47 54.56 473.43
  Q 54.57 478.39 54.89 479.42
  Q 55.99 482.95 60.75 483.00
  Q 101.96 483.41 128.00 483.21
  Z"
/>
<path fill="#b7774b" d="
  M 128.25 31.04
  Q 132.09 32.97 131.89 37.04
  Q 131.77 39.39 131.78 39.46
  Q 132.23 61.98 131.92 84.50
  Q 131.76 96.84 131.77 104.51
  Q 131.92 165.75 132.06 227.00
  Q 132.06 228.04 131.80 229.86
  Q 131.55 231.55 131.75 232.75
  Q 132.59 237.82 128.25 239.96
  Q 70.54 240.16 59.06 239.94
  Q 56.19 239.88 54.81 236.44
  Q 54.40 235.40 54.40 230.75
  Q 54.50 134.25 54.49 37.75
  Q 54.48 31.86 59.02 31.01
  Q 59.07 31.00 66.00 31.00
  Q 97.12 30.97 128.25 31.04
  Z"
/>
<path fill="#a36a43" d="
  M 163.00 97.71
  Q 158.00 97.76 153.02 97.93
  Q 150.84 98.01 149.64 98.72
  Q 147.70 99.85 147.50 101.75
  Q 146.99 106.71 147.25 122.50
  Q 147.31 126.01 149.45 127.66
  Q 150.86 128.75 154.32 128.74
  Q 158.53 128.74 162.75 128.79
  Q 162.76 128.91 162.84 128.96
  C 162.94 129.03 163.00 129.11 163.00 129.17
  Q 163.27 205.86 162.75 236.00
  Q 162.71 238.12 160.84 239.15
  Q 159.77 239.74 157.54 239.80
  Q 142.90 240.19 128.25 239.96
  Q 132.59 237.82 131.75 232.75
  Q 131.55 231.55 131.80 229.86
  Q 132.06 228.04 132.06 227.00
  Q 131.92 165.75 131.77 104.51
  Q 131.76 96.84 131.92 84.50
  Q 132.23 61.98 131.78 39.46
  Q 131.77 39.39 131.89 37.04
  Q 132.09 32.97 128.25 31.04
  Q 148.38 30.34 158.50 31.00
  Q 160.98 31.16 162.10 33.36
  Q 162.74 34.60 162.78 37.26
  Q 163.17 67.48 163.00 97.71
  Z"
/>
<path fill="#a36a43" d="
  M 299.75 239.71
  L 267.50 239.96
  Q 267.60 239.07 268.50 239.00
  Q 270.16 238.88 270.50 237.00
  Q 271.17 233.28 271.16 229.50
  Q 271.00 134.83 271.00 40.15
  Q 271.00 40.08 271.13 37.85
  Q 271.39 33.24 267.25 31.04
  Q 281.31 30.75 295.37 30.96
  Q 298.52 31.01 299.88 32.02
  Q 301.96 33.58 301.96 36.75
  Q 302.00 126.00 302.14 215.25
  Q 302.17 229.86 301.75 236.00
  Q 301.63 237.75 299.75 239.71
  Z"
/>
<path fill="#b7774b" d="
  M 267.25 31.04
  Q 271.39 33.24 271.13 37.85
  Q 271.00 40.08 271.00 40.15
  Q 271.00 134.83 271.16 229.50
  Q 271.17 233.28 270.50 237.00
  Q 270.16 238.88 268.50 239.00
  Q 267.60 239.07 267.50 239.96
  Q 261.34 239.74 255.25 240.54
  Q 253.68 239.96 252.00 239.97
  Q 226.78 240.00 201.56 240.00
  Q 197.62 240.00 196.11 239.10
  Q 194.09 237.90 193.76 235.36
  Q 193.75 235.26 193.75 231.15
  Q 193.80 180.98 193.69 130.81
  Q 193.69 130.61 193.44 129.88
  Q 193.31 129.47 193.50 129.04
  Q 200.76 128.92 202.25 129.00
  Q 209.48 129.39 209.38 122.25
  Q 209.25 113.00 209.16 103.75
  Q 209.10 97.45 202.75 97.75
  Q 201.09 97.83 193.75 97.71
  Q 193.75 67.35 193.75 37.00
  Q 193.75 31.06 199.50 31.04
  Q 233.37 30.97 267.25 31.04
  Z"
/>
<path fill="#d3d3d3" d="
  M 332.75 130.04
  L 333.00 95.96
  Q 334.86 95.66 336.75 95.71
  Q 346.57 95.96 348.19 105.56
  Q 348.65 108.32 348.21 117.50
  Q 347.97 122.64 346.38 125.15
  Q 343.08 130.33 335.75 129.75
  Q 333.99 129.61 332.75 130.04
  Z"
/>
<path fill="#c9c9c9" d="
  M 193.75 97.71
  Q 201.09 97.83 202.75 97.75
  Q 209.10 97.45 209.16 103.75
  Q 209.25 113.00 209.38 122.25
  Q 209.48 129.39 202.25 129.00
  Q 200.76 128.92 193.50 129.04
  L 176.00 128.71
  Q 178.59 124.91 178.37 120.36
  Q 178.25 117.71 178.25 117.63
  Q 178.25 111.06 178.25 104.50
  Q 178.25 100.13 175.00 97.96
  Q 175.84 97.39 176.78 97.54
  Q 178.15 97.75 178.26 97.75
  Q 186.01 97.78 193.75 97.71
  Z"
/>
<path fill="#e8e8e8" d="
  M 163.00 97.71
  L 175.00 97.96
  Q 178.25 100.13 178.25 104.50
  Q 178.25 111.06 178.25 117.63
  Q 178.25 117.71 178.37 120.36
  Q 178.59 124.91 176.00 128.71
  L 162.75 128.79
  Q 158.53 128.74 154.32 128.74
  Q 150.86 128.75 149.45 127.66
  Q 147.31 126.01 147.25 122.50
  Q 146.99 106.71 147.50 101.75
  Q 147.70 99.85 149.64 98.72
  Q 150.84 98.01 153.02 97.93
  Q 158.00 97.76 163.00 97.71
  Z"
/>
<path fill="#e8bb56" d="
  M 434.75 317.04
  L 420.09 317.02
  C 419.83 317.02 419.62 317.10 419.51 317.23
  L 419.29 317.50
  L 413.50 315.79
  Q 413.83 315.47 413.97 315.06
  C 414.08 314.73 414.29 314.49 414.54 314.40
  Q 447.00 303.02 456.06 268.81
  Q 457.03 265.17 456.54 263.25
  Q 457.67 255.87 456.46 248.50
  Q 457.23 248.11 457.00 247.00
  Q 449.22 210.19 414.79 197.61
  C 414.56 197.53 414.34 197.29 414.19 196.96
  Q 413.89 196.33 413.00 196.29
  Q 437.01 190.81 457.19 202.56
  Q 482.19 217.13 487.32 244.82
  Q 489.18 254.82 487.76 264.72
  Q 484.38 288.39 465.56 303.81
  Q 452.67 314.38 434.75 317.04
  Z"
/>
<path fill="#fcd87e" d="
  M 413.00 196.29
  Q 413.89 196.33 414.19 196.96
  C 414.34 197.29 414.56 197.53 414.79 197.61
  Q 449.22 210.19 457.00 247.00
  Q 457.23 248.11 456.46 248.50
  Q 452.38 234.97 441.19 229.23
  Q 432.24 224.63 421.79 226.17
  Q 406.71 228.39 399.50 243.25
  Q 395.17 252.18 397.12 261.57
  Q 398.92 270.26 405.33 277.09
  Q 413.72 286.03 426.12 286.15
  Q 436.81 286.26 444.86 280.49
  Q 453.36 274.39 456.54 263.25
  Q 457.03 265.17 456.06 268.81
  Q 447.00 303.02 414.54 314.40
  C 414.29 314.49 414.08 314.73 413.97 315.06
  Q 413.83 315.47 413.50 315.79
  Q 383.99 308.25 371.21 281.16
  Q 370.56 279.77 369.60 277.13
  Q 368.46 273.98 367.81 273.19
  Q 366.01 271.00 362.00 271.00
  Q 348.00 271.00 333.65 271.00
  C 333.28 271.00 332.99 271.30 332.98 271.68
  L 332.71 293.75
  Q 331.31 293.65 331.37 294.94
  Q 331.40 295.53 331.23 295.88
  Q 328.38 301.79 322.81 303.86
  Q 317.49 305.84 312.06 303.87
  Q 305.66 301.54 302.97 294.38
  Q 302.92 294.25 302.41 293.71
  Q 302.25 293.54 302.21 293.25
  Q 301.54 286.02 301.86 278.75
  Q 302.00 275.57 301.25 272.50
  C 301.08 271.82 300.79 271.32 300.56 271.31
  L 271.55 271.01
  C 271.25 271.01 271.00 271.26 271.00 271.57
  Q 271.00 290.88 271.00 310.25
  Q 271.00 311.35 270.81 312.74
  Q 270.63 313.99 270.54 315.25
  Q 267.81 322.77 261.00 325.42
  Q 257.00 326.98 252.88 326.22
  Q 248.51 325.43 245.25 322.44
  Q 242.53 319.94 241.21 316.38
  Q 239.94 312.95 240.00 309.00
  Q 240.24 292.16 239.75 270.71
  Q 240.19 267.37 240.03 264.00
  Q 239.21 246.54 255.25 240.54
  Q 261.34 239.74 267.50 239.96
  L 299.75 239.71
  Q 316.23 240.40 332.71 239.75
  Q 346.38 240.17 360.05 240.01
  Q 360.17 240.01 362.45 240.11
  Q 367.60 240.34 369.33 235.54
  Q 369.82 234.17 369.85 234.11
  Q 381.95 204.60 413.00 196.29
  Z"
/>
<path fill="#b7774b" d="
  M 129.25 271.04
  Q 129.00 272.07 129.94 272.31
  Q 131.74 272.78 131.75 275.00
  Q 132.37 376.50 131.72 478.00
  Q 131.71 480.46 129.89 481.95
  Q 129.67 482.13 129.00 482.30
  Q 128.30 482.47 128.00 483.21
  Q 101.96 483.41 60.75 483.00
  Q 55.99 482.95 54.89 479.42
  Q 54.57 478.39 54.56 473.43
  Q 54.45 379.47 54.50 285.50
  Q 54.50 282.36 54.59 280.16
  Q 54.78 274.99 54.82 274.84
  Q 55.32 272.53 57.57 271.55
  Q 58.82 271.00 61.52 271.00
  Q 86.48 270.99 111.45 271.00
  Q 111.51 271.00 120.05 270.81
  Q 124.65 270.70 129.25 271.04
  Z"
/>
<path fill="#a36a43" d="
  M 128.00 483.21
  Q 128.30 482.47 129.00 482.30
  Q 129.67 482.13 129.89 481.95
  Q 131.71 480.46 131.72 478.00
  Q 132.37 376.50 131.75 275.00
  Q 131.74 272.78 129.94 272.31
  Q 129.00 272.07 129.25 271.04
  Q 142.66 270.52 156.07 270.92
  Q 159.37 271.02 160.73 271.93
  Q 162.95 273.43 162.93 276.75
  Q 162.92 279.50 162.92 282.25
  Q 163.00 377.19 163.00 472.13
  Q 163.00 478.32 162.88 478.86
  Q 161.95 483.16 156.50 483.25
  Q 151.72 483.33 128.00 483.21
  Z"
/>
<path fill="#b7774b" d="
  M 239.75 270.71
  Q 240.24 292.16 240.00 309.00
  Q 239.94 312.95 241.21 316.38
  Q 242.53 319.94 245.25 322.44
  Q 248.51 325.43 252.88 326.22
  Q 257.00 326.98 261.00 325.42
  Q 267.81 322.77 270.54 315.25
  L 270.76 315.38
  C 270.87 315.44 270.94 315.61 270.94 315.82
  Q 271.05 395.91 271.00 476.00
  Q 271.00 480.70 267.75 483.21
  Q 233.78 483.43 199.82 483.03
  Q 197.15 482.99 195.86 482.19
  Q 193.75 480.86 193.75 478.25
  Q 193.75 378.59 193.75 278.94
  Q 193.75 274.79 194.79 273.28
  Q 196.58 270.67 201.00 271.00
  Q 208.08 271.53 239.75 270.71
  Z"
/>
<path fill="#a36a43" d="
  M 302.21 293.25
  Q 301.71 293.92 301.83 294.68
  Q 302.00 295.75 302.00 295.85
  Q 302.00 386.68 302.00 477.50
  Q 302.00 483.10 296.00 483.15
  Q 281.88 483.28 267.75 483.21
  Q 271.00 480.70 271.00 476.00
  Q 271.05 395.91 270.94 315.82
  C 270.94 315.61 270.87 315.44 270.76 315.38
  L 270.54 315.25
  Q 270.63 313.99 270.81 312.74
  Q 271.00 311.35 271.00 310.25
  Q 271.00 290.88 271.00 271.57
  C 271.00 271.26 271.25 271.01 271.55 271.01
  L 300.56 271.31
  C 300.79 271.32 301.08 271.82 301.25 272.50
  Q 302.00 275.57 301.86 278.75
  Q 301.54 286.02 302.21 293.25
  Z"
/>
<path fill="#d3d3d3" d="
  M 434.75 317.04
  L 434.79 352.75
  Q 434.08 353.18 431.75 353.25
  Q 425.49 353.45 419.25 352.96
  L 419.29 317.50
  L 419.51 317.23
  C 419.62 317.10 419.83 317.02 420.09 317.02
  L 434.75 317.04
  Z"
/>
<path fill="#e5894a" d="
  M 434.79 352.75
  Q 437.93 353.05 441.09 353.17
  Q 444.99 353.32 447.25 354.23
  Q 457.74 358.44 457.79 371.00
  Q 457.92 403.14 457.55 435.29
  Q 457.49 440.91 456.13 444.00
  Q 452.06 453.22 440.50 453.42
  Q 427.12 453.66 413.75 453.29
  Q 414.91 453.51 415.37 452.77
  C 415.57 452.45 415.80 452.23 416.03 452.14
  Q 426.53 448.16 426.50 436.00
  Q 426.49 431.32 426.00 429.54
  Q 430.71 429.65 433.07 426.51
  Q 434.49 424.64 434.57 420.64
  Q 434.87 405.67 434.79 390.70
  Q 434.74 382.98 434.44 381.84
  Q 433.03 376.55 426.25 375.96
  Q 426.86 371.48 426.25 367.00
  Q 425.12 358.73 417.69 355.06
  Q 415.99 354.22 415.50 353.29
  L 419.25 352.96
  Q 425.49 353.45 431.75 353.25
  Q 434.08 353.18 434.79 352.75
  Z"
/>
<path fill="#f7aa74" d="
  M 415.50 353.29
  Q 415.99 354.22 417.69 355.06
  Q 425.12 358.73 426.25 367.00
  Q 426.86 371.48 426.25 375.96
  Q 419.31 377.56 419.29 384.75
  Q 419.25 401.13 419.00 417.50
  Q 418.93 422.11 419.75 424.50
  Q 421.12 428.51 426.00 429.54
  Q 426.49 431.32 426.50 436.00
  Q 426.53 448.16 416.03 452.14
  C 415.80 452.23 415.57 452.45 415.37 452.77
  Q 414.91 453.51 413.75 453.29
  Q 403.14 453.33 398.65 445.17
  Q 396.91 442.00 396.80 437.00
  Q 396.72 433.20 396.75 426.75
  Q 396.87 403.75 396.45 380.75
  Q 396.37 376.42 396.63 372.09
  Q 396.63 371.96 396.69 368.41
  Q 396.76 363.92 399.06 360.56
  Q 404.74 352.31 415.50 353.29
  Z"
/>
<path fill="#ffffff" d="
  M 426.25 375.96
  Q 433.03 376.55 434.44 381.84
  Q 434.74 382.98 434.79 390.70
  Q 434.87 405.67 434.57 420.64
  Q 434.49 424.64 433.07 426.51
  Q 430.71 429.65 426.00 429.54
  Q 421.12 428.51 419.75 424.50
  Q 418.93 422.11 419.00 417.50
  Q 419.25 401.13 419.29 384.75
  Q 419.31 377.56 426.25 375.96
  Z"
/>
<path fill="#d3d3d3" d="
  M 333.00 382.21
  Q 334.84 382.26 336.67 382.26
  Q 338.93 382.26 340.29 382.63
  Q 348.16 384.76 348.30 393.75
  Q 348.39 399.21 348.16 404.66
  Q 348.00 408.66 346.55 411.00
  Q 342.45 417.63 333.25 416.21
  Q 332.44 415.89 332.58 415.21
  Q 332.75 414.33 332.75 414.26
  Q 332.88 398.40 332.57 382.54
  C 332.56 382.39 332.65 382.26 332.78 382.24
  L 333.00 382.21
  Z"
/>
</svg>
