<?xml version="1.0" encoding="UTF-8" standalone="no"?>
<!DOCTYPE svg PUBLIC "-//W3C//DTD SVG 1.1//EN" "http://www.w3.org/Graphics/SVG/1.1/DTD/svg11.dtd">
<svg xmlns="http://www.w3.org/2000/svg" version="1.1" viewBox="0 0 875 875">
<g stroke-width="2.1" fill="none" stroke-linecap="butt">
<path stroke="#6d416f" stroke-opacity="0.969" vector-effect="non-scaling-stroke" d="
  M 191.21 109.75
  L 190.79 109.75"
/>
<path stroke="#6d416f" stroke-opacity="0.969" vector-effect="non-scaling-stroke" d="
  M 127.79 105.75
  Q 127.90 106.79 127.29 106.25"
/>
<path stroke="#6d416f" stroke-opacity="0.969" vector-effect="non-scaling-stroke" d="
  M 221.21 109.75
  L 220.79 109.75"
/>
<path stroke="#5e18eb" stroke-opacity="0.980" vector-effect="non-scaling-stroke" d="
  M 640.94 875.00
  Q 641.12 874.50 640.50 874.50
  Q 569.50 874.50 498.50 874.56
  Q 496.72 874.56 498.25 874.57
  Q 569.25 874.75 640.25 874.74
  Q 640.52 874.74 640.44 875.00"
/>
<path stroke="#5e18eb" stroke-opacity="0.980" vector-effect="non-scaling-stroke" d="
  M 589.70 556.37
  C 589.70 556.30 589.65 556.25 589.58 556.25
  L 537.42 556.25
  C 537.35 556.25 537.30 556.30 537.30 556.37
  L 537.30 556.39
  C 537.30 556.46 537.35 556.51 537.42 556.51
  L 589.58 556.51
  C 589.65 556.51 589.70 556.46 589.70 556.39
  L 589.70 556.37"
/>
<path stroke="#5e18eb" stroke-opacity="0.980" vector-effect="non-scaling-stroke" d="
  M 706.06 874.57
  Q 771.28 874.89 836.50 874.79
  Q 838.79 874.79 837.84 874.57
  Q 837.55 874.50 837.15 874.50
  Q 771.60 874.45 706.06 874.56
  Q 705.56 874.56 706.06 874.57"
/>
</g>
<path fill="#9b3f94" d="
  M 124.30 238.06
  L 123.31 250.32
  Q 123.11 252.82 124.74 254.36
  Q 128.86 258.26 133.70 261.37
  Q 143.45 267.65 153.00 274.22
  Q 163.26 281.28 171.69 289.06
  Q 175.39 292.48 178.62 297.15
  Q 184.72 305.96 184.36 316.75
  Q 183.05 356.62 181.70 398.07
  C 181.68 398.59 181.26 399.00 180.74 399.00
  Q 116.28 399.00 53.13 399.00
  Q 38.76 399.00 35.90 398.52
  Q 26.91 397.01 19.81 391.19
  Q 10.19 383.30 7.90 371.70
  Q 7.25 368.38 7.25 351.74
  Q 7.25 197.53 7.25 43.33
  Q 7.25 31.00 7.93 27.71
  Q 9.57 19.81 15.10 13.35
  Q 23.21 3.87 34.31 1.56
  Q 39.02 0.58 46.08 0.68
  Q 51.36 0.75 51.43 0.75
  Q 210.34 0.75 369.25 0.74
  Q 378.71 0.74 386.84 5.48
  Q 402.19 14.42 404.25 32.25
  Q 404.69 36.07 404.68 43.25
  Q 404.50 203.75 404.46 364.25
  Q 404.45 374.96 398.34 383.64
  Q 387.56 398.97 368.50 398.98
  Q 298.88 399.00 228.51 399.00
  C 228.12 399.00 227.79 398.69 227.77 398.30
  Q 225.47 358.26 223.50 318.50
  Q 223.03 309.05 226.56 302.06
  Q 231.35 292.59 241.30 285.04
  Q 256.99 273.14 273.60 262.55
  Q 279.77 258.62 283.19 255.44
  Q 285.09 253.67 284.73 250.72
  Q 284.02 244.78 283.48 238.81
  C 283.46 238.53 283.22 238.31 282.93 238.31
  L 124.82 237.56
  C 124.55 237.56 124.32 237.78 124.30 238.06
  Z
  M 191.21 109.75
  L 190.79 109.75
  L 188.75 57.87
  C 188.74 57.65 188.57 57.48 188.35 57.49
  Q 171.25 57.88 154.50 58.17
  Q 149.49 58.26 144.55 58.99
  C 144.27 59.03 144.07 59.27 144.07 59.56
  L 144.32 109.69
  Q 144.32 110.35 144.28 109.70
  L 141.23 59.59
  C 141.20 59.13 140.83 58.77 140.40 58.79
  L 125.55 59.26
  C 125.28 59.27 125.07 59.52 125.09 59.81
  L 127.79 105.75
  Q 127.90 106.79 127.29 106.25
  L 122.12 60.44
  C 122.09 60.16 121.85 59.94 121.56 59.94
  Q 113.69 59.97 104.72 61.46
  C 104.29 61.53 103.99 61.94 104.05 62.37
  L 114.99 142.94
  C 115.03 143.23 115.28 143.44 115.57 143.44
  L 294.93 144.43
  C 295.22 144.44 295.46 144.22 295.48 143.94
  L 302.66 63.39
  C 302.70 62.91 302.41 62.47 301.95 62.32
  Q 289.94 58.37 277.31 58.31
  C 277.03 58.31 276.80 58.53 276.78 58.81
  Q 275.33 83.54 273.66 108.24
  Q 273.64 108.51 273.50 108.51
  C 273.40 108.51 273.31 108.39 273.32 108.24
  L 273.69 59.32
  C 273.69 59.02 273.49 58.77 273.20 58.71
  Q 267.87 57.63 262.44 57.91
  C 262.16 57.92 261.93 58.15 261.91 58.44
  Q 260.15 85.08 258.60 111.74
  Q 258.58 112.17 258.57 111.75
  Q 258.37 86.12 258.77 59.39
  C 258.78 58.76 258.28 58.25 257.66 58.23
  L 223.51 57.25
  C 223.37 57.24 223.26 57.35 223.25 57.49
  L 221.21 109.75
  L 220.79 109.75
  L 220.23 57.63
  C 220.22 56.99 219.71 56.48 219.09 56.49
  L 192.72 56.79
  C 192.19 56.80 191.77 57.24 191.76 57.78
  L 191.21 109.75
  Z
  M 111.94 148.93
  L 111.57 228.81
  Q 111.55 232.73 115.49 232.75
  L 292.76 233.50
  Q 296.80 233.52 296.58 229.49
  Q 296.31 224.37 296.50 218.33
  Q 296.75 209.94 296.75 207.17
  Q 296.75 178.58 296.75 149.95
  C 296.75 149.52 296.30 149.25 295.92 149.45
  Q 294.59 150.14 293.08 150.06
  Q 291.95 150.00 291.91 150.00
  Q 205.58 149.64 119.25 149.44
  Q 116.10 149.43 112.45 148.54
  C 112.19 148.47 111.94 148.67 111.94 148.93
  Z"
/>
<path fill="#5dc5f6" d="
  M 857.86 387.36
  Q 847.23 398.97 831.25 398.98
  Q 767.12 399.00 703.06 399.00
  C 702.75 399.00 702.49 398.78 702.43 398.47
  Q 701.86 395.39 701.87 393.25
  Q 702.00 296.65 701.50 264.75
  Q 701.28 250.89 702.09 244.76
  Q 703.65 232.83 710.30 222.81
  Q 717.33 212.22 725.38 202.40
  Q 732.86 193.26 737.69 185.94
  Q 740.56 181.58 742.93 175.61
  Q 748.75 160.93 751.10 145.43
  Q 752.71 134.89 752.29 125.50
  Q 750.97 95.77 732.31 71.44
  Q 730.42 68.97 728.06 71.06
  Q 725.97 72.92 724.82 76.82
  Q 722.90 83.32 721.54 89.96
  Q 717.20 111.16 712.71 132.32
  Q 711.76 136.79 709.96 139.04
  Q 707.40 142.22 703.44 143.94
  Q 693.37 148.33 680.25 149.00
  Q 668.86 149.59 657.75 147.02
  Q 648.93 144.98 641.81 139.41
  Q 634.43 133.64 633.36 125.23
  Q 632.81 120.86 635.33 110.57
  Q 640.26 90.49 645.31 70.45
  Q 646.91 64.13 646.59 60.91
  Q 646.11 55.97 643.19 51.61
  Q 641.09 48.47 637.75 49.25
  Q 635.71 49.73 633.77 51.77
  Q 632.35 53.25 632.30 53.31
  Q 617.34 67.89 605.00 84.75
  Q 598.10 94.19 592.79 104.61
  Q 585.82 118.30 584.08 133.28
  Q 582.87 143.67 584.68 153.16
  Q 587.46 167.76 596.29 180.20
  Q 606.42 194.48 615.07 209.69
  Q 627.65 231.81 629.50 256.00
  Q 630.30 266.49 630.33 284.00
  Q 630.43 341.34 630.69 398.48
  C 630.69 398.77 630.46 399.00 630.17 399.00
  Q 571.00 399.00 512.00 399.00
  Q 506.15 399.00 501.81 398.73
  Q 496.20 398.37 491.89 396.75
  Q 480.09 392.31 473.81 381.44
  Q 470.37 375.47 469.62 368.28
  Q 469.50 367.12 469.50 354.69
  Q 469.50 195.96 469.50 37.24
  Q 469.50 29.78 470.81 25.42
  Q 475.09 11.12 488.81 4.31
  Q 494.79 1.35 501.84 0.78
  Q 502.15 0.75 515.16 0.75
  Q 673.33 0.75 831.50 0.71
  Q 840.68 0.70 848.58 5.24
  Q 863.21 13.64 865.94 28.79
  Q 866.50 31.86 866.50 48.76
  Q 866.50 206.13 866.50 363.50
  Q 866.50 377.92 857.86 387.36
  Z"
/>
<path fill="#3b4447" fill-opacity="0.933" d="
  M 127.79 105.75
  Q 128.33 108.56 128.31 111.56
  Q 128.30 114.21 127.97 111.58
  L 127.29 106.25
  Q 127.90 106.79 127.79 105.75
  Z"
/>
<path fill="#3b4447" fill-opacity="0.933" d="
  M 190.79 109.75
  L 191.21 109.75
  Q 190.93 114.66 190.79 109.75
  Z"
/>
<path fill="#3b4447" fill-opacity="0.933" d="
  M 220.79 109.75
  L 221.21 109.75
  Q 221.00 114.29 220.79 109.75
  Z"
/>
<path fill="#9b3f94" d="
  M 253.06 159.71
  Q 263.03 159.80 273.00 159.71
  Q 275.19 159.69 276.66 161.14
  C 276.89 161.36 276.99 161.69 276.93 162.00
  Q 276.48 164.19 273.94 164.19
  Q 237.20 164.10 136.23 163.51
  Q 134.54 163.50 133.36 163.02
  Q 129.56 161.47 133.29 159.62
  Q 134.41 159.06 135.94 159.07
  Q 194.50 159.21 253.06 159.71
  Z"
/>
<path fill="#f1c056" d="
  M 376.69 875.00
  Q 301.94 875.00 227.19 875.00
  Q 226.86 826.88 227.00 777.76
  C 227.01 777.13 227.55 776.66 228.17 776.74
  Q 233.88 777.50 236.51 773.59
  Q 237.75 771.75 237.72 768.14
  Q 237.66 759.67 238.00 756.25
  Q 240.05 735.54 255.37 721.63
  Q 264.48 713.36 273.60 705.10
  Q 282.73 696.83 285.65 685.63
  Q 287.02 680.35 286.91 665.75
  Q 286.73 641.63 286.82 617.50
  Q 286.86 608.73 280.53 606.10
  Q 277.89 605.01 269.32 605.22
  Q 262.12 605.40 254.93 605.08
  C 254.65 605.07 254.44 604.84 254.43 604.56
  Q 253.81 570.66 254.16 536.75
  Q 254.25 527.95 253.75 525.75
  Q 252.24 519.11 246.25 517.00
  Q 240.59 515.01 235.94 517.94
  Q 233.15 519.69 231.67 522.61
  Q 230.19 525.53 230.21 529.00
  Q 230.44 566.00 230.50 604.33
  C 230.50 604.84 230.09 605.25 229.58 605.25
  L 181.50 605.25
  C 181.12 605.25 180.82 604.95 180.81 604.57
  Q 180.46 566.97 180.46 529.00
  Q 180.46 522.09 175.44 518.56
  Q 171.33 515.68 166.67 516.62
  Q 162.54 517.45 159.85 520.39
  Q 157.00 523.52 157.00 528.25
  Q 157.00 566.25 157.00 604.81
  C 157.00 605.19 156.69 605.50 156.31 605.50
  Q 146.25 605.50 136.25 605.62
  Q 129.15 605.70 126.26 610.83
  Q 124.82 613.41 124.78 619.08
  Q 124.60 645.50 124.91 671.92
  Q 125.02 681.11 126.49 685.93
  Q 129.93 697.15 139.69 706.06
  Q 145.53 711.40 151.48 716.62
  Q 160.01 724.13 162.84 727.58
  Q 176.04 743.73 174.31 765.99
  Q 173.38 777.91 185.18 777.06
  C 185.32 777.05 185.44 777.16 185.44 777.30
  Q 185.55 825.28 185.50 873.25
  Q 185.50 874.52 185.19 875.00
  Q 110.06 875.00 34.94 875.00
  Q 15.18 869.99 9.03 851.93
  Q 7.50 847.42 7.29 840.38
  Q 7.00 830.13 7.00 816.25
  Q 7.00 690.75 7.00 565.25
  Q 7.00 537.03 7.15 519.48
  Q 7.26 506.06 8.98 500.71
  Q 12.38 490.11 22.06 483.31
  Q 28.63 478.70 36.44 477.56
  Q 38.56 477.25 51.60 477.25
  Q 208.17 477.25 364.74 477.25
  Q 375.24 477.25 380.12 478.70
  Q 388.98 481.35 395.31 488.19
  Q 404.30 497.89 404.31 512.00
  Q 404.50 674.37 404.50 836.74
  Q 404.50 845.32 403.17 850.12
  Q 397.77 869.55 376.69 875.00
  Z"
/>
<path fill="#5e17eb" d="
  M 838.94 875.00
  Q 771.94 875.00 704.94 875.00
  Q 703.55 828.26 702.55 781.50
  Q 701.09 713.00 699.75 644.50
  Q 699.68 641.09 702.07 639.37
  Q 702.45 639.10 705.24 638.37
  Q 707.78 637.69 708.43 634.73
  Q 709.21 631.16 709.15 627.50
  Q 709.00 618.12 708.95 608.75
  Q 708.92 601.94 710.50 597.00
  Q 712.50 590.75 718.00 588.75
  Q 725.74 585.93 735.47 586.99
  Q 754.89 589.11 772.33 597.90
  Q 787.71 605.65 802.92 613.74
  Q 805.87 615.30 808.44 612.68
  Q 809.77 611.33 808.74 609.73
  Q 802.29 599.76 794.43 590.83
  Q 772.14 565.52 743.44 547.81
  Q 739.37 545.30 734.51 543.54
  Q 731.03 542.28 726.28 542.09
  Q 702.49 541.17 678.75 539.52
  Q 666.54 538.68 656.12 544.92
  Q 646.65 550.59 642.31 554.06
  Q 632.48 561.93 622.11 569.24
  C 621.62 569.59 621.01 569.73 620.42 569.64
  Q 615.26 568.85 610.83 567.24
  Q 607.93 566.19 603.93 563.73
  Q 600.63 561.70 597.36 559.61
  Q 592.89 556.75 588.25 556.75
  Q 566.96 556.75 545.66 556.75
  Q 537.64 556.75 536.36 557.02
  Q 531.16 558.13 528.50 563.04
  Q 527.41 565.05 527.18 567.64
  Q 527.00 569.69 527.00 572.50
  Q 527.00 603.03 527.00 633.55
  Q 527.00 638.44 527.98 640.81
  Q 529.55 644.62 533.07 646.51
  Q 535.83 647.99 542.20 648.04
  Q 564.28 648.22 586.35 648.25
  Q 592.31 648.25 595.50 647.06
  Q 599.92 645.39 603.45 641.95
  Q 612.90 632.73 626.26 633.85
  Q 629.64 634.13 633.00 633.79
  Q 636.44 633.44 638.22 637.59
  C 638.52 638.28 639.19 638.74 639.94 638.76
  Q 646.35 638.95 646.22 645.75
  Q 643.98 758.75 642.00 871.75
  Q 641.96 874.20 641.44 875.00
  Q 641.19 875.00 640.94 875.00
  Q 641.12 874.50 640.50 874.50
  Q 569.50 874.50 498.50 874.56
  Q 496.72 874.56 498.25 874.57
  Q 569.25 874.75 640.25 874.74
  Q 640.52 874.74 640.44 875.00
  Q 568.69 875.00 496.94 875.00
  Q 476.37 869.46 470.75 850.21
  Q 469.50 845.94 469.50 839.14
  Q 469.50 674.32 469.50 509.50
  Q 469.50 502.20 474.42 494.13
  Q 481.61 482.36 494.05 478.67
  Q 498.82 477.25 508.61 477.25
  Q 664.40 477.25 820.20 477.25
  Q 835.66 477.25 838.27 477.70
  Q 847.63 479.29 855.00 485.75
  Q 862.49 492.32 865.28 501.64
  Q 866.75 506.57 866.75 517.51
  Q 866.75 677.63 866.75 837.75
  Q 866.75 846.47 864.71 852.10
  Q 858.06 870.49 838.94 875.00
  Z
  M 589.70 556.37
  C 589.70 556.30 589.65 556.25 589.58 556.25
  L 537.42 556.25
  C 537.35 556.25 537.30 556.30 537.30 556.37
  L 537.30 556.39
  C 537.30 556.46 537.35 556.51 537.42 556.51
  L 589.58 556.51
  C 589.65 556.51 589.70 556.46 589.70 556.39
  L 589.70 556.37
  Z
  M 706.06 874.57
  Q 771.28 874.89 836.50 874.79
  Q 838.79 874.79 837.84 874.57
  Q 837.55 874.50 837.15 874.50
  Q 771.60 874.45 706.06 874.56
  Q 705.56 874.56 706.06 874.57
  Z"
/>
<rect fill="#5d19ec" fill-opacity="0.961" x="537.30" y="556.25" width="52.40" height="0.26" rx="0.12"/>
<path fill="#5d19ec" fill-opacity="0.961" d="
  M 640.94 875.00
  Q 640.69 875.00 640.44 875.00
  Q 640.52 874.74 640.25 874.74
  Q 569.25 874.75 498.25 874.57
  Q 496.72 874.56 498.50 874.56
  Q 569.50 874.50 640.50 874.50
  Q 641.12 874.50 640.94 875.00
  Z"
/>
<path fill="#5d19ec" fill-opacity="0.961" d="
  M 706.06 874.56
  Q 771.60 874.45 837.15 874.50
  Q 837.55 874.50 837.84 874.57
  Q 838.79 874.79 836.50 874.79
  Q 771.28 874.89 706.06 874.57
  Q 705.56 874.56 706.06 874.56
  Z"
/>
</svg>
