<?xml version="1.0" encoding="UTF-8" standalone="no"?>
<!DOCTYPE svg PUBLIC "-//W3C//DTD SVG 1.1//EN" "http://www.w3.org/Graphics/SVG/1.1/DTD/svg11.dtd">
<svg xmlns="http://www.w3.org/2000/svg" version="1.1" viewBox="0 0 512 512">
<g stroke-width="2.1" fill="none" stroke-linecap="butt">
<path stroke="#fab764" vector-effect="non-scaling-stroke" d="
  M 493.21 33.75
  L 492.75 34.29"
/>
<path stroke="#f19c40" vector-effect="non-scaling-stroke" d="
  M 492.75 34.29
  Q 491.40 34.00 489.00 34.00
  Q 451.50 33.97 414.00 34.04"
/>
<path stroke="#fab764" vector-effect="non-scaling-stroke" d="
  M 414.00 34.04
  L 413.75 33.96"
/>
<path stroke="#f4835a" vector-effect="non-scaling-stroke" d="
  M 493.25 75.00
  Q 492.46 74.58 493.00 74.00
  Q 493.59 55.46 493.02 36.91
  Q 493.02 36.91 493.21 35.63
  Q 493.31 34.91 492.75 34.29"
/>
<path stroke="#f4835a" vector-effect="non-scaling-stroke" d="
  M 414.00 34.04
  Q 414.13 53.62 413.86 73.19
  Q 413.84 74.57 415.00 74.96"
/>
<path stroke="#fab764" vector-effect="non-scaling-stroke" d="
  M 415.00 74.96
  Q 413.96 74.78 413.79 75.75"
/>
<path stroke="#f19c40" vector-effect="non-scaling-stroke" d="
  M 493.25 75.00
  L 415.00 74.96"
/>
<path stroke="#59b9bb" vector-effect="non-scaling-stroke" d="
  M 260.75 317.21
  Q 260.26 317.29 259.69 318.19
  Q 243.91 342.69 238.05 352.53
  Q 227.50 370.25 219.13 389.09
  Q 214.28 400.01 211.75 409.75
  Q 208.05 423.99 211.90 438.78
  Q 217.92 461.90 236.69 476.56
  Q 260.18 494.92 290.99 489.71
  Q 300.13 488.17 306.75 484.75
  Q 307.95 484.13 308.75 484.54"
/>
<path stroke="#f19c40" vector-effect="non-scaling-stroke" d="
  M 323.25 291.21
  Q 322.52 290.97 322.61 290.44
  Q 322.69 289.97 322.69 289.93
  Q 322.37 253.49 322.50 217.05
  Q 322.50 216.94 322.76 215.00
  Q 322.94 213.72 322.25 212.54"
/>
<path stroke="#fab764" vector-effect="non-scaling-stroke" d="
  M 322.25 212.54
  Q 322.57 212.25 323.00 212.21"
/>
<path stroke="#a9674e" vector-effect="non-scaling-stroke" d="
  M 239.79 141.25
  Q 241.45 149.17 239.54 157.00"
/>
<path stroke="#a9674e" vector-effect="non-scaling-stroke" d="
  M 272.25 156.96
  Q 270.74 149.11 272.21 141.25"
/>
<path stroke="#af9b58" vector-effect="non-scaling-stroke" d="
  M 264.00 212.21
  L 248.00 212.21"
/>
<path stroke="#fab764" vector-effect="non-scaling-stroke" d="
  M 230.50 212.21
  Q 230.09 212.19 230.00 212.46"
/>
<path stroke="#f4835a" vector-effect="non-scaling-stroke" d="
  M 230.00 212.46
  L 189.25 212.29"
/>
<path stroke="#fab764" vector-effect="non-scaling-stroke" d="
  M 189.25 212.29
  L 189.00 212.21"
/>
<path stroke="#f4835a" vector-effect="non-scaling-stroke" d="
  M 322.25 212.54
  L 281.54 212.50"
/>
<path stroke="#fab764" vector-effect="non-scaling-stroke" d="
  M 281.54 212.50
  L 281.46 212.25"
/>
<path stroke="#f19c40" vector-effect="non-scaling-stroke" d="
  M 189.25 212.29
  Q 189.55 238.77 189.26 265.25
  Q 189.12 278.00 189.46 290.75"
/>
<path stroke="#fab764" vector-effect="non-scaling-stroke" d="
  M 189.46 290.75
  Q 189.13 290.88 189.00 291.21"
/>
<path stroke="#fab764" vector-effect="non-scaling-stroke" d="
  M 98.21 434.50
  Q 97.67 434.85 97.00 434.79"
/>
<path stroke="#f19c40" vector-effect="non-scaling-stroke" d="
  M 97.00 434.79
  L 19.50 434.96"
/>
<path stroke="#fab764" vector-effect="non-scaling-stroke" d="
  M 19.50 434.96
  Q 19.24 434.63 18.75 434.71"
/>
<path stroke="#f19c40" vector-effect="non-scaling-stroke" d="
  M 230.00 212.46
  L 230.25 291.21"
/>
<path stroke="#f4835a" vector-effect="non-scaling-stroke" d="
  M 230.25 291.21
  Q 210.00 291.46 189.75 291.00
  Q 189.51 290.99 189.46 290.75"
/>
<path stroke="#f19c40" vector-effect="non-scaling-stroke" d="
  M 281.54 212.50
  Q 281.99 256.89 281.75 284.75
  Q 281.71 288.91 282.00 290.96"
/>
<path stroke="#fab764" vector-effect="non-scaling-stroke" d="
  M 282.00 290.96
  Q 281.58 290.93 281.46 291.25"
/>
<path stroke="#fab764" vector-effect="non-scaling-stroke" d="
  M 230.54 291.50
  Q 230.48 291.27 230.25 291.21"
/>
<path stroke="#f4835a" vector-effect="non-scaling-stroke" d="
  M 323.00 291.29
  L 282.00 290.96"
/>
<path stroke="#9bdeda" vector-effect="non-scaling-stroke" d="
  M 293.61 421.77
  C 293.61 414.91 288.04 409.34 281.18 409.34
  C 274.32 409.34 268.75 414.91 268.75 421.77
  C 268.75 428.63 274.32 434.20 281.18 434.20
  C 288.04 434.20 293.61 428.63 293.61 421.77"
/>
<path stroke="#9bdeda" vector-effect="non-scaling-stroke" d="
  M 283.16 463.74
  C 283.16 453.38 274.77 444.99 264.41 444.99
  C 254.05 444.99 245.66 453.38 245.66 463.74
  C 245.66 474.10 254.05 482.49 264.41 482.49
  C 274.77 482.49 283.16 474.10 283.16 463.74"
/>
<path stroke="#fab764" vector-effect="non-scaling-stroke" d="
  M 98.04 476.25
  L 97.71 475.75"
/>
<path stroke="#f4835a" vector-effect="non-scaling-stroke" d="
  M 97.71 475.75
  Q 98.00 475.20 98.00 473.25
  Q 98.05 454.40 97.94 435.55
  C 97.94 435.32 97.74 435.10 97.45 435.03
  Q 97.19 434.96 97.00 434.79"
/>
<path stroke="#f4835a" vector-effect="non-scaling-stroke" d="
  M 19.50 434.96
  L 19.25 435.00
  C 19.11 435.02 19.00 435.13 19.00 435.26
  Q 18.69 451.92 18.92 468.58
  Q 18.92 468.61 18.73 471.78
  Q 18.60 473.81 19.25 475.79"
/>
<path stroke="#fab764" vector-effect="non-scaling-stroke" d="
  M 19.25 475.79
  Q 19.10 476.09 18.75 476.04"
/>
<path stroke="#f19c40" vector-effect="non-scaling-stroke" d="
  M 97.71 475.75
  L 19.25 475.79"
/>
</g>
<path fill="#f7d04a" d="
  M 493.21 33.75
  L 492.75 34.29
  Q 491.40 34.00 489.00 34.00
  Q 451.50 33.97 414.00 34.04
  L 413.75 33.96
  Q 413.60 23.16 413.90 12.36
  Q 414.02 7.90 415.37 5.95
  Q 416.83 3.84 419.39 2.99
  Q 420.87 2.50 424.16 2.50
  Q 454.46 2.50 484.75 2.50
  Q 489.20 2.50 491.49 5.66
  Q 492.98 7.71 493.11 12.19
  Q 493.43 22.97 493.21 33.75
  Z"
/>
<path fill="#fd9d7e" d="
  M 493.21 33.75
  Q 498.65 34.31 501.75 34.00
  Q 509.90 33.18 512.00 40.81
  Q 512.00 54.69 512.00 68.56
  Q 509.97 75.55 502.49 75.21
  Q 497.88 75.00 493.25 75.00
  Q 492.46 74.58 493.00 74.00
  Q 493.59 55.46 493.02 36.91
  Q 493.02 36.91 493.21 35.63
  Q 493.31 34.91 492.75 34.29
  L 493.21 33.75
  Z"
/>
<path fill="#fd9d7e" d="
  M 413.75 33.96
  L 414.00 34.04
  Q 414.13 53.62 413.86 73.19
  Q 413.84 74.57 415.00 74.96
  Q 413.96 74.78 413.79 75.75
  L 413.76 75.40
  C 413.74 75.20 413.55 75.06 413.33 75.05
  Q 409.54 74.99 405.76 74.99
  Q 401.13 74.99 399.01 73.67
  Q 395.25 71.34 395.25 66.25
  Q 395.25 57.00 395.25 47.75
  Q 395.25 40.83 396.47 38.44
  Q 398.97 33.53 406.25 34.00
  Q 407.50 34.08 413.75 33.96
  Z"
/>
<path fill="#eb6836" d="
  M 414.00 34.04
  Q 451.50 33.97 489.00 34.00
  Q 491.40 34.00 492.75 34.29
  Q 493.31 34.91 493.21 35.63
  Q 493.02 36.91 493.02 36.91
  Q 493.59 55.46 493.00 74.00
  Q 492.46 74.58 493.25 75.00
  L 415.00 74.96
  Q 413.84 74.57 413.86 73.19
  Q 414.13 53.62 414.00 34.04
  Z"
/>
<path fill="#f7d04a" d="
  M 415.00 74.96
  L 493.25 75.00
  Q 493.25 125.13 493.25 175.25
  Q 493.25 191.76 493.02 195.24
  Q 491.02 226.16 472.69 250.19
  Q 443.73 288.15 395.99 291.03
  Q 392.31 291.25 376.00 291.26
  Q 349.62 291.27 323.25 291.21
  Q 322.52 290.97 322.61 290.44
  Q 322.69 289.97 322.69 289.93
  Q 322.37 253.49 322.50 217.05
  Q 322.50 216.94 322.76 215.00
  Q 322.94 213.72 322.25 212.54
  Q 322.57 212.25 323.00 212.21
  Q 355.50 212.28 388.00 212.26
  Q 390.43 212.25 392.85 212.03
  Q 395.38 211.79 397.56 211.00
  Q 408.63 206.95 412.17 196.74
  Q 413.75 192.18 413.75 180.09
  Q 413.72 127.92 413.79 75.75
  Q 413.96 74.78 415.00 74.96
  Z"
/>
<path fill="#eb6836" d="
  M 239.79 141.25
  Q 241.45 149.17 239.54 157.00
  Q 236.16 167.27 227.95 172.75
  Q 220.76 177.56 211.75 177.61
  Q 202.31 177.66 194.89 171.98
  Q 188.34 166.98 185.28 159.71
  Q 182.08 152.08 183.75 143.50
  Q 185.35 135.28 190.91 129.42
  Q 196.15 123.90 203.82 121.46
  Q 216.29 117.50 227.94 125.06
  Q 236.18 130.41 239.79 141.25
  Z"
/>
<path fill="#eb6836" d="
  M 272.25 156.96
  Q 270.74 149.11 272.21 141.25
  Q 275.96 129.99 285.31 124.31
  Q 295.72 118.00 308.25 121.50
  Q 317.45 124.07 322.91 131.51
  Q 328.09 138.55 328.74 147.35
  Q 329.47 157.23 323.44 165.69
  Q 318.03 173.26 309.49 176.13
  Q 301.52 178.80 292.92 176.64
  Q 278.09 172.92 272.25 156.96
  Z"
/>
<path fill="#666666" d="
  M 272.21 141.25
  Q 270.74 149.11 272.25 156.96
  Q 268.37 156.44 264.50 156.93
  C 264.21 156.97 264.00 157.21 263.99 157.50
  Q 263.48 184.85 264.00 212.21
  L 248.00 212.21
  L 248.24 157.81
  C 248.25 157.27 247.83 156.84 247.33 156.85
  L 239.54 157.00
  Q 241.45 149.17 239.79 141.25
  Q 256.00 140.63 272.21 141.25
  Z"
/>
<path fill="#fd9d7e" d="
  M 230.50 212.21
  Q 230.09 212.19 230.00 212.46
  L 189.25 212.29
  L 189.00 212.21
  Q 189.29 208.64 189.31 205.06
  Q 189.33 199.72 189.95 198.02
  Q 191.88 192.77 198.75 192.86
  Q 210.13 193.00 221.50 193.00
  Q 225.45 193.00 227.85 195.22
  Q 229.74 196.96 230.20 200.89
  Q 230.86 206.52 230.50 212.21
  Z"
/>
<path fill="#fd9d7e" d="
  M 323.00 212.21
  Q 322.57 212.25 322.25 212.54
  L 281.54 212.50
  L 281.46 212.25
  Q 281.53 207.25 281.70 202.26
  Q 281.94 194.79 287.61 193.31
  Q 288.77 193.00 296.93 193.00
  Q 304.48 193.00 312.03 193.00
  Q 317.02 193.00 319.17 194.41
  Q 322.84 196.82 322.69 202.25
  Q 322.56 207.24 323.00 212.21
  Z"
/>
<path fill="#f7d04a" d="
  M 189.00 212.21
  L 189.25 212.29
  Q 189.55 238.77 189.26 265.25
  Q 189.12 278.00 189.46 290.75
  Q 189.13 290.88 189.00 291.21
  Q 160.04 291.27 131.07 291.26
  Q 118.82 291.25 114.09 292.81
  Q 103.25 296.38 99.64 307.59
  Q 98.25 311.92 98.25 320.58
  Q 98.28 377.54 98.21 434.50
  Q 97.67 434.85 97.00 434.79
  L 19.50 434.96
  Q 19.24 434.63 18.75 434.71
  Q 18.75 381.60 18.75 328.50
  Q 18.75 312.40 19.02 308.51
  Q 21.35 274.30 43.37 248.51
  Q 49.92 240.84 57.74 234.63
  Q 85.65 212.47 122.75 212.37
  Q 155.88 212.28 189.00 212.21
  Z"
/>
<path fill="#eb6836" d="
  M 189.25 212.29
  L 230.00 212.46
  L 230.25 291.21
  Q 210.00 291.46 189.75 291.00
  Q 189.51 290.99 189.46 290.75
  Q 189.12 278.00 189.26 265.25
  Q 189.55 238.77 189.25 212.29
  Z"
/>
<path fill="#f7d04a" d="
  M 230.50 212.21
  L 248.00 212.21
  L 264.00 212.21
  L 281.46 212.25
  L 281.54 212.50
  Q 281.99 256.89 281.75 284.75
  Q 281.71 288.91 282.00 290.96
  Q 281.58 290.93 281.46 291.25
  L 230.54 291.50
  Q 230.48 291.27 230.25 291.21
  L 230.00 212.46
  Q 230.09 212.19 230.50 212.21
  Z"
/>
<path fill="#eb6836" d="
  M 281.54 212.50
  L 322.25 212.54
  Q 322.94 213.72 322.76 215.00
  Q 322.50 216.94 322.50 217.05
  Q 322.37 253.49 322.69 289.93
  Q 322.69 289.97 322.61 290.44
  Q 322.52 290.97 323.25 291.21
  L 323.00 291.29
  L 282.00 290.96
  Q 281.71 288.91 281.75 284.75
  Q 281.99 256.89 281.54 212.50
  Z"
/>
<path fill="#fd9d7e" d="
  M 189.46 290.75
  Q 189.51 290.99 189.75 291.00
  Q 210.00 291.46 230.25 291.21
  Q 230.48 291.27 230.54 291.50
  Q 230.82 296.58 230.22 301.59
  Q 229.75 305.50 227.85 307.31
  Q 225.41 309.63 221.50 309.66
  Q 212.09 309.73 202.68 309.75
  Q 195.93 309.76 193.51 308.49
  Q 188.64 305.95 189.25 298.75
  Q 189.52 295.64 189.00 291.21
  Q 189.13 290.88 189.46 290.75
  Z"
/>
<path fill="#fd9d7e" d="
  M 282.00 290.96
  L 323.00 291.29
  Q 322.49 295.93 322.75 299.25
  Q 323.24 305.59 318.99 308.21
  Q 316.61 309.68 310.60 309.72
  Q 295.98 309.84 291.25 309.75
  Q 281.68 309.56 281.58 300.00
  Q 281.53 295.62 281.46 291.25
  Q 281.58 290.93 282.00 290.96
  Z"
/>
<path fill="#50a9a9" d="
  M 260.75 317.21
  Q 260.26 317.29 259.69 318.19
  Q 243.91 342.69 238.05 352.53
  Q 227.50 370.25 219.13 389.09
  Q 214.28 400.01 211.75 409.75
  Q 208.05 423.99 211.90 438.78
  Q 217.92 461.90 236.69 476.56
  Q 260.18 494.92 290.99 489.71
  Q 300.13 488.17 306.75 484.75
  Q 307.95 484.13 308.75 484.54
  Q 293.31 503.08 270.00 508.00
  Q 254.92 511.18 239.37 507.20
  Q 216.42 501.33 202.19 483.56
  Q 193.05 472.16 189.35 457.83
  Q 186.77 447.83 187.54 438.01
  Q 188.44 426.60 193.19 415.19
  Q 200.02 398.77 205.71 388.20
  Q 224.48 353.34 247.66 321.27
  Q 250.73 317.02 252.64 316.01
  Q 256.43 313.99 260.75 317.21
  Z"
/>
<path fill="#62c9cc" d="
  M 260.75 317.21
  Q 262.06 318.35 264.81 322.19
  Q 284.31 349.36 300.83 378.43
  Q 309.78 394.17 316.93 410.82
  Q 320.24 418.54 322.40 426.63
  Q 324.69 435.24 324.46 443.10
  Q 323.77 466.17 308.75 484.54
  Q 307.95 484.13 306.75 484.75
  Q 300.13 488.17 290.99 489.71
  Q 260.18 494.92 236.69 476.56
  Q 217.92 461.90 211.90 438.78
  Q 208.05 423.99 211.75 409.75
  Q 214.28 400.01 219.13 389.09
  Q 227.50 370.25 238.05 352.53
  Q 243.91 342.69 259.69 318.19
  Q 260.26 317.29 260.75 317.21
  Z
  M 293.61 421.77
  C 293.61 414.91 288.04 409.34 281.18 409.34
  C 274.32 409.34 268.75 414.91 268.75 421.77
  C 268.75 428.63 274.32 434.20 281.18 434.20
  C 288.04 434.20 293.61 428.63 293.61 421.77
  Z
  M 283.16 463.74
  C 283.16 453.38 274.77 444.99 264.41 444.99
  C 254.05 444.99 245.66 453.38 245.66 463.74
  C 245.66 474.10 254.05 482.49 264.41 482.49
  C 274.77 482.49 283.16 474.10 283.16 463.74
  Z"
/>
<circle fill="#d4f2e8" cx="281.18" cy="421.77" r="12.43"/>
<path fill="#fd9d7e" d="
  M 98.21 434.50
  Q 102.54 434.70 106.86 434.87
  Q 111.26 435.04 113.28 436.46
  Q 116.75 438.89 116.75 443.75
  Q 116.75 455.00 116.52 466.25
  Q 116.31 476.63 105.75 476.03
  Q 101.88 475.81 98.04 476.25
  L 97.71 475.75
  Q 98.00 475.20 98.00 473.25
  Q 98.05 454.40 97.94 435.55
  C 97.94 435.32 97.74 435.10 97.45 435.03
  Q 97.19 434.96 97.00 434.79
  Q 97.67 434.85 98.21 434.50
  Z"
/>
<path fill="#fd9d7e" d="
  M 18.75 434.71
  Q 19.24 434.63 19.50 434.96
  L 19.25 435.00
  C 19.11 435.02 19.00 435.13 19.00 435.26
  Q 18.69 451.92 18.92 468.58
  Q 18.92 468.61 18.73 471.78
  Q 18.60 473.81 19.25 475.79
  Q 19.10 476.09 18.75 476.04
  Q 14.13 475.97 9.50 476.06
  Q 2.24 476.20 0.00 469.44
  Q 0.00 455.44 0.00 441.44
  Q 1.44 435.84 6.25 435.00
  Q 8.68 434.58 18.75 434.71
  Z"
/>
<path fill="#eb6836" d="
  M 97.00 434.79
  Q 97.19 434.96 97.45 435.03
  C 97.74 435.10 97.94 435.32 97.94 435.55
  Q 98.05 454.40 98.00 473.25
  Q 98.00 475.20 97.71 475.75
  L 19.25 475.79
  Q 18.60 473.81 18.73 471.78
  Q 18.92 468.61 18.92 468.58
  Q 18.69 451.92 19.00 435.26
  C 19.00 435.13 19.11 435.02 19.25 435.00
  L 19.50 434.96
  L 97.00 434.79
  Z"
/>
<circle fill="#d4f2e8" cx="264.41" cy="463.74" r="18.75"/>
<path fill="#f7d04a" d="
  M 19.25 475.79
  L 97.71 475.75
  L 98.04 476.25
  Q 98.53 487.52 98.10 498.78
  Q 97.99 501.89 97.00 503.51
  Q 95.58 505.84 93.00 506.75
  Q 90.46 507.65 86.99 507.56
  Q 84.58 507.50 84.51 507.50
  Q 56.01 507.50 27.50 507.50
  Q 22.85 507.50 20.38 504.09
  Q 19.01 502.20 18.91 498.57
  Q 18.59 487.31 18.75 476.04
  Q 19.10 476.09 19.25 475.79
  Z"
/>
</svg>
